<svg width="121" height="121" viewBox="0 0 121 121" fill="none" xmlns="http://www.w3.org/2000/svg">
<g clip-path="url(#clip0_12_99)">
<rect width="121" height="121" rx="15" fill="#303030"/>
<path d="M-12.463 58.5406H-13.2827V59.0563H-13.2927V60.3768H-13.2827V60.5647H-13.2927V61.5935H14.027C16.1483 61.5935 17.7916 60.9929 19.1134 60.2023C19.1134 60.2023 20.6978 59.1441 21.8578 58.3988C23.0178 57.6536 23.9377 57.1065 24.659 56.8035L24.7041 56.7845C25.4319 56.4784 26.6685 55.9583 28.5056 55.9444C30.3812 55.9301 31.337 56.2284 32.5921 56.7465C33.8472 57.2645 34.5506 57.8269 35.4632 58.6605C38.5433 61.4742 41.7948 69.0146 43.187 73.0782C45.4347 79.6386 47.8465 85.42 49.3498 88.0322C50.713 90.4011 52.1897 92.4116 53.823 93.8365C55.4581 95.263 57.3048 96.1475 59.3922 96.1475C61.5665 96.1475 63.3997 94.8874 64.958 92.9659C65.9454 91.7485 66.8648 90.2154 67.7276 88.4405C68.5435 86.9748 69.3098 85.2912 70.0351 83.4448C74.2784 72.6422 75.8823 59.5241 82.5985 49.3571C82.6866 49.2749 82.7486 49.2171 82.7771 49.187C82.9591 48.9951 85.0136 47.3306 86.7262 47.3401C88.4389 47.3497 89.6712 47.9219 91.1669 48.8992C92.2912 49.6338 94.2605 51.8271 95.5928 53.3109C96.033 53.8011 96.4037 54.214 96.6513 54.4711C97.0458 54.8807 97.4386 55.3489 97.8767 55.8711C98.546 56.6688 99.3215 57.5932 100.369 58.6261C101.236 59.4806 102.207 60.2135 103.332 60.7362C104.463 61.2617 105.794 61.5935 107.355 61.5935H132.623V60.9292H132.633V60.163H132.623V59.5241H132.633V58.7789H133.453V57.9262H133.463V56.9427H108.195C107.087 56.9427 106.06 56.5009 105.073 55.6219C104.08 54.7376 103.172 53.4476 102.328 51.852C100.639 48.6615 99.2722 44.3906 97.9365 40.0705C97.8404 39.7595 97.7444 39.4482 97.6484 39.1371C96.4187 35.1501 95.1973 31.1898 93.7594 28.1581C92.9847 26.5248 92.1303 25.1228 91.1476 24.1215C90.1646 23.1199 88.9848 22.4534 87.5659 22.4534C86.7344 22.4534 86.0261 22.8423 85.4355 23.3984C84.8419 23.9575 84.2965 24.7492 83.7845 25.7102C83.6171 26.0244 83.4516 26.36 83.2879 26.7155C83.1752 26.9049 83.0643 27.1026 82.9548 27.3081C81.9287 29.2341 80.9751 31.9605 80.0547 35.1948C76.8769 46.3614 75.1769 58.6605 68.6849 71.5676C67.4223 73.2447 65.4126 74.9221 63.9307 75.8754C62.4342 76.8382 60.9188 77.3038 59.3822 77.3038C57.7587 77.3038 56.4174 77.1333 54.1417 76.1013C53.0302 75.5973 51.9613 74.9752 50.9411 74.2635C46.0526 69.4693 43.187 62.686 40.6788 56.638C39.6091 53.1952 38.566 49.8379 37.4363 47.4962C36.2968 45.1344 35.1021 43.1292 33.8117 41.7066C32.5344 40.2985 31.062 39.3521 29.3453 39.3521C28.4833 39.3521 27.7358 39.677 27.0942 40.1599C26.4573 40.6394 25.8851 41.3032 25.354 42.059C25.0373 42.5097 24.6674 43.2197 24.2894 44.0211C23.6343 45.1109 22.8212 47.0168 22.174 48.5336C21.7794 49.4585 21.4464 50.2389 21.2488 50.6011C21.0982 50.8771 20.8934 51.3118 20.6504 51.8276C20.4795 52.1905 20.2896 52.5936 20.0863 53.0098C19.7193 53.6626 19.3359 54.2609 18.959 54.693C17.7075 56.1275 16.3814 56.9427 14.8667 56.9427H-12.453V57.4584H-12.463V58.5406Z" fill="white"/>
</g>
<defs>
<clipPath id="clip0_12_99">
<rect width="121" height="121" rx="15" fill="white"/>
</clipPath>
</defs>
</svg>
