<svg width="40" height="40" viewBox="0 0 40 40" fill="none" xmlns="http://www.w3.org/2000/svg">
<g clip-path="url(#clip0_9_29)">
<mask id="mask0_9_29" style="mask-type:alpha" maskUnits="userSpaceOnUse" x="0" y="-14" width="40" height="59">
<rect y="-13.048" width="40" height="57.758" fill="#303030"/>
</mask>
<g mask="url(#mask0_9_29)">
<path fill-rule="evenodd" clip-rule="evenodd" d="M25.1781 21.3044L25.1777 21.305C25.0874 21.4713 24.9958 21.6429 24.9027 21.8174L24.9022 21.8184L24.9012 21.8202L24.9011 21.8204C24.3542 22.8454 23.7552 23.9683 23.0528 24.691C22.6249 25.1312 22.1544 25.5034 21.626 25.7667C21.1025 26.0276 20.4867 26.1987 19.7563 26.1987C19.0551 26.1987 18.4347 26.0786 17.8855 25.8849C17.3368 25.6914 16.8407 25.4185 16.3828 25.0969C15.8778 24.7422 15.0379 23.7514 14.2829 22.8607L14.2828 22.8606C14.0551 22.592 13.8351 22.3326 13.6344 22.1024C13.39 21.8221 13.0978 21.5484 12.813 21.305L12.8115 21.3039C12.3514 21.0528 11.9107 20.8524 11.7215 20.7668C11.4149 20.6282 11.1786 20.5347 10.757 20.4485C10.3354 20.3624 10.0143 20.3127 9.38425 20.3151C8.76713 20.3174 8.35174 20.4039 8.10727 20.4548C7.78313 20.5223 7.46623 20.6231 7.15112 20.7233C6.76146 20.8472 6.22922 21.0232 6.22922 21.0232C5.78519 21.1547 5.23318 21.2546 4.52057 21.2546H-4.65669L-4.65694 21.0929H4.52037C5.0292 21.0929 5.4747 20.9822 5.89509 20.7874C6.20082 20.6458 6.51933 20.3725 6.74209 20.1814C6.783 20.1463 6.82399 20.1115 6.86491 20.0768C6.99661 19.965 7.12767 19.8537 7.2538 19.7343C7.49805 19.5029 7.81271 19.2048 8.04335 19.0721C8.22172 18.9695 8.41395 18.8794 8.62793 18.8143C8.84341 18.7487 9.09454 18.7046 9.38409 18.7046C9.96077 18.7046 10.4554 18.8331 10.8845 19.0243C11.318 19.2174 11.7193 19.4897 12.102 19.8103C12.4816 20.1282 12.832 20.5841 13.1913 21.0515L13.1918 21.0522L13.2046 21.0688C13.2648 21.1471 13.3253 21.2257 13.3862 21.304L13.3866 21.3044C13.5931 21.474 13.8046 21.6412 14.0282 21.7915C14.7166 22.2541 16.0848 22.9368 16.3829 23.0685C16.4334 23.0908 16.4911 23.1178 16.5559 23.1481C16.8736 23.2967 17.3609 23.5246 17.996 23.6672C18.7605 23.8388 19.211 23.8671 19.7564 23.8671C20.2726 23.8671 20.7816 23.7897 21.2843 23.6296C21.7822 23.4711 22.4572 23.1921 22.8814 22.9132C23.688 22.3828 24.1626 21.987 24.7605 21.3057L24.7624 21.3027C24.792 21.2499 24.8219 21.196 24.8522 21.1409C25.0028 20.8668 25.1504 20.5923 25.296 20.3215L25.2963 20.3209C25.7704 19.4391 26.224 18.5954 26.6973 17.9233C27.0065 17.4842 27.3268 17.114 27.6715 16.8525C27.8435 16.722 28.0267 16.6145 28.2261 16.5386C28.4245 16.4631 28.6625 16.4103 28.9418 16.4103C29.4184 16.4103 29.8148 16.5008 30.145 16.6368C30.4751 16.7728 30.7621 16.9631 31.0223 17.1848C31.5054 17.5965 31.9157 18.1342 32.3288 18.6755C32.8087 19.3044 33.2924 19.9374 33.9006 20.4017C34.1843 20.6183 34.4891 20.7935 34.8227 20.9135C35.1542 21.0329 35.4993 21.0929 35.8714 21.0929H56.8581L56.7536 21.2546H35.8715C35.347 21.2546 34.9001 21.1994 34.5202 21.112C34.1423 21.0251 33.8161 20.9032 33.5249 20.7611C33.1728 20.5893 32.9124 20.4356 32.6876 20.3029L32.6873 20.3028C32.5899 20.2453 32.492 20.1868 32.3933 20.1278C31.7675 19.7539 31.1149 19.3639 30.4336 19.1435C29.9311 18.981 29.5172 18.8859 28.9419 18.8843C28.3665 18.8827 27.6764 19.1595 27.6153 19.1914C27.6057 19.1964 27.5849 19.206 27.5552 19.2197C27.3964 19.2931 26.9849 19.4831 26.6974 19.7053C26.3563 19.9688 26.1737 20.1262 25.6999 20.6894C25.554 20.8628 25.406 21.0388 25.2545 21.215C25.2291 21.2445 25.2037 21.2743 25.1781 21.3044ZM63.0417 21.2546L63.1635 21.0929H167.93L138.308 21.1249H167.815V21.2382H167.587V21.2546H63.0417Z" fill="#85D2E6"/>
<path fill-rule="evenodd" clip-rule="evenodd" d="M25.1754 21.2336L25.1777 21.2277C25.2032 21.1775 25.2286 21.1278 25.2539 21.0786C25.4045 20.786 25.5516 20.4936 25.6967 20.2055L25.6984 20.2022L25.6995 20.1999C26.1733 19.2587 26.3557 18.9958 26.6968 18.5554C26.9843 18.1842 27.3958 17.8665 27.5547 17.7439L27.5547 17.7439C27.5843 17.721 27.6051 17.705 27.6147 17.6966C27.6759 17.6433 28.366 17.1807 28.9413 17.1833C29.5167 17.186 29.9306 17.345 30.433 17.6166C30.8107 17.8208 31.4723 18.4303 31.9198 18.8427L31.9207 18.8435L31.9221 18.8448C32.069 18.9802 32.1926 19.0941 32.2754 19.1652C32.4078 19.2789 32.5396 19.4089 32.6866 19.5539L32.687 19.5543L32.6871 19.5543C32.9119 19.7761 33.1723 20.0328 33.5244 20.3199C33.8156 20.5574 34.1418 20.7611 34.5197 20.9064C34.8996 21.0524 35.3465 21.1447 35.871 21.1447H56.8247L56.9993 20.8744H35.8707C35.4985 20.8744 35.1535 20.7742 34.822 20.5748C34.4884 20.3741 34.1835 20.0814 33.8998 19.7193C33.3325 18.9954 32.8735 18.0263 32.4248 17.0461L32.4048 17.0024L32.328 16.8343L32.3279 16.8342C31.9149 15.9296 31.5046 15.031 31.0216 14.3432C30.7613 13.9726 30.4743 13.6545 30.1442 13.4273C29.814 13.2 29.4177 13.0488 28.9411 13.0488C28.6617 13.0488 28.4238 13.137 28.2254 13.2632C28.026 13.39 27.8428 13.5697 27.6708 13.7877C27.3261 14.2248 27.0057 14.8434 26.6966 15.5772C26.2232 16.7009 25.7695 18.1112 25.2953 19.5852L25.2952 19.5853L25.2946 19.5872L25.2911 19.598C25.1469 20.0465 25.0007 20.5009 24.8514 20.9547C24.8207 21.0483 24.7903 21.1398 24.7602 21.2295C24.1622 22.3685 23.6876 23.0301 22.8808 23.9167C22.4567 24.3828 21.7816 24.849 21.2838 25.1139C20.7811 25.3815 20.272 25.5109 19.7559 25.5109C19.2105 25.5109 18.7599 25.4635 17.9955 25.1767C17.3604 24.9385 16.873 24.5575 16.5553 24.3092C16.4905 24.2586 16.4328 24.2135 16.3824 24.1762C16.0843 23.9561 14.7161 22.8152 14.0276 22.042C13.8041 21.791 13.5926 21.5115 13.3862 21.2282L13.3841 21.2242C13.3196 21.0856 13.2555 20.9465 13.1918 20.8079L13.1906 20.8053C12.8313 20.0241 12.4809 19.2623 12.1014 18.731C11.7186 18.1951 11.3173 17.7401 10.8838 17.4173C10.4547 17.0978 9.96009 16.8831 9.38341 16.8831C9.09385 16.8831 8.84274 16.9568 8.62724 17.0664C8.41327 17.1752 8.22105 17.3258 8.04268 17.4973C7.81205 17.719 7.49736 18.2172 7.25312 18.6039C7.12056 18.8137 7.00875 18.9908 6.94236 19.0729C6.89193 19.1353 6.82344 19.2336 6.74218 19.35L6.74135 19.3512C6.5186 19.6707 6.20017 20.1273 5.89443 20.364C5.47403 20.6895 5.02857 20.8744 4.51973 20.8744H-4.65757V21.0976H-4.65721V21.1173L-4.65724 21.1298V21.1447H4.52002C5.23264 21.1447 5.78464 20.9777 6.22866 20.758C6.22866 20.758 6.76091 20.4639 7.15058 20.2568C7.54024 20.0497 7.84926 19.8976 8.09156 19.8134L8.10672 19.8081C8.3512 19.7231 8.7666 19.5785 9.38371 19.5746C10.0138 19.5707 10.3349 19.6536 10.7565 19.7976C11.1781 19.9415 11.4144 20.0978 11.7209 20.3295C11.9102 20.4725 12.3509 20.8075 12.8111 21.2273C13.0963 21.6344 13.3889 22.0925 13.6337 22.5616C13.8343 22.946 14.0541 23.3793 14.2816 23.8279L14.282 23.8288C15.0371 25.3173 15.8771 26.9734 16.3821 27.5661C16.84 28.1036 17.3361 28.5598 17.8847 28.8831C18.434 29.2068 19.0544 29.4075 19.7556 29.4075C20.486 29.4075 21.1018 29.1216 21.6253 28.6856C22.1537 28.2455 22.6241 27.6236 23.052 26.8878C23.7544 25.68 24.3535 23.8033 24.9004 22.0902C24.9935 21.7986 25.0851 21.5117 25.1754 21.2336ZM63.3279 20.8744H136.106V21.1447H63.1245L63.3279 20.8744Z" fill="#B0D9D8"/>
<path fill-rule="evenodd" clip-rule="evenodd" d="M25.2539 20.8688C25.2285 20.9418 25.203 21.0155 25.1774 21.0899C25.0865 21.3882 24.9944 21.696 24.9007 22.0089C24.3538 23.8353 23.7547 25.8359 23.0523 27.1235C22.6244 27.9079 22.1539 28.5709 21.6255 29.0401C21.102 29.5049 20.4862 29.8097 19.7558 29.8097C19.0546 29.8097 18.4342 29.5957 17.885 29.2507C17.3363 28.906 16.8402 28.4197 16.3823 27.8467C15.8774 27.2148 15.0375 25.4497 14.2825 23.8628L14.2822 23.8624C14.0546 23.3839 13.8346 22.9216 13.6339 22.5115C13.3893 22.0118 13.0969 21.5238 12.8119 21.0899C12.3514 20.4685 11.9102 19.9725 11.7209 19.7608C11.4143 19.4181 11.178 19.187 10.7564 18.974C10.3348 18.761 10.0137 18.6384 9.38363 18.6443C8.7665 18.65 8.35111 18.8638 8.10664 18.9896L8.09148 18.9974C7.84919 19.122 7.54015 19.3469 7.15051 19.6533C6.76083 19.9596 6.22858 20.3946 6.22858 20.3946C5.78455 20.7196 5.23255 20.9665 4.51995 20.9665H-4.65728V20.7129H4.51995C5.02879 20.7129 5.47425 20.5157 5.89465 20.1687C6.20037 19.9163 6.51881 19.4296 6.74157 19.089C6.82319 18.9643 6.89198 18.8591 6.94257 18.7924C7.00896 18.7048 7.12078 18.516 7.25333 18.2923C7.49758 17.8801 7.81226 17.349 8.04288 17.1126C8.22128 16.9298 8.41349 16.7692 8.62746 16.6532C8.84295 16.5364 9.09408 16.4578 9.38363 16.4578C9.9603 16.4578 10.4549 16.6868 10.884 17.0274C11.3175 17.3715 11.7188 17.8565 12.1016 18.4278C12.4811 18.9943 12.8315 19.8064 13.1908 20.6392L13.191 20.6395C13.2557 20.7894 13.3206 20.94 13.3861 21.0899C13.5925 21.509 13.804 21.9225 14.0275 22.2938C14.716 23.4374 16.0842 25.125 16.3823 25.4506C16.4328 25.5057 16.4905 25.5724 16.5552 25.6472C16.8729 26.0145 17.3603 26.578 17.9954 26.9304C18.7598 27.3546 19.2104 27.4247 19.7558 27.4247C20.2719 27.4247 20.781 27.2333 21.2837 26.8375C21.7815 26.4456 22.4566 25.7561 22.8808 25.0667C23.6878 23.7547 24.1625 22.7759 24.7609 21.0899C24.7908 20.9948 24.8211 20.8977 24.8517 20.7985C25.002 20.311 25.1492 19.8231 25.2946 19.3415L25.2948 19.3406L25.2954 19.3386C25.7696 17.7671 26.2234 16.2636 26.6968 15.0657C27.006 14.2834 27.3263 13.6239 27.671 13.158C27.843 12.9255 28.0262 12.734 28.2256 12.5988C28.424 12.4642 28.6619 12.3702 28.9413 12.3702C29.4179 12.3702 29.8142 12.5314 30.1444 12.7737C30.4745 13.0159 30.7616 13.355 31.0218 13.7501C31.5048 14.4835 31.9152 15.4415 32.3283 16.406L32.425 16.6316C32.8737 17.6766 33.3327 18.7097 33.9 19.4815C34.1838 19.8674 34.4886 20.1795 34.8222 20.3934C35.1537 20.606 35.4988 20.7129 35.8709 20.7129H57.1128L56.9428 20.9665H35.8709C35.3464 20.9665 34.8995 20.8301 34.5196 20.6141C34.1417 20.3992 33.8155 20.098 33.5243 19.7467C33.1722 19.3219 32.9118 18.9421 32.687 18.6141C32.5398 18.3995 32.4078 18.207 32.2753 18.0386C32.1921 17.9329 32.0676 17.7632 31.9197 17.5617L31.9196 17.5615C31.4721 16.9516 30.8106 16.0501 30.433 15.7482C29.9305 15.3464 29.5166 15.1112 28.9413 15.1072C28.3659 15.1033 27.6758 15.7876 27.6147 15.8664C27.6051 15.8788 27.5843 15.9026 27.5547 15.9364C27.3959 16.1177 26.9843 16.5876 26.6968 17.1367C26.3557 17.7881 26.1732 18.177 25.6994 19.5691L25.6982 19.5729C25.5526 20.0005 25.4049 20.4344 25.2539 20.8688ZM63.262 20.9665L63.46 20.7129H167.839V20.9665H63.262Z" fill="#E1E4CE"/>
<path fill-rule="evenodd" clip-rule="evenodd" d="M35.8701 20.8028C35.3456 20.8028 34.8987 20.6158 34.5188 20.3196C34.1409 20.025 33.8147 19.612 33.5235 19.1305C33.1714 18.5482 32.911 18.0275 32.6862 17.5779C32.539 17.2836 32.407 17.0197 32.2745 16.7889C32.2205 16.6949 32.1492 16.5679 32.0654 16.4187C31.6288 15.6417 30.8537 14.2621 30.4321 13.8001C29.9297 13.2493 29.4583 13.0552 28.9404 13.0849C28.4226 13.1147 27.8776 13.6488 27.6138 13.9622C27.35 14.2756 27.0371 14.6593 26.6959 15.5524C26.3548 16.4454 26.1724 16.9786 25.6986 18.8871L25.6978 18.8902C25.5521 19.4771 25.4043 20.0726 25.2531 20.6688C25.1375 21.1244 25.0199 21.6017 24.8998 22.0891C24.3529 24.3093 23.7538 26.7412 23.0514 28.3065C22.6235 29.2601 22.153 30.066 21.6246 30.6363C21.1012 31.2013 20.4854 31.5719 19.755 31.5719C19.0538 31.5719 18.4334 31.3118 17.8841 30.8923C17.3355 30.4733 16.8394 29.8821 16.3815 29.1856C15.8765 28.4174 15.0365 26.2713 14.2814 24.3422C14.0537 23.7605 13.8338 23.1985 13.6331 22.7C12.9933 21.1111 12.0266 19.6196 11.72 19.1498C11.4135 18.6801 11.1772 18.3631 10.7556 18.0712C10.334 17.7792 10.0129 17.6111 9.38283 17.6191C8.76567 17.627 8.35022 17.9202 8.10577 18.0926L8.09067 18.1033C7.84837 18.2741 7.53934 18.5824 7.14967 19.0024C6.76001 19.4224 6.22777 20.0188 6.22777 20.0188C5.78374 20.4643 5.23174 20.8028 4.51913 20.8028H-4.65819V20.5136H4.51913C5.02797 20.5136 5.4734 20.2739 5.8938 19.8521C6.19954 19.5453 6.51799 18.9536 6.74075 18.5396C6.82237 18.388 6.89114 18.2602 6.94174 18.179C7.00813 18.0725 7.11998 17.843 7.25256 17.571C7.49683 17.0699 7.81148 16.4244 8.04208 16.1371C8.22046 15.9148 8.41269 15.7196 8.62666 15.5786C8.84216 15.4366 9.09328 15.3411 9.38283 15.3411C9.9595 15.3411 10.4541 15.6194 10.8832 16.0334C11.3167 16.4517 11.718 17.0414 12.1008 17.7359C12.4803 18.4244 12.8307 19.4116 13.19 20.424C13.4586 21.1808 13.7322 21.9517 14.0267 22.6224C14.7152 24.1902 16.0834 26.5038 16.3815 26.9501C16.6796 27.3964 17.3968 28.2675 17.9946 28.7222C18.5923 29.1769 19.2096 29.3998 19.755 29.3998C20.2711 29.3998 20.7701 29.0546 21.2829 28.5949C21.7958 28.1352 22.4558 27.3689 22.8799 26.4238C23.7274 24.5352 24.2084 23.1501 24.8508 20.6177C25.0015 20.0239 25.149 19.4296 25.2946 18.843L25.2949 18.8417C25.769 16.9319 26.2226 15.1046 26.6959 13.6488C27.0051 12.6978 27.3255 11.8961 27.6702 11.3297C27.8421 11.0471 28.0253 10.8143 28.2248 10.6499C28.4231 10.4864 28.6611 10.3721 28.9404 10.3721C29.4171 10.3721 29.8134 10.568 30.1436 10.8626C30.4737 11.157 30.7607 11.5692 31.021 12.0495C31.504 12.941 31.9143 14.1056 32.3274 15.278C32.3596 15.3695 32.3919 15.4609 32.4241 15.5524C32.8728 16.8227 33.3319 18.0785 33.8992 19.0167C34.1829 19.4859 34.4878 19.8652 34.8214 20.1252C35.1529 20.3837 35.4979 20.5136 35.8701 20.5136H57.2325L57.0456 20.8028H35.8701ZM63.3818 20.8028L63.5995 20.5136H167.904V20.8028H63.3818Z" fill="#FFB483"/>
<path fill-rule="evenodd" clip-rule="evenodd" d="M35.8745 20.5804C35.35 20.5804 34.9031 20.3511 34.5232 19.988C34.1453 19.6269 33.8191 19.1206 33.5279 18.5302C33.1758 17.8164 32.9155 17.1781 32.6906 16.6269C32.5434 16.2661 32.4114 15.9426 32.2789 15.6596C32.1957 15.4819 32.0712 15.1968 31.9234 14.8581C31.4758 13.833 30.8143 12.3176 30.4366 11.8101C29.9341 11.1349 29.5759 10.9491 29.0006 10.9426C28.4253 10.936 27.9058 11.4933 27.6183 12.0089C27.3307 12.5244 27.0415 13.0489 26.7004 14.1437C26.3593 15.2385 26.1768 15.8922 25.703 18.2318L25.7023 18.2355C25.5566 18.955 25.4087 19.6852 25.2575 20.4161C25.1419 20.9746 25.0244 21.5596 24.9043 22.1571C24.3574 24.8789 23.7583 27.8605 23.0559 29.7794C22.628 30.9484 22.1575 31.9365 21.6291 32.6356C21.1056 33.3283 20.4898 33.7825 19.7594 33.7825C19.0582 33.7825 18.4379 33.4637 17.8886 32.9494C17.3399 32.4358 16.8439 31.711 16.3859 30.8571C15.881 29.9154 15.041 27.2845 14.2859 24.9196C14.0582 24.2064 13.8383 23.5174 13.6375 22.9063C12.9977 20.9584 12.0311 18.7516 11.7245 18.1757C11.6621 18.0583 11.606 17.9473 11.5522 17.8409C11.3423 17.425 11.1687 17.0814 10.7958 16.7217C10.3275 16.2698 10.0173 16.1371 9.38727 16.147C8.75722 16.1569 8.31743 16.6249 8.09514 16.8926C7.9221 17.1011 7.69823 17.431 7.41293 17.8513C7.33173 17.9709 7.24554 18.0979 7.15414 18.2315C6.74161 18.8344 6.23222 19.6192 6.23222 19.6192C5.78821 20.1654 5.23621 20.5804 4.52359 20.5804H-4.65366V20.2258H4.52359C5.03244 20.2258 5.47789 19.932 5.89828 19.4149C6.20401 19.0388 6.52245 18.3134 6.74522 17.8059C6.82684 17.62 6.89561 17.4633 6.94621 17.3638C7.0126 17.2332 7.12442 16.952 7.25699 16.6186C7.50124 16.0042 7.81592 15.2127 8.04654 14.8605C8.22491 14.5881 8.41714 14.3488 8.6311 14.1759C8.84662 14.0018 9.09772 13.8847 9.38727 13.8847C9.96394 13.8847 10.4586 14.2259 10.8876 14.7335C11.3211 15.2463 11.7224 15.9692 12.1052 16.8205C12.4847 17.6647 12.8351 18.875 13.1945 20.1161C13.4631 21.0438 13.7367 21.9888 14.0312 22.811C14.7197 24.7331 16.0878 27.5694 16.3859 28.1165C16.4364 28.2092 16.4941 28.3212 16.5588 28.447C16.8765 29.0643 17.3639 30.0113 17.999 30.6036C18.7635 31.3166 19.214 31.4343 19.7594 31.4343C20.2756 31.4343 20.7846 31.1127 21.2874 30.4475C21.7852 29.7889 22.4603 28.63 22.8844 27.4713C23.7318 25.1561 24.2128 23.4581 24.8553 20.3534C25.0059 19.6255 25.1534 18.8969 25.299 18.1778L25.2992 18.1772C25.7734 15.8355 26.227 13.5951 26.7004 11.8101C27.0096 10.6442 27.3299 9.66134 27.6746 8.96704C27.8466 8.62062 28.0298 8.33521 28.2292 8.13367C28.4276 7.9332 28.6656 7.79303 28.9449 7.79303C29.4215 7.79303 29.8178 8.03328 30.148 8.39434C30.4781 8.75531 30.7652 9.26069 31.0254 9.84946C31.5084 10.9424 31.9187 12.37 32.3318 13.8074C32.364 13.9195 32.3963 14.0316 32.4286 14.1437C32.8773 15.701 33.3363 17.2406 33.9036 18.3907C34.1873 18.9659 34.4922 19.4309 34.8258 19.7497C35.1573 20.0666 35.5024 20.2258 35.8745 20.2258H57.4185L57.1894 20.5804H40.1186H35.8745ZM63.5492 20.5804L63.8161 20.2258H167.877V20.5804H63.5492Z" fill="#FF893C"/>
</g>
</g>
<defs>
<clipPath id="clip0_9_29">
<rect width="40" height="40" rx="10" fill="white"/>
</clipPath>
</defs>
</svg>
