<svg width="200" height="200" viewBox="0 0 200 200" fill="none" xmlns="http://www.w3.org/2000/svg">
<g clip-path="url(#clip0_9_2)">
<mask id="mask0_9_2" style="mask-type:alpha" maskUnits="userSpaceOnUse" x="0" y="-66" width="200" height="290">
<rect y="-65.2402" width="200" height="288.79" fill="#303030"/>
</mask>
<g mask="url(#mask0_9_2)">
<path fill-rule="evenodd" clip-rule="evenodd" d="M125.891 106.522L125.889 106.525C125.437 107.357 124.979 108.215 124.513 109.087L124.511 109.092L124.506 109.101C121.772 114.227 118.776 119.841 115.264 123.455C113.124 125.656 110.772 127.517 108.13 128.834C105.512 130.138 102.434 130.993 98.7815 130.993C95.2755 130.993 92.1738 130.393 89.4275 129.425C86.6842 128.457 84.2038 127.093 81.9141 125.484C79.3892 123.711 75.1892 118.757 71.414 114.303L71.4124 114.301C70.2745 112.959 69.1752 111.662 68.172 110.512C66.9499 109.111 65.4891 107.742 64.0649 106.525L64.0577 106.52C61.7572 105.264 59.5536 104.262 58.6076 103.834C57.0747 103.141 55.8932 102.673 53.7852 102.243C51.6771 101.812 50.0716 101.564 46.9214 101.576C43.8358 101.587 41.7588 102.02 40.5364 102.274C38.9157 102.612 37.3313 103.116 35.7557 103.617C33.8074 104.236 31.1462 105.116 31.1462 105.116C28.926 105.774 26.166 106.273 22.603 106.273H-23.2833L-23.2846 105.464H22.602C25.1462 105.464 27.3736 104.911 29.4756 103.937C31.0043 103.229 32.5968 101.863 33.7106 100.907C33.9153 100.732 34.1203 100.557 34.3251 100.384C34.9834 99.8249 35.6386 99.2688 36.2691 98.6715C37.4903 97.5146 39.0637 96.0242 40.2168 95.3608C41.1087 94.8478 42.0699 94.3972 43.1397 94.0717C44.2172 93.7438 45.4728 93.5233 46.9206 93.5233C49.8039 93.5233 52.2772 94.1658 54.4225 95.1216C56.5899 96.0873 58.5965 97.4486 60.5104 99.0518C62.4079 100.641 64.1601 102.921 65.9567 105.258L65.9594 105.261C66.2816 105.68 66.605 106.101 66.9311 106.52L66.9333 106.522C67.9656 107.37 69.0232 108.206 70.141 108.958C73.5833 111.271 80.4242 114.684 81.9148 115.343C82.1672 115.454 82.4557 115.589 82.7794 115.741C84.368 116.484 86.8049 117.623 89.9801 118.336C93.8025 119.194 96.0552 119.336 98.7821 119.336C101.363 119.336 103.908 118.949 106.422 118.148C108.911 117.355 112.286 115.961 114.407 114.566C118.44 111.914 120.813 109.935 123.802 106.528L123.812 106.514C123.96 106.25 124.11 105.98 124.261 105.705C125.014 104.334 125.752 102.962 126.48 101.608C128.851 97.1977 131.12 92.9782 133.487 89.6165C135.033 87.4209 136.634 85.5702 138.358 84.2627C139.218 83.6103 140.134 83.0729 141.131 82.6933C142.123 82.3158 143.312 82.0519 144.709 82.0519C147.092 82.0519 149.074 82.5043 150.725 83.1842C152.375 83.864 153.811 84.8157 155.112 85.9244C157.527 87.9825 159.578 90.6708 161.644 93.3774L161.644 93.3777C164.044 96.5224 166.462 99.687 169.503 102.009C170.921 103.092 172.446 103.968 174.114 104.568C175.771 105.165 177.496 105.464 179.357 105.464H284.291L283.768 106.273H179.358C176.735 106.273 174.501 105.997 172.601 105.56C170.712 105.125 169.081 104.516 167.625 103.806C165.864 102.947 164.562 102.178 163.438 101.515L163.437 101.514C162.95 101.227 162.46 100.934 161.967 100.64C158.838 98.7699 155.575 96.8197 152.168 95.7179C149.656 94.9053 147.586 94.4294 144.71 94.4215C141.833 94.4136 138.382 95.7976 138.077 95.9571C138.029 95.9822 137.924 96.0303 137.777 96.0986C136.982 96.4654 134.925 97.4158 133.487 98.5265C131.781 99.844 130.869 100.631 128.5 103.447L128.495 103.453C127.767 104.318 127.028 105.196 126.273 106.075C126.146 106.223 126.018 106.372 125.891 106.522ZM315.209 106.273L315.817 105.464H839.649L691.541 105.624H839.074V106.191H837.934V106.273H315.209Z" fill="#85D2E6"/>
<path fill-rule="evenodd" clip-rule="evenodd" d="M125.877 106.168L125.888 106.139C126.016 105.888 126.143 105.639 126.27 105.393C127.024 103.927 127.761 102.462 128.488 101.018L128.492 101.011L128.497 101C130.866 96.2939 131.779 94.9791 133.484 92.7771C134.922 90.9209 136.98 89.3324 137.774 88.7195C137.922 88.6053 138.026 88.525 138.074 88.4831C138.379 88.2164 141.83 85.9035 144.707 85.9167C147.583 85.9299 149.653 86.7252 152.165 88.0833C154.053 89.104 157.361 92.1515 159.598 94.2134L159.599 94.2138L159.603 94.2178L159.616 94.2291C160.348 94.9036 160.964 95.4714 161.377 95.826C162.038 96.3943 162.698 97.0442 163.432 97.7686L163.435 97.7715C164.559 98.8803 165.861 100.164 167.622 101.6C169.078 102.787 170.709 103.806 172.598 104.532C174.498 105.262 176.732 105.724 179.355 105.724H284.123L284.997 104.372H179.353C177.493 104.372 175.767 103.871 174.11 102.874C172.442 101.871 170.918 100.407 169.499 98.5969C166.662 94.9773 164.367 90.1318 162.124 85.2308L162.024 85.0121C161.896 84.732 161.768 84.4518 161.64 84.1717C159.574 79.6484 157.523 75.1555 155.108 71.716C153.807 69.863 152.372 68.2725 150.721 67.1365C149.07 66.0001 147.088 65.244 144.705 65.244C143.309 65.244 142.119 65.6852 141.127 66.3161C140.13 66.9503 139.214 67.8486 138.354 68.9388C136.63 71.1239 135.029 74.2171 133.483 77.8864C131.116 83.5046 128.847 90.5565 126.476 97.9269L126.473 97.9364L126.456 97.9904C125.734 100.233 125.003 102.504 124.257 104.774C124.103 105.242 123.951 105.699 123.801 106.148C120.811 111.842 118.438 115.151 114.404 119.584C112.283 121.914 108.908 124.245 106.419 125.57C103.905 126.908 101.36 127.555 98.7792 127.555C96.0523 127.555 93.7996 127.318 89.9772 125.884C86.8018 124.693 84.3648 122.788 82.7762 121.546C82.4526 121.293 82.1641 121.068 81.9118 120.881C80.4213 119.781 73.5803 114.076 70.1381 110.21C69.0205 108.955 67.9631 107.558 66.9311 106.141L66.9203 106.121C66.5977 105.428 66.2777 104.733 65.959 104.04L65.953 104.027L65.9525 104.025C64.156 100.12 62.4042 96.3116 60.5067 93.6552C58.5929 90.9758 56.5863 88.7008 54.4188 87.0868C52.2736 85.4894 49.8004 84.4157 46.917 84.4157C45.4692 84.4157 44.2136 84.7842 43.1361 85.3321C42.0663 85.8761 41.1052 86.6292 40.2133 87.4866C39.0601 88.5952 37.4868 91.0861 36.2655 93.0196C35.6027 94.0689 35.0437 94.954 34.7117 95.3649C34.4593 95.6773 34.1162 96.1693 33.7092 96.7526L33.7067 96.7564C32.5929 98.3535 31.0007 100.636 29.4721 101.82C27.3701 103.447 25.1428 104.372 22.5986 104.372H-23.2879V105.488H-23.2862V105.587L-23.2862 105.649V105.724H22.6001C26.1631 105.724 28.9232 104.889 31.1433 103.79C31.1433 103.79 33.8045 102.32 35.7528 101.284C37.7011 100.248 39.2462 99.4882 40.4577 99.0671L40.5336 99.0408C41.7559 98.6154 43.833 97.8927 46.9185 97.8733C50.0687 97.8535 51.6742 98.2681 53.7823 98.988C55.8903 99.7078 57.0719 100.489 58.6046 101.648C59.5507 102.363 61.7546 104.038 64.0553 106.137C65.4813 108.172 66.9444 110.463 68.1683 112.808C69.1719 114.731 70.2717 116.9 71.4101 119.144C75.1854 126.587 79.3855 134.867 81.9104 137.831C84.2001 140.518 86.6804 142.799 89.4237 144.416C92.17 146.034 95.2717 147.038 98.7778 147.038C102.43 147.038 105.509 145.608 108.126 143.428C110.768 141.228 113.121 138.118 115.26 134.439C118.772 128.4 121.767 119.017 124.502 110.452L124.502 110.451C124.967 108.993 125.425 107.559 125.877 106.168ZM316.639 104.372H680.531V105.724H315.622L316.639 104.372Z" fill="#B0D9D8"/>
<path fill-rule="evenodd" clip-rule="evenodd" d="M126.269 104.344C126.143 104.709 126.015 105.078 125.887 105.45C125.433 106.941 124.972 108.48 124.503 110.044C121.769 119.176 118.773 129.179 115.261 135.618C113.122 139.54 110.769 142.855 108.127 145.2C105.51 147.524 102.431 149.049 98.779 149.049C95.273 149.049 92.1712 147.979 89.4248 146.253C86.6816 144.53 84.2013 142.098 81.9116 139.233C79.3866 136.074 75.1866 127.247 71.4113 119.312L71.4093 119.308C70.2716 116.917 69.1725 114.607 68.1695 112.557C66.9465 110.059 65.4845 107.619 64.0595 105.45C61.7572 102.342 59.5511 99.8625 58.6044 98.8041C57.0716 97.0907 55.89 95.9348 53.782 94.87C51.6739 93.8052 50.0684 93.192 46.9182 93.2213C43.8326 93.2501 41.7556 94.3191 40.5332 94.9482L40.4575 94.9871C39.246 95.6099 37.7008 96.7344 35.7525 98.2663C33.8042 99.7981 31.143 101.973 31.143 101.973C28.9228 103.598 26.1629 104.833 22.5998 104.833H-23.2864V103.564H22.5998C25.144 103.564 27.3713 102.578 29.4732 100.843C31.0019 99.5817 32.5941 97.1478 33.7079 95.4452C34.116 94.8213 34.4599 94.2957 34.7129 93.9618C35.0449 93.5238 35.604 92.5802 36.2667 91.4615C37.4879 89.4003 39.0614 86.7449 40.2145 85.563C41.1064 84.6489 42.0675 83.8461 43.1374 83.2662C44.2148 82.6821 45.4704 82.2892 46.9182 82.2892C49.8015 82.2892 52.2747 83.4338 54.42 85.1368C56.5874 86.8574 58.5941 89.2827 60.508 92.1391C62.4055 94.9713 64.1576 99.0318 65.9542 103.196L65.9654 103.222C66.2854 103.963 66.6067 104.708 66.9306 105.45C67.9626 107.545 69.0202 109.612 70.1378 111.469C73.5801 117.187 80.421 125.625 81.9116 127.253C82.1629 127.527 82.4501 127.859 82.7723 128.232L82.776 128.236C84.3645 130.072 86.8015 132.89 89.977 134.652C93.7993 136.773 96.052 137.123 98.779 137.123C101.36 137.123 103.905 136.167 106.419 134.188C108.908 132.228 112.283 128.78 114.404 125.333C118.439 118.774 120.813 113.879 123.804 105.45C123.954 104.974 124.105 104.489 124.258 103.992C125.01 101.554 125.747 99.1124 126.474 96.7031L126.477 96.6931C128.848 88.8357 131.117 81.3179 133.484 75.3285C135.03 71.4168 136.632 68.1193 138.355 65.7898C139.215 64.6275 140.131 63.67 141.128 62.9938C142.12 62.3212 143.31 61.8509 144.706 61.8509C147.09 61.8509 149.071 62.657 150.722 63.8684C152.373 65.0794 153.808 66.775 155.109 68.7504C157.524 72.4174 159.576 77.2074 161.641 82.0298C161.802 82.4059 161.964 82.7822 162.125 83.1581C164.368 88.383 166.664 93.5486 169.5 97.4074C170.919 99.3372 172.443 100.897 174.111 101.967C175.769 103.03 177.494 103.564 179.355 103.564H285.564L284.714 104.833H179.355C176.732 104.833 174.498 104.151 172.598 103.07C170.709 101.996 169.078 100.49 167.622 98.7334C165.861 96.6097 164.559 94.7106 163.435 93.0706C162.699 91.9974 162.039 91.035 161.377 90.1932C160.961 89.6646 160.338 88.8161 159.599 87.8084L159.598 87.8071C157.36 84.7574 154.053 80.2505 152.165 78.7408C149.653 76.7321 147.583 75.5558 144.706 75.5362C141.83 75.5166 138.379 78.9378 138.073 79.3322C138.026 79.3939 137.922 79.5117 137.776 79.6791L137.773 79.6819C136.979 80.5885 134.922 82.938 133.484 85.6835C131.778 88.9405 130.866 90.8853 128.497 97.8457L128.491 97.8645C127.763 100.003 127.025 102.172 126.269 104.344ZM316.31 104.833L317.3 103.564H839.193V104.833H316.31Z" fill="#E1E4CE"/>
<path fill-rule="evenodd" clip-rule="evenodd" d="M179.35 104.014C176.728 104.014 174.493 103.079 172.594 101.598C170.704 100.125 169.074 98.0603 167.617 95.6524C165.857 92.741 164.555 90.1376 163.431 87.8893C162.695 86.4179 162.035 85.0985 161.372 83.9444C161.103 83.4745 160.746 82.8397 160.327 82.0938C158.144 78.2089 154.268 71.3107 152.161 69.0004C149.648 66.2465 147.291 65.2762 144.702 65.4248C142.113 65.5734 139.388 68.2441 138.069 69.8112C136.75 71.3783 135.185 73.2968 133.48 77.7619C131.774 82.2271 130.862 84.8932 128.493 94.4355C127.763 97.375 127.023 100.358 126.265 103.344C125.687 105.622 125.099 108.008 124.499 110.446C121.764 121.546 118.769 133.706 115.257 141.533C113.118 146.3 110.765 150.33 108.123 153.182C105.506 156.007 102.427 157.86 98.7747 157.86C95.2688 157.86 92.167 156.559 89.4206 154.462C86.6773 152.367 84.1971 149.411 81.9074 145.928C79.3824 142.087 75.1823 131.357 71.407 121.711C70.2686 118.803 69.1689 115.993 68.1653 113.5C64.9664 105.556 60.1329 98.0984 58.6001 95.7494C57.0674 93.4004 55.8859 91.8158 53.7779 90.356C51.6698 88.8963 50.0644 88.0555 46.9141 88.0958C43.8283 88.1352 41.7512 89.6009 40.5289 90.4633L40.4533 90.5166C39.2418 91.3704 37.6966 92.912 35.7483 95.012C33.8 97.1121 31.1388 100.094 31.1388 100.094C28.9187 102.321 26.1587 104.014 22.5956 104.014H-23.2909V102.568H22.5956C25.1399 102.568 27.367 101.37 29.469 99.2605C30.9977 97.7267 32.5898 94.7681 33.7036 92.6984C34.1118 91.94 34.4557 91.3009 34.7087 90.8951C35.0407 90.3626 35.5998 89.2155 36.2627 87.8556C37.4839 85.3499 39.0573 82.122 40.2104 80.6854C41.1023 79.5742 42.0634 78.5983 43.1333 77.8933C44.2108 77.1833 45.4663 76.7056 46.9141 76.7056C49.7975 76.7056 52.2706 78.0971 54.4159 80.1673C56.5832 82.2588 58.5899 85.2071 60.5038 88.6794C62.4013 92.1223 64.1534 97.0583 65.95 102.12C67.2931 105.904 68.6611 109.758 70.1336 113.112C73.5759 120.951 80.4168 132.519 81.9074 134.751C83.3979 136.982 86.984 141.337 89.9727 143.611C92.9614 145.885 96.0478 146.999 98.7747 146.999C101.356 146.999 103.85 145.273 106.415 142.975C108.979 140.676 112.279 136.845 114.4 132.119C118.637 122.676 121.042 115.751 124.254 103.088C125.007 100.123 125.743 97.1544 126.471 94.2247L126.473 94.2153L126.474 94.2125C128.845 84.6619 131.113 75.5242 133.48 68.2441C135.026 63.4889 136.627 59.4805 138.351 56.6487C139.211 55.2358 140.127 54.0718 141.124 53.2498C142.116 52.4322 143.305 51.8605 144.702 51.8605C147.085 51.8605 149.067 52.8404 150.718 54.3129C152.368 55.7852 153.804 57.8464 155.105 60.2477C157.52 64.705 159.571 70.5274 161.637 76.3892C161.798 76.8468 161.959 77.3046 162.121 77.7619C164.364 84.1134 166.659 90.3927 169.496 95.0836C170.915 97.4295 172.439 99.3261 174.107 100.626C175.764 101.919 177.49 102.568 179.35 102.568H286.163L285.228 104.014H179.35ZM316.909 104.014L317.997 102.568H839.521V104.014H316.909Z" fill="#FFB483"/>
<path fill-rule="evenodd" clip-rule="evenodd" d="M179.373 102.902C176.75 102.902 174.516 101.756 172.616 99.9402C170.727 98.1346 169.096 95.6031 167.64 92.6512C165.879 89.0818 164.577 85.8901 163.453 83.1337C162.717 81.33 162.057 79.7127 161.395 78.2979C160.979 77.4096 160.356 75.9835 159.617 74.2899C157.379 69.1643 154.071 61.588 152.183 59.0504C149.671 55.6743 147.88 54.7458 145.003 54.7129C142.126 54.68 139.529 57.4666 138.091 60.0444C136.654 62.6221 135.208 65.2447 133.502 70.7186C131.796 76.1926 130.884 79.461 128.515 91.1592L128.51 91.1875C127.782 94.7821 127.043 98.4295 126.287 102.08C125.71 104.873 125.122 107.799 124.521 110.786C121.787 124.395 118.791 139.303 115.279 148.897C113.14 154.742 110.787 159.682 108.145 163.178C105.528 166.641 102.449 168.913 98.797 168.913C95.291 168.913 92.1893 167.318 89.4429 164.747C86.6996 162.179 84.2195 158.555 81.9297 154.285C79.4049 149.577 75.205 136.423 71.4298 124.598C70.2913 121.032 69.1913 117.587 68.1876 114.531C64.9887 104.792 60.1553 93.758 58.6226 90.8783C58.3104 90.2918 58.0298 89.7363 57.7612 89.2044C56.7112 87.1251 55.8437 85.4072 53.979 83.6083C51.6373 81.3493 50.0867 80.6856 46.9363 80.735C43.7861 80.7843 41.5872 83.1244 40.4757 84.4633C39.6107 85.5053 38.4917 87.154 37.0657 89.255C36.6594 89.8536 36.2281 90.489 35.7707 91.1575C33.7081 94.1723 31.1611 98.0961 31.1611 98.0961C28.941 100.827 26.181 102.902 22.618 102.902H-23.2683V101.129H22.618C25.1622 101.129 27.3895 99.6599 29.4914 97.0744C31.0201 95.1941 32.6122 91.5671 33.726 89.0297C34.1342 88.0999 34.478 87.3165 34.7311 86.8189C35.063 86.1661 35.6222 84.7598 36.285 83.0927C37.5063 80.021 39.0796 76.0638 40.2327 74.3026C41.1246 72.9403 42.0857 71.7439 43.1556 70.8797C44.2331 70.0092 45.4886 69.4237 46.9363 69.4237C49.8198 69.4237 52.2929 71.1295 54.4382 73.6674C56.6055 76.2315 58.6122 79.8459 60.5261 84.1027C62.4237 88.3234 64.1757 94.3747 65.9724 100.58C67.3154 105.219 68.6835 109.944 70.1559 114.055C73.5983 123.666 80.4392 137.847 81.9297 140.583C82.1821 141.046 82.4705 141.606 82.7942 142.235C84.3827 145.322 86.8196 150.057 89.9951 153.018C93.8174 156.583 96.0701 157.172 98.797 157.172C101.378 157.172 103.923 155.564 106.437 152.238C108.926 148.944 112.301 143.15 114.422 137.357C118.659 125.781 121.064 117.29 124.276 101.767C125.029 98.1277 125.767 94.4846 126.495 90.8893C128.866 79.1797 131.135 67.9762 133.502 59.0504C135.048 53.2209 136.65 48.3068 138.373 44.8353C139.233 43.1032 140.149 41.6761 141.146 40.6684C142.138 39.6661 143.328 38.9652 144.724 38.9652C147.108 38.9652 149.089 40.1665 150.74 41.9718C152.391 43.7766 153.826 46.3035 155.127 49.2473C157.542 54.7123 159.594 61.8511 161.659 69.0382C161.82 69.5983 161.982 70.1587 162.143 70.7186C164.386 78.5051 166.682 86.2031 169.518 91.9538C170.937 94.8297 172.461 97.1548 174.129 98.7487C175.787 100.333 177.512 101.129 179.373 101.129H287.093L285.947 102.902H200.593H179.373ZM317.746 102.902L319.08 101.129H839.383V102.902H317.746Z" fill="#FF893C"/>
</g>
</g>
<defs>
<clipPath id="clip0_9_2">
<rect width="200" height="200" rx="24" fill="white"/>
</clipPath>
</defs>
</svg>
