<svg width="33" height="32" viewBox="0 0 33 32" fill="none" xmlns="http://www.w3.org/2000/svg">
  <rect x="0.192017" width="32" height="32" rx="8" fill="black" />
  <path fill-rule="evenodd" clip-rule="evenodd"
    d="M17.071 15.1204H20.5369V13.1202C20.5369 12.4362 20.7036 11.8097 21.037 11.2407C21.3761 10.6716 21.8273 10.2175 22.3906 9.87842C22.9597 9.54504 23.589 9.37836 24.2788 9.37836C24.9685 9.37836 25.595 9.54504 26.1583 9.87842C26.7274 10.2175 27.1786 10.6716 27.5119 11.2407C27.8511 11.8097 28.0206 12.4362 28.0206 13.1202C28.0206 13.8099 27.8511 14.4393 27.5119 15.0084C27.1786 15.5774 26.7274 16.0315 26.1583 16.3706C25.595 16.7097 24.9685 16.8793 24.2788 16.8793H22.2958V20.3452H24.2788C24.9685 20.3452 25.595 20.5119 26.1583 20.8453C26.7274 21.1844 27.1786 21.6356 27.5119 22.1989C27.8511 22.7679 28.0206 23.3973 28.0206 24.0871C28.0206 24.7768 27.8511 25.4033 27.5119 25.9666C27.1786 26.5356 26.7274 26.9869 26.1583 27.3202C25.595 27.6593 24.9685 27.8289 24.2788 27.8289C23.589 27.8289 22.9597 27.6593 22.3906 27.3202C21.8273 26.9869 21.3761 26.5356 21.037 25.9666C20.7036 25.4033 20.5369 24.7768 20.5369 24.0871V22.1041H17.071L17.071 24.0871C17.071 24.7768 16.9014 25.4033 16.5623 25.9666C16.2232 26.5356 15.7691 26.9869 15.2001 27.3202C14.631 27.6593 14.0016 27.8289 13.3119 27.8289C12.6279 27.8289 12.0014 27.6593 11.4324 27.3202C10.8633 26.9869 10.4093 26.5356 10.0701 25.9666C9.73676 25.4033 9.57007 24.7768 9.57007 24.0871C9.57007 23.3973 9.73676 22.7679 10.0701 22.1989C10.4093 21.6356 10.8633 21.1844 11.4324 20.8453C12.0014 20.5119 12.6279 20.3452 13.3119 20.3452H15.3122V16.8793V15.1204H17.071ZM22.2958 15.1204V13.1202C22.2958 12.7581 22.382 12.4247 22.5544 12.1201C22.7326 11.8212 22.9711 11.5827 23.27 11.4045C23.5747 11.2263 23.9109 11.1372 24.2788 11.1372C24.6466 11.1372 24.98 11.2263 25.2789 11.4045C25.5778 11.5827 25.8163 11.8212 25.9945 12.1201C26.1727 12.4247 26.2618 12.7581 26.2618 13.1202C26.2618 13.4881 26.1727 13.8214 25.9945 14.1203C25.8163 14.425 25.5778 14.6664 25.2789 14.8445C24.98 15.0285 24.6466 15.1204 24.2788 15.1204H22.2958ZM22.2958 24.0871V22.1041H24.2788C24.6466 22.1041 24.98 22.1903 25.2789 22.3627C25.5778 22.5409 25.8163 22.7794 25.9945 23.0783C26.1727 23.383 26.2618 23.7192 26.2618 24.0871C26.2618 24.4549 26.1727 24.7883 25.9945 25.0872C25.8163 25.3861 25.5778 25.6246 25.2789 25.8028C24.98 25.981 24.6466 26.0701 24.2788 26.0701C23.9109 26.0701 23.5747 25.981 23.27 25.8028C22.9711 25.6246 22.7326 25.3861 22.5544 25.0872C22.382 24.7883 22.2958 24.4549 22.2958 24.0871ZM11.5962 25.0872C11.418 24.7883 11.3289 24.4549 11.3289 24.0871C11.3289 23.7192 11.418 23.383 11.5962 23.0783C11.7744 22.7794 12.0129 22.5409 12.3118 22.3627C12.6164 22.1903 12.9498 22.1041 13.3119 22.1041H15.3122L15.3122 24.0871C15.3122 24.4549 15.2202 24.7883 15.0363 25.0872C14.8581 25.3861 14.6167 25.6246 14.312 25.8028C14.0131 25.981 13.6798 26.0701 13.3119 26.0701C12.9498 26.0701 12.6164 25.981 12.3118 25.8028C12.0129 25.6246 11.7744 25.3861 11.5962 25.0872ZM17.071 20.3452V16.8793H20.5369V20.3452H17.071Z"
    fill="#80D0E5" />
  <path d="M15.3124 16.8794V20.3453H17.0712V16.8794H15.3124Z" fill="#B0D9D8" />
  <path d="M20.5371 15.1204L17.0712 15.1204L17.0712 16.8793L20.5371 16.8793L20.5371 15.1204Z"
    fill="#B0D9D8" />
  <path fill-rule="evenodd" clip-rule="evenodd"
    d="M15.3132 16.8795L11.8472 16.8795L11.8472 18.8798C11.8472 19.5638 11.6805 20.1903 11.3472 20.7593C11.008 21.3284 10.5568 21.7824 9.99354 22.1216C9.4245 22.4549 8.79512 22.6216 8.10538 22.6216C7.41564 22.6216 6.78912 22.4549 6.22583 22.1216C5.6568 21.7824 5.20559 21.3284 4.87222 20.7593C4.5331 20.1903 4.36353 19.5638 4.36353 18.8798C4.36353 18.19 4.5331 17.5606 4.87222 16.9916C5.20559 16.4226 5.6568 15.9685 6.22583 15.6294C6.78912 15.2902 7.41564 15.1207 8.10538 15.1207L10.0884 15.1207L10.0884 11.6547L8.10538 11.6547C7.41563 11.6547 6.78912 11.4881 6.22583 11.1547C5.6568 10.8156 5.20559 10.3644 4.87222 9.80107C4.5331 9.23203 4.36353 8.60264 4.36353 7.9129C4.36353 7.22316 4.5331 6.59665 4.87222 6.03336C5.20559 5.46432 5.6568 5.01312 6.22583 4.67975C6.78912 4.34062 7.41563 4.17106 8.10538 4.17106C8.79512 4.17106 9.4245 4.34062 9.99354 4.67974C10.5568 5.01312 11.008 5.46432 11.3472 6.03336C11.6805 6.59665 11.8472 7.22316 11.8472 7.9129L11.8472 9.89591L15.3132 9.89591L15.3132 7.9129C15.3132 7.22316 15.4827 6.59665 15.8218 6.03336C16.161 5.46432 16.615 5.01312 17.1841 4.67974C17.7531 4.34062 18.3825 4.17106 19.0722 4.17106C19.7562 4.17106 20.3828 4.34062 20.9518 4.67974C21.5208 5.01312 21.9749 5.46432 22.314 6.03336C22.6474 6.59665 22.8141 7.22316 22.8141 7.9129C22.8141 8.60264 22.6474 9.23203 22.314 9.80107C21.9749 10.3644 21.5208 10.8156 20.9518 11.1547C20.3828 11.4881 19.7562 11.6547 19.0722 11.6547L17.072 11.6547L17.072 15.1207L17.072 16.8795L15.3132 16.8795ZM10.0884 16.8795L10.0884 18.8798C10.0884 19.2419 10.0022 19.5753 9.82973 19.8799C9.65154 20.1788 9.41301 20.4173 9.11412 20.5955C8.80949 20.7737 8.47324 20.8628 8.10538 20.8628C7.73751 20.8628 7.40414 20.7737 7.10525 20.5955C6.80637 20.4173 6.56783 20.1788 6.38965 19.8799C6.21146 19.5753 6.12237 19.2419 6.12237 18.8798C6.12237 18.5119 6.21146 18.1785 6.38965 17.8796C6.56783 17.575 6.80637 17.3336 7.10525 17.1554C7.40414 16.9715 7.73751 16.8795 8.10538 16.8795L10.0884 16.8795ZM10.0884 7.9129L10.0884 9.89591L8.10538 9.89591C7.73751 9.89591 7.40414 9.80969 7.10525 9.63725C6.80636 9.45907 6.56783 9.22054 6.38965 8.92165C6.21146 8.61701 6.12237 8.28076 6.12237 7.9129C6.12237 7.54504 6.21146 7.21167 6.38965 6.91278C6.56783 6.61389 6.80636 6.37536 7.10525 6.19717C7.40414 6.01899 7.73751 5.9299 8.10538 5.9299C8.47324 5.9299 8.80948 6.01899 9.11412 6.19717C9.41301 6.37536 9.65154 6.61389 9.82973 6.91278C10.0022 7.21167 10.0884 7.54504 10.0884 7.9129ZM20.788 6.91278C20.9662 7.21167 21.0552 7.54504 21.0552 7.9129C21.0552 8.28076 20.9662 8.61701 20.788 8.92165C20.6098 9.22053 20.3713 9.45907 20.0724 9.63725C19.7677 9.80969 19.4344 9.8959 19.0722 9.8959L17.072 9.89591L17.072 7.9129C17.072 7.54504 17.164 7.21167 17.3479 6.91278C17.5261 6.61389 17.7675 6.37536 18.0721 6.19717C18.371 6.01899 18.7044 5.9299 19.0722 5.9299C19.4344 5.9299 19.7677 6.01899 20.0724 6.19717C20.3713 6.37535 20.6098 6.61389 20.788 6.91278ZM15.3132 11.6547L15.3132 15.1207L11.8472 15.1207L11.8472 11.6547L15.3132 11.6547Z"
    fill="#ED7C32" />
  <path fill-rule="evenodd" clip-rule="evenodd"
    d="M11.8472 16.8795L15.3132 16.8795L17.072 16.8795L17.072 15.1207L17.072 11.6547L19.0722 11.6547C19.7562 11.6547 20.3828 11.4881 20.9518 11.1547C21.5208 10.8156 21.9749 10.3644 22.314 9.80107C22.6474 9.23203 22.8141 8.60264 22.8141 7.9129C22.8141 7.22316 22.6474 6.59665 22.314 6.03336C21.9749 5.46432 21.5208 5.01312 20.9518 4.67974C20.3828 4.34062 19.7562 4.17106 19.0722 4.17106C18.3825 4.17106 17.7531 4.34062 17.1841 4.67974C16.615 5.01312 16.161 5.46432 15.8218 6.03336C15.4827 6.59665 15.3132 7.22316 15.3132 7.9129L15.3132 9.89591L11.8472 9.89591L11.8472 11.6547L10.0884 11.6547L10.0884 15.1207L8.10538 15.1207C7.41564 15.1207 6.78912 15.2902 6.22583 15.6294C5.6568 15.9685 5.20559 16.4226 4.87222 16.9916C4.5331 17.5606 4.36353 18.19 4.36353 18.8798C4.36353 19.5638 4.5331 20.1903 4.87222 20.7593C5.20559 21.3284 5.6568 21.7824 6.22583 22.1216C6.78912 22.4549 7.41564 22.6216 8.10538 22.6216C8.79512 22.6216 9.4245 22.4549 9.99354 22.1216C10.5568 21.7824 11.008 21.3284 11.3472 20.7593C11.6805 20.1903 11.8472 19.5638 11.8472 18.8798L11.8472 16.8795ZM11.8472 11.6547L15.3132 11.6547L15.3132 15.1207L11.8472 15.1207L11.8472 11.6547ZM10.0884 16.8795L10.0884 18.8798C10.0884 19.2419 10.0022 19.5753 9.82973 19.8799C9.65154 20.1788 9.41301 20.4173 9.11412 20.5955C8.80949 20.7737 8.47324 20.8628 8.10538 20.8628C7.73751 20.8628 7.40414 20.7737 7.10525 20.5955C6.80637 20.4173 6.56783 20.1788 6.38965 19.8799C6.21146 19.5753 6.12237 19.2419 6.12237 18.8798C6.12237 18.5119 6.21146 18.1785 6.38965 17.8796C6.56783 17.575 6.80637 17.3336 7.10525 17.1554C7.40414 16.9715 7.73751 16.8795 8.10538 16.8795L10.0884 16.8795ZM20.788 6.91278C20.9662 7.21167 21.0552 7.54504 21.0552 7.9129C21.0552 8.28076 20.9662 8.61701 20.788 8.92165C20.6098 9.22053 20.3713 9.45907 20.0724 9.63725C19.7677 9.80969 19.4344 9.8959 19.0722 9.8959L17.072 9.89591L17.072 7.9129C17.072 7.54504 17.164 7.21167 17.3479 6.91278C17.5261 6.61389 17.7675 6.37536 18.0721 6.19717C18.371 6.01899 18.7044 5.9299 19.0722 5.9299C19.4344 5.9299 19.7677 6.01899 20.0724 6.19717C20.3713 6.37535 20.6098 6.61389 20.788 6.91278Z"
    fill="#E78C3F" />
  <rect x="15.3124" y="11.6561" width="1.75885" height="5.22312" fill="#E1E4CE" />
  <rect x="17.0712" y="15.1204" width="1.75885" height="5.22312"
    transform="rotate(90 17.0712 15.1204)" fill="#E1E4CE" />
</svg>
  