<svg width="121" height="121" viewBox="0 0 121 121" fill="none" xmlns="http://www.w3.org/2000/svg">
  <rect width="121" height="121" rx="24" fill="black" />
  <path fill-rule="evenodd" clip-rule="evenodd"
    d="M64.1038 57.6871H77.6546V49.8667C77.6546 47.1925 78.3063 44.743 79.6097 42.5183C80.9355 40.2935 82.6996 38.5182 84.9019 37.1923C87.1267 35.8889 89.5874 35.2372 92.2841 35.2372C94.9808 35.2372 97.4303 35.8889 99.6325 37.1923C101.857 38.5182 103.621 40.2935 104.925 42.5183C106.251 44.743 106.914 47.1925 106.914 49.8667C106.914 52.5634 106.251 55.0241 104.925 57.2489C103.621 59.4736 101.857 61.249 99.6325 62.5748C97.4303 63.9007 94.9808 64.5636 92.2841 64.5636H84.5311V78.1145H92.2841C94.9808 78.1145 97.4303 78.7662 99.6325 80.0696C101.857 81.3954 103.621 83.1595 104.925 85.3618C106.251 87.5865 106.914 90.0473 106.914 92.744C106.914 95.4406 106.251 97.8901 104.925 100.092C103.621 102.317 101.857 104.081 99.6325 105.385C97.4303 106.711 94.9808 107.373 92.2841 107.373C89.5874 107.373 87.1267 106.711 84.9019 105.385C82.6996 104.081 80.9355 102.317 79.6097 100.092C78.3063 97.8901 77.6546 95.4406 77.6546 92.744V84.991H64.1038L64.1038 92.744C64.1038 95.4406 63.4408 97.8901 62.115 100.092C60.7891 102.317 59.0138 104.081 56.789 105.385C54.5642 106.711 52.1035 107.373 49.4068 107.373C46.7326 107.373 44.2831 106.711 42.0584 105.385C39.8336 104.081 38.0583 102.317 36.7324 100.092C35.429 97.8901 34.7773 95.4406 34.7773 92.744C34.7773 90.0473 35.429 87.5865 36.7324 85.3618C38.0583 83.1595 39.8336 81.3954 42.0584 80.0696C44.2831 78.7662 46.7326 78.1145 49.4068 78.1145H57.2272V64.5636V57.6871H64.1038ZM84.5311 57.6871V49.8667C84.5311 48.451 84.8682 47.1476 85.5424 45.9565C86.239 44.788 87.1716 43.8554 88.3402 43.1587C89.5312 42.4621 90.8459 42.1138 92.2841 42.1138C93.7223 42.1138 95.0257 42.4621 96.1943 43.1587C97.3628 43.8554 98.2954 44.788 98.9921 45.9565C99.6887 47.1476 100.037 48.451 100.037 49.8667C100.037 51.3049 99.6887 52.6083 98.9921 53.7769C98.2954 54.9679 97.3628 55.9118 96.1943 56.6084C95.0257 57.3275 93.7223 57.6871 92.2841 57.6871H84.5311ZM84.5311 92.744V84.991H92.2841C93.7223 84.991 95.0257 85.3281 96.1943 86.0023C97.3628 86.6989 98.2954 87.6315 98.9921 88.8001C99.6887 89.9911 100.037 91.3057 100.037 92.744C100.037 94.1822 99.6887 95.4856 98.9921 96.6541C98.2954 97.8227 97.3628 98.7553 96.1943 99.452C95.0257 100.149 93.7223 100.497 92.2841 100.497C90.8459 100.497 89.5312 100.149 88.3402 99.452C87.1716 98.7553 86.239 97.8227 85.5424 96.6541C84.8682 95.4856 84.5311 94.1822 84.5311 92.744ZM42.6988 96.6541C42.0022 95.4856 41.6539 94.1822 41.6539 92.744C41.6539 91.3057 42.0022 89.9911 42.6988 88.8001C43.3955 87.6315 44.3281 86.6989 45.4967 86.0023C46.6877 85.3281 47.9911 84.991 49.4068 84.991H57.2272L57.2272 92.744C57.2272 94.1822 56.8677 95.4856 56.1485 96.6541C55.4519 97.8227 54.5081 98.7553 53.317 99.452C52.1485 100.149 50.8451 100.497 49.4068 100.497C47.9911 100.497 46.6877 100.149 45.4967 99.452C44.3281 98.7553 43.3955 97.8227 42.6988 96.6541ZM64.1038 78.1145V64.5636H77.6546V78.1145H64.1038Z"
    fill="#80D0E5" />
  <path d="M57.2272 64.5637V78.1145H64.1037V64.5637H57.2272Z" fill="#B0D9D8" />
  <path d="M77.6547 57.6871L64.1038 57.6871L64.1038 64.5637L77.6547 64.5637L77.6547 57.6871Z"
    fill="#B0D9D8" />
  <path fill-rule="evenodd" clip-rule="evenodd"
    d="M57.2302 64.5643L43.6794 64.5643L43.6794 72.3847C43.6794 75.0589 43.0277 77.5084 41.7243 79.7332C40.3984 81.9579 38.6344 83.7333 36.4321 85.0591C34.2073 86.3625 31.7466 87.0142 29.0499 87.0142C26.3532 87.0142 23.9037 86.3625 21.7014 85.0591C19.4767 83.7333 17.7126 81.9579 16.4092 79.7332C15.0833 77.5084 14.4204 75.0589 14.4204 72.3847C14.4204 69.688 15.0833 67.2273 16.4092 65.0026C17.7126 62.7778 19.4767 61.0025 21.7014 59.6766C23.9037 58.3507 26.3532 57.6878 29.0499 57.6878L36.8029 57.6878L36.8029 44.137L29.0499 44.137C26.3532 44.137 23.9037 43.4853 21.7014 42.1819C19.4767 40.856 17.7126 39.0919 16.4092 36.8897C15.0833 34.6649 14.4204 32.2042 14.4204 29.5075C14.4204 26.8108 15.0833 24.3613 16.4092 22.159C17.7126 19.9343 19.4767 18.1702 21.7014 16.8668C23.9037 15.5409 26.3532 14.878 29.0499 14.878C31.7466 14.878 34.2073 15.5409 36.4321 16.8668C38.6344 18.1702 40.3984 19.9343 41.7243 22.159C43.0277 24.3613 43.6794 26.8108 43.6794 29.5075L43.6794 37.2604L57.2302 37.2604L57.2302 29.5075C57.2302 26.8108 57.8932 24.3613 59.219 22.159C60.5449 19.9343 62.3202 18.1702 64.545 16.8668C66.7697 15.5409 69.2305 14.878 71.9271 14.878C74.6013 14.878 77.0508 15.5409 79.2756 16.8668C81.5004 18.1702 83.2757 19.9343 84.6015 22.159C85.9049 24.3613 86.5566 26.8108 86.5566 29.5075C86.5566 32.2042 85.9049 34.6649 84.6015 36.8896C83.2757 39.0919 81.5004 40.856 79.2756 42.1819C77.0508 43.4853 74.6013 44.137 71.9271 44.137L64.1068 44.137L64.1068 57.6878L64.1068 64.5643L57.2302 64.5643ZM36.8029 64.5643L36.8029 72.3847C36.8029 73.8005 36.4658 75.1039 35.7916 76.2949C35.095 77.4635 34.1624 78.3961 32.9938 79.0927C31.8028 79.7894 30.4881 80.1377 29.0499 80.1377C27.6117 80.1377 26.3083 79.7894 25.1397 79.0927C23.9712 78.3961 23.0385 77.4635 22.3419 76.2949C21.6453 75.1039 21.2969 73.8005 21.2969 72.3847C21.2969 70.9465 21.6453 69.6431 22.3419 68.4745C23.0385 67.2835 23.9712 66.3397 25.1397 65.643C26.3083 64.9239 27.6117 64.5643 29.0499 64.5643L36.8029 64.5643ZM36.8029 29.5075L36.8029 37.2604L29.0499 37.2604C27.6117 37.2604 26.3083 36.9234 25.1397 36.2492C23.9711 35.5525 23.0385 34.6199 22.3419 33.4514C21.6453 32.2603 21.2969 30.9457 21.2969 29.5075C21.2969 28.0693 21.6453 26.7659 22.3419 25.5973C23.0385 24.4287 23.9711 23.4961 25.1397 22.7995C26.3083 22.1028 27.6117 21.7545 29.0499 21.7545C30.4881 21.7545 31.8028 22.1028 32.9938 22.7995C34.1624 23.4961 35.095 24.4287 35.7916 25.5973C36.4658 26.7659 36.8029 28.0693 36.8029 29.5075ZM78.6351 25.5973C79.3318 26.7659 79.6801 28.0693 79.6801 29.5075C79.6801 30.9457 79.3318 32.2603 78.6351 33.4514C77.9385 34.6199 77.0059 35.5525 75.8373 36.2492C74.6463 36.9234 73.3429 37.2604 71.9271 37.2604L64.1068 37.2604L64.1068 29.5075C64.1068 28.0693 64.4663 26.7659 65.1854 25.5973C65.8821 24.4287 66.8259 23.4961 68.0169 22.7995C69.1855 22.1028 70.4889 21.7545 71.9271 21.7545C73.3429 21.7545 74.6463 22.1028 75.8373 22.7995C77.0059 23.4961 77.9385 24.4287 78.6351 25.5973ZM57.2302 44.137L57.2302 57.6878L43.6794 57.6878L43.6794 44.137L57.2302 44.137Z"
    fill="#ED7C32" />
  <path fill-rule="evenodd" clip-rule="evenodd"
    d="M43.6794 64.5643L57.2302 64.5643L64.1068 64.5643L64.1068 57.6878L64.1068 44.137L71.9271 44.137C74.6013 44.137 77.0508 43.4853 79.2756 42.1819C81.5004 40.856 83.2757 39.0919 84.6015 36.8896C85.9049 34.6649 86.5566 32.2042 86.5566 29.5075C86.5566 26.8108 85.9049 24.3613 84.6015 22.159C83.2757 19.9343 81.5004 18.1702 79.2756 16.8668C77.0508 15.5409 74.6013 14.878 71.9271 14.878C69.2305 14.878 66.7697 15.5409 64.545 16.8668C62.3202 18.1702 60.5449 19.9343 59.219 22.159C57.8932 24.3613 57.2302 26.8108 57.2302 29.5075L57.2302 37.2604L43.6794 37.2604L43.6794 44.137L36.8029 44.137L36.8029 57.6878L29.0499 57.6878C26.3532 57.6878 23.9037 58.3507 21.7014 59.6766C19.4767 61.0025 17.7126 62.7778 16.4092 65.0026C15.0833 67.2273 14.4204 69.688 14.4204 72.3847C14.4204 75.0589 15.0833 77.5084 16.4092 79.7332C17.7126 81.9579 19.4767 83.7333 21.7014 85.0591C23.9037 86.3625 26.3532 87.0142 29.0499 87.0142C31.7466 87.0142 34.2073 86.3625 36.4321 85.0591C38.6344 83.7333 40.3984 81.9579 41.7243 79.7332C43.0277 77.5084 43.6794 75.0589 43.6794 72.3847L43.6794 64.5643ZM43.6794 44.137L57.2302 44.137L57.2302 57.6878L43.6794 57.6878L43.6794 44.137ZM36.8029 64.5643L36.8029 72.3847C36.8029 73.8005 36.4658 75.1039 35.7916 76.2949C35.095 77.4635 34.1624 78.3961 32.9938 79.0927C31.8028 79.7894 30.4881 80.1377 29.0499 80.1377C27.6117 80.1377 26.3083 79.7894 25.1397 79.0927C23.9712 78.3961 23.0385 77.4635 22.3419 76.2949C21.6453 75.1039 21.2969 73.8005 21.2969 72.3847C21.2969 70.9465 21.6453 69.6431 22.3419 68.4745C23.0385 67.2835 23.9712 66.3397 25.1397 65.643C26.3083 64.9239 27.6117 64.5643 29.0499 64.5643L36.8029 64.5643ZM78.6351 25.5973C79.3318 26.7659 79.6801 28.0693 79.6801 29.5075C79.6801 30.9457 79.3318 32.2603 78.6351 33.4514C77.9385 34.6199 77.0059 35.5525 75.8373 36.2492C74.6463 36.9234 73.3429 37.2604 71.9271 37.2604L64.1068 37.2604L64.1068 29.5075C64.1068 28.0693 64.4663 26.7659 65.1854 25.5973C65.8821 24.4287 66.8259 23.4961 68.0169 22.7995C69.1855 22.1028 70.4889 21.7545 71.9271 21.7545C73.3429 21.7545 74.6463 22.1028 75.8373 22.7995C77.0059 23.4961 77.9385 24.4287 78.6351 25.5973Z"
    fill="#E78C3F" />
  <rect x="57.2272" y="44.1427" width="6.8766" height="20.4209" fill="#E1E4CE" />
  <rect x="64.1038" y="57.687" width="6.8766" height="20.4209" transform="rotate(90 64.1038 57.687)"
    fill="#E1E4CE" />
  <g style="mix-blend-mode:color-dodge" opacity="0.37">
    <rect x="14.0864" y="13.6266" width="92.8271" height="93.7469" fill="url(#paint0_radial_13_953)" />
  </g>
  <defs>
    <radialGradient id="paint0_radial_13_953" cx="0" cy="0" r="1" gradientUnits="userSpaceOnUse"
      gradientTransform="translate(60.5 60.5) rotate(90) scale(46.8734 46.4136)">
      <stop stop-color="white" />
      <stop offset="1" stop-color="white" stop-opacity="0" />
    </radialGradient>
  </defs>
</svg>
  