<svg width="622" height="197" viewBox="0 0 622 197" fill="none" xmlns="http://www.w3.org/2000/svg">
<path d="M71.0563 41.4711C70.8733 39.1454 72.7111 37.1572 75.044 37.1572H92.8233C95.1854 37.1572 97.0331 39.1933 96.8046 41.5443L93.0301 80.3663C92.7811 82.9283 90.6276 84.8825 88.0536 84.8825H79.095C76.4857 84.8825 74.3151 82.876 74.1104 80.2748L71.0563 41.4711Z" fill="white"/>
<rect x="210.193" y="81.0352" width="385.122" height="45.3086" fill="white"/>
<path d="M70.9781 113.478C70.9781 109.895 72.2015 106.855 74.6484 104.358C77.0952 101.861 80.0739 100.613 83.5846 100.613C87.2016 100.613 90.2335 101.861 92.6804 104.358C95.1272 106.855 96.3506 109.895 96.3506 113.478C96.3506 117.061 95.1272 120.101 92.6804 122.598C90.2335 125.095 87.2016 126.344 83.5846 126.344C80.0739 126.344 77.0952 125.095 74.6484 122.598C72.2015 120.101 70.9781 117.061 70.9781 113.478Z" fill="white"/>
<mask id="path-4-outside-1_1207_106364" maskUnits="userSpaceOnUse" x="187.688" y="30.1182" width="434" height="106" fill="black">
<rect fill="white" x="187.688" y="30.1182" width="434" height="106"/>
<path fill-rule="evenodd" clip-rule="evenodd" d="M258.84 117.29C258.036 115.133 257.634 112.616 257.634 109.74V97.1571V84.4542V71.7514V59.1684V47.9036V41.1182C257.634 38.909 259.425 37.1182 261.634 37.1182H262.82H267.281H271.502H275.843H281.149C281.355 37.1182 281.528 37.1509 281.667 37.2163C281.818 37.2865 281.939 37.3705 282.049 37.4948V37.4948C282.208 37.6751 282.35 37.916 282.429 38.1435C282.46 38.2334 282.475 38.331 282.475 38.4364V51.3789V64.2016V77.0243V89.7271V102.55C282.475 102.869 282.516 103.149 282.596 103.389C282.633 103.5 282.679 103.602 282.733 103.696C282.857 103.908 283.061 104.056 283.266 104.192V104.192C283.542 104.375 283.84 104.53 284.169 104.565C284.313 104.58 284.472 104.587 284.646 104.587H286.193C288.402 104.587 290.193 106.378 290.193 108.587V115.133V125.679C290.193 125.919 290.125 126.16 289.988 126.4C289.895 126.565 289.77 126.714 289.607 126.812C289.402 126.935 289.155 126.997 288.867 126.997H285.972H282.958H279.581H275.24C272.668 126.997 270.296 126.637 268.125 125.918C266.035 125.199 264.186 124.121 262.578 122.683C260.971 121.245 259.725 119.447 258.84 117.29ZM194.808 83.0162C194.728 82.8564 194.688 82.6966 194.688 82.5368V75.9457V68.1562V65.4453C194.688 63.2362 196.478 61.4453 198.687 61.4453H200.093C202.302 61.4453 204.093 59.6545 204.093 57.4453V55.5732V49.3417V47.1101C204.093 44.9009 205.884 43.1101 208.093 43.1101H215.429H226.884C226.996 43.1101 227.099 43.1271 227.193 43.1611C227.411 43.24 227.623 43.3656 227.788 43.5288V43.5288C227.954 43.693 228.081 43.9053 228.161 44.1246C228.194 44.2175 228.211 44.3187 228.211 44.4283V57.7303V57.7303C228.211 59.7821 229.874 61.4453 231.926 61.4453H245.937C246.339 61.4453 246.661 61.5652 246.902 61.8048C247.143 62.0445 247.264 62.3641 247.264 62.7635V69.4745V77.264V79.8551C247.264 82.0642 245.473 83.8551 243.264 83.8551H232.211C230.002 83.8551 228.211 85.6459 228.211 87.8551V97.6364C228.211 98.9147 228.332 99.9933 228.573 100.872C228.894 101.751 229.377 102.47 230.02 103.029C230.582 103.588 231.306 103.988 232.19 104.228C233.155 104.387 234.281 104.467 235.567 104.467H238.702H241.958H243.264C245.473 104.467 247.264 106.258 247.264 108.467V115.133V125.679C247.264 125.919 247.195 126.16 247.059 126.4C246.965 126.565 246.841 126.714 246.678 126.812C246.473 126.935 246.226 126.997 245.937 126.997H242.681H239.305H236.049H232.793C228.131 126.997 223.99 126.438 220.373 125.319C216.835 124.121 213.821 122.403 211.329 120.166C208.917 117.929 207.108 115.093 205.902 111.658C204.696 108.142 204.093 104.068 204.093 99.434V88.5287V87.8551C204.093 85.6459 202.302 83.8551 200.093 83.8551H196.014C195.853 83.8551 195.692 83.8151 195.532 83.7352V83.7352C195.22 83.5802 194.965 83.3273 194.808 83.0162V83.0162ZM334.04 107.343C333.075 107.982 331.146 108.302 328.252 108.302C325.197 108.302 322.423 108.262 319.931 108.182C317.439 108.022 315.108 107.823 312.937 107.583C310.847 107.343 308.797 106.984 306.787 106.504C304.876 106.049 302.892 105.484 300.835 104.812C300.624 104.743 300.403 104.707 300.181 104.707V104.707C299.035 104.707 298.105 105.637 298.105 106.784V114.653V124.121C298.105 124.44 298.145 124.68 298.225 124.84C298.242 124.874 298.263 124.91 298.288 124.947C298.521 125.307 298.902 125.541 299.302 125.696C299.995 125.965 301.003 126.279 302.325 126.637C304.174 127.037 306.385 127.396 308.958 127.716C311.53 128.115 314.304 128.435 317.278 128.675C320.253 128.914 323.227 129.034 326.202 129.034C333.115 129.034 338.863 128.195 343.446 126.517C348.028 124.76 351.445 122.243 353.696 118.968C356.027 115.612 357.193 111.458 357.193 106.504C357.193 102.989 356.349 99.9134 354.66 97.2769C353.053 94.5606 350.641 92.3636 347.425 90.6858C344.21 89.0081 340.23 87.8896 335.487 87.3304L326.925 86.2518C325.317 86.0121 324.031 85.7725 323.066 85.5328C322.102 85.2931 321.418 84.9336 321.016 84.4542C320.614 83.9749 320.414 83.4156 320.414 82.7765C320.414 82.0575 320.735 81.4583 321.378 80.9789C322.021 80.4996 323.026 80.1401 324.393 79.9004C325.76 79.6607 327.528 79.5409 329.699 79.5409C332.673 79.5409 335.366 79.7007 337.778 80.0202C340.27 80.3398 342.642 80.7792 344.893 81.3385C347.129 81.7983 349.403 82.3684 351.713 83.0488C351.908 83.1063 352.111 83.136 352.315 83.136V83.136C353.477 83.136 354.419 82.1937 354.419 81.0313V73.7886V64.5611C354.419 64.4353 354.413 64.3219 354.401 64.2208C354.369 63.9636 354.329 63.6897 354.214 63.4576V63.4576C354.134 63.2974 354.023 63.1474 353.873 63.0499C353.839 63.0278 353.801 63.0069 353.76 62.9873C353.566 62.8965 353.361 62.8286 353.167 62.7374C352.403 62.3775 351.172 61.9868 349.475 61.5652C347.546 61.0059 345.134 60.5266 342.24 60.1271C339.426 59.7276 336.13 59.5279 332.352 59.5279C326.965 59.5279 322.142 60.0073 317.881 60.966C313.701 61.9247 310.164 63.4027 307.269 65.4C304.456 67.3174 302.285 69.6343 300.758 72.3506C299.311 74.987 298.587 78.0629 298.587 81.5781C298.587 85.4129 299.351 88.6086 300.878 91.1652C302.486 93.6418 304.938 95.6391 308.234 97.1571C311.53 98.675 315.791 99.7935 321.016 100.513L329.819 101.711C331.347 101.871 332.512 102.15 333.316 102.55C334.201 102.869 334.763 103.269 335.005 103.748C335.326 104.228 335.487 104.707 335.487 105.186C335.487 105.985 335.005 106.704 334.04 107.343ZM361.205 83.0162C361.125 82.8564 361.085 82.6966 361.085 82.5368V75.9457V68.1562V65.4453C361.085 63.2362 362.875 61.4453 365.085 61.4453H366.49C368.7 61.4453 370.49 59.6545 370.49 57.4453V55.5732V49.3417V47.1101C370.49 44.9009 372.281 43.1101 374.49 43.1101H381.826H393.282C393.393 43.1101 393.496 43.1271 393.59 43.1611C393.808 43.24 394.021 43.3656 394.185 43.5288V43.5288C394.351 43.693 394.478 43.9053 394.558 44.1246C394.591 44.2175 394.608 44.3187 394.608 44.4283V57.7303V57.7303C394.608 59.7821 396.271 61.4453 398.323 61.4453H412.334C412.736 61.4453 413.058 61.5652 413.299 61.8048C413.54 62.0445 413.661 62.3641 413.661 62.7635V69.4745V77.264V79.8551C413.661 82.0642 411.87 83.8551 409.661 83.8551H398.608C396.399 83.8551 394.608 85.6459 394.608 87.8551V97.6364C394.608 98.9147 394.729 99.9933 394.97 100.872C395.291 101.751 395.774 102.47 396.417 103.029C396.98 103.588 397.703 103.988 398.587 104.228C399.552 104.387 400.678 104.467 401.964 104.467H405.099H408.355H409.661C411.87 104.467 413.661 106.258 413.661 108.467V115.133V125.679C413.661 125.919 413.593 126.16 413.456 126.4C413.362 126.565 413.238 126.714 413.075 126.812C412.87 126.935 412.623 126.997 412.334 126.997H409.079H405.702H402.446H399.19C394.528 126.997 390.387 126.438 386.77 125.319C383.233 124.121 380.218 122.403 377.726 120.166C375.314 117.929 373.505 115.093 372.299 111.658C371.093 108.142 370.49 104.068 370.49 99.434V88.5287V87.8551C370.49 85.6459 368.7 83.8551 366.49 83.8551H362.411C362.25 83.8551 362.089 83.8151 361.929 83.7352V83.7352C361.617 83.5802 361.362 83.3273 361.205 83.0162V83.0162ZM483.157 105.765C483.04 105.629 482.961 105.463 482.909 105.29C482.808 104.961 482.758 104.607 482.758 104.228V99.434V94.5206V89.6073V84.8138C482.758 80.4197 482.115 76.6648 480.828 73.549C479.622 70.4332 477.693 67.8766 475.04 65.8793C472.468 63.8021 469.171 62.2842 465.152 61.3255C461.213 60.3668 456.47 59.8874 450.923 59.8874C447.064 59.8874 443.285 60.1271 439.587 60.6065C435.97 61.0858 432.875 61.685 430.302 62.404C427.81 63.0432 426.282 63.6423 425.72 64.2016C425.674 64.247 425.628 64.3182 425.583 64.4152C425.502 64.5872 425.428 64.7655 425.393 64.9524C425.37 65.0783 425.358 65.2275 425.358 65.4V74.1482V80.8098C425.358 81.9621 426.292 82.8963 427.444 82.8963V82.8963C427.66 82.8963 427.874 82.8627 428.08 82.7983C430.227 82.1263 432.375 81.5997 434.523 81.2186C436.854 80.7393 439.185 80.3797 441.517 80.1401C443.928 79.9004 446.34 79.7806 448.752 79.7806C451.566 79.7806 453.736 80.0202 455.264 80.4996C456.791 80.899 457.876 81.6181 458.52 82.6567C459.163 83.6953 459.484 85.1333 459.484 86.9708V86.9708C459.484 87.8974 458.733 88.6486 457.807 88.6486H457.555H449.717H440.914C437.859 88.6486 435.125 89.088 432.714 89.9668C430.382 90.7657 428.373 91.9641 426.684 93.5619C425.077 95.0799 423.83 96.9574 422.946 99.1943C422.142 101.431 421.74 103.908 421.74 106.624V111.298C421.74 114.813 422.464 117.849 423.911 120.406C425.438 122.882 427.569 124.8 430.302 126.158C433.116 127.516 436.372 128.195 440.07 128.195C443.125 128.195 445.858 127.756 448.27 126.877C450.681 125.998 452.731 124.76 454.42 123.162C455.925 121.802 457.197 120.21 458.237 118.387C458.574 117.796 459.19 117.41 459.87 117.41H460.976C460.986 117.41 460.995 117.416 461 117.425V117.425C461.017 117.46 461.034 117.495 461.052 117.53C462.097 119.607 463.504 121.364 465.272 122.802C467.121 124.161 469.212 125.199 471.543 125.918C473.955 126.637 476.447 126.997 479.019 126.997H483.722H487.099C487.501 126.997 487.822 126.877 488.064 126.637C488.305 126.398 488.425 126.078 488.425 125.679V116.092V109.278C488.425 107.746 487.184 106.504 485.652 106.504V106.504H485.29H485.049H484.631C484.509 106.504 484.366 106.468 484.263 106.403V106.403C484.125 106.316 483.996 106.256 483.84 106.207C483.565 106.122 483.338 105.975 483.157 105.765ZM457.314 108.901C457.396 108.86 457.478 108.819 457.56 108.777C458.786 108.15 459.484 106.847 459.484 105.47V102.31V102.31C459.484 101.185 458.572 100.273 457.447 100.273H454.299H448.39C447.667 100.273 447.064 100.353 446.581 100.513C446.099 100.672 445.657 100.952 445.255 101.351C444.933 101.671 444.692 102.07 444.531 102.55C444.371 103.029 444.29 103.588 444.29 104.228V107.104C444.29 108.462 444.572 109.46 445.134 110.1C445.777 110.659 446.782 110.938 448.149 110.938C449.837 110.938 451.445 110.779 452.973 110.459C454.5 110.06 455.947 109.54 457.314 108.901ZM490.154 83.0162C490.074 82.8564 490.033 82.6966 490.033 82.5368V75.9457V68.1562V65.4453C490.033 63.2362 491.824 61.4453 494.033 61.4453H495.439C497.648 61.4453 499.439 59.6545 499.439 57.4453V55.5732V49.3417V47.1101C499.439 44.9009 501.23 43.1101 503.439 43.1101H510.775H522.23C522.342 43.1101 522.445 43.1271 522.539 43.1611C522.757 43.24 522.969 43.3656 523.134 43.5288V43.5288C523.3 43.693 523.427 43.9053 523.506 44.1246C523.54 44.2175 523.557 44.3187 523.557 44.4283V57.7303V57.7303C523.557 59.7821 525.22 61.4453 527.272 61.4453H541.283C541.685 61.4453 542.007 61.5652 542.248 61.8048C542.489 62.0445 542.61 62.3641 542.61 62.7635V69.4745V77.264V79.8551C542.61 82.0642 540.819 83.8551 538.61 83.8551H527.557C525.348 83.8551 523.557 85.6459 523.557 87.8551V97.6364C523.557 98.9147 523.677 99.9933 523.919 100.872C524.24 101.751 524.723 102.47 525.366 103.029C525.928 103.588 526.652 103.988 527.536 104.228C528.501 104.387 529.626 104.467 530.913 104.467H534.048H537.304H538.61C540.819 104.467 542.61 106.258 542.61 108.467V115.133V125.679C542.61 125.919 542.541 126.16 542.405 126.4C542.311 126.565 542.187 126.714 542.024 126.812C541.819 126.935 541.572 126.997 541.283 126.997H538.027H534.651H531.395H528.139C523.477 126.997 519.336 126.438 515.719 125.319C512.181 124.121 509.167 122.403 506.675 120.166C504.263 117.929 502.454 115.093 501.248 111.658C500.042 108.142 499.439 104.068 499.439 99.434V88.5287V87.8551C499.439 85.6459 497.648 83.8551 495.439 83.8551H491.36C491.199 83.8551 491.038 83.8151 490.878 83.7352V83.7352C490.566 83.5802 490.311 83.3273 490.154 83.0162V83.0162ZM600.13 62.8834C595.548 60.5665 590.001 59.4081 583.489 59.4081C578.746 59.4081 574.445 60.0872 570.586 61.4453C566.808 62.8035 563.552 64.7608 560.819 67.3174C558.085 69.8739 555.995 72.8699 554.548 76.3053C553.181 79.7406 552.498 83.5355 552.498 87.6899V100.752C552.498 105.306 553.221 109.341 554.669 112.856C556.196 116.371 558.447 119.327 561.421 121.724C564.396 124.121 568.054 125.918 572.395 127.117C576.817 128.395 581.962 129.034 587.83 129.034C591.528 129.034 595.065 128.834 598.442 128.435C601.899 128.115 604.833 127.636 607.245 126.997C609.657 126.358 611.224 125.679 611.948 124.96C612.109 124.8 612.229 124.64 612.31 124.48C612.39 124.32 612.43 124.161 612.43 124.001V115.492V108.981C612.43 107.812 611.482 106.864 610.313 106.864V106.864C610.118 106.864 609.923 106.891 609.735 106.944C607.582 107.55 605.465 108.083 603.386 108.542C601.215 109.021 599.005 109.381 596.754 109.62C594.583 109.78 592.212 109.86 589.639 109.86C586.343 109.94 583.811 109.78 582.042 109.381C580.354 108.901 579.067 108.222 578.183 107.343C577.46 106.624 576.937 105.745 576.616 104.707C576.374 103.588 576.254 102.35 576.254 100.992V100.992C576.254 100.462 576.683 100.033 577.212 100.033H578.063H581.439H585.057H612.912C613.234 100.033 613.475 99.9933 613.636 99.9134C613.797 99.8335 613.917 99.7136 613.998 99.5538C614.158 99.3142 614.239 99.0745 614.239 98.8348V87.57C614.239 81.8178 613.033 76.8645 610.621 72.7101C608.21 68.4758 604.713 65.2002 600.13 62.8834ZM578.304 80.4996C576.937 81.8577 576.254 83.855 576.254 86.4915V86.4915C576.254 87.6166 577.166 88.5287 578.291 88.5287H591.573C591.97 88.5287 592.292 88.2068 592.292 87.8097V87.8097V86.7312C592.292 85.2132 592.131 83.9349 591.81 82.8963C591.488 81.8577 591.006 81.0189 590.363 80.3797C589.719 79.6607 588.875 79.1414 587.83 78.8218C586.865 78.5023 585.7 78.3425 584.333 78.3425C581.761 78.3425 579.751 79.0615 578.304 80.4996Z"/>
</mask>
<path fill-rule="evenodd" clip-rule="evenodd" d="M258.84 117.29C258.036 115.133 257.634 112.616 257.634 109.74V97.1571V84.4542V71.7514V59.1684V47.9036V41.1182C257.634 38.909 259.425 37.1182 261.634 37.1182H262.82H267.281H271.502H275.843H281.149C281.355 37.1182 281.528 37.1509 281.667 37.2163C281.818 37.2865 281.939 37.3705 282.049 37.4948V37.4948C282.208 37.6751 282.35 37.916 282.429 38.1435C282.46 38.2334 282.475 38.331 282.475 38.4364V51.3789V64.2016V77.0243V89.7271V102.55C282.475 102.869 282.516 103.149 282.596 103.389C282.633 103.5 282.679 103.602 282.733 103.696C282.857 103.908 283.061 104.056 283.266 104.192V104.192C283.542 104.375 283.84 104.53 284.169 104.565C284.313 104.58 284.472 104.587 284.646 104.587H286.193C288.402 104.587 290.193 106.378 290.193 108.587V115.133V125.679C290.193 125.919 290.125 126.16 289.988 126.4C289.895 126.565 289.77 126.714 289.607 126.812C289.402 126.935 289.155 126.997 288.867 126.997H285.972H282.958H279.581H275.24C272.668 126.997 270.296 126.637 268.125 125.918C266.035 125.199 264.186 124.121 262.578 122.683C260.971 121.245 259.725 119.447 258.84 117.29ZM194.808 83.0162C194.728 82.8564 194.688 82.6966 194.688 82.5368V75.9457V68.1562V65.4453C194.688 63.2362 196.478 61.4453 198.687 61.4453H200.093C202.302 61.4453 204.093 59.6545 204.093 57.4453V55.5732V49.3417V47.1101C204.093 44.9009 205.884 43.1101 208.093 43.1101H215.429H226.884C226.996 43.1101 227.099 43.1271 227.193 43.1611C227.411 43.24 227.623 43.3656 227.788 43.5288V43.5288C227.954 43.693 228.081 43.9053 228.161 44.1246C228.194 44.2175 228.211 44.3187 228.211 44.4283V57.7303V57.7303C228.211 59.7821 229.874 61.4453 231.926 61.4453H245.937C246.339 61.4453 246.661 61.5652 246.902 61.8048C247.143 62.0445 247.264 62.3641 247.264 62.7635V69.4745V77.264V79.8551C247.264 82.0642 245.473 83.8551 243.264 83.8551H232.211C230.002 83.8551 228.211 85.6459 228.211 87.8551V97.6364C228.211 98.9147 228.332 99.9933 228.573 100.872C228.894 101.751 229.377 102.47 230.02 103.029C230.582 103.588 231.306 103.988 232.19 104.228C233.155 104.387 234.281 104.467 235.567 104.467H238.702H241.958H243.264C245.473 104.467 247.264 106.258 247.264 108.467V115.133V125.679C247.264 125.919 247.195 126.16 247.059 126.4C246.965 126.565 246.841 126.714 246.678 126.812C246.473 126.935 246.226 126.997 245.937 126.997H242.681H239.305H236.049H232.793C228.131 126.997 223.99 126.438 220.373 125.319C216.835 124.121 213.821 122.403 211.329 120.166C208.917 117.929 207.108 115.093 205.902 111.658C204.696 108.142 204.093 104.068 204.093 99.434V88.5287V87.8551C204.093 85.6459 202.302 83.8551 200.093 83.8551H196.014C195.853 83.8551 195.692 83.8151 195.532 83.7352V83.7352C195.22 83.5802 194.965 83.3273 194.808 83.0162V83.0162ZM334.04 107.343C333.075 107.982 331.146 108.302 328.252 108.302C325.197 108.302 322.423 108.262 319.931 108.182C317.439 108.022 315.108 107.823 312.937 107.583C310.847 107.343 308.797 106.984 306.787 106.504C304.876 106.049 302.892 105.484 300.835 104.812C300.624 104.743 300.403 104.707 300.181 104.707V104.707C299.035 104.707 298.105 105.637 298.105 106.784V114.653V124.121C298.105 124.44 298.145 124.68 298.225 124.84C298.242 124.874 298.263 124.91 298.288 124.947C298.521 125.307 298.902 125.541 299.302 125.696C299.995 125.965 301.003 126.279 302.325 126.637C304.174 127.037 306.385 127.396 308.958 127.716C311.53 128.115 314.304 128.435 317.278 128.675C320.253 128.914 323.227 129.034 326.202 129.034C333.115 129.034 338.863 128.195 343.446 126.517C348.028 124.76 351.445 122.243 353.696 118.968C356.027 115.612 357.193 111.458 357.193 106.504C357.193 102.989 356.349 99.9134 354.66 97.2769C353.053 94.5606 350.641 92.3636 347.425 90.6858C344.21 89.0081 340.23 87.8896 335.487 87.3304L326.925 86.2518C325.317 86.0121 324.031 85.7725 323.066 85.5328C322.102 85.2931 321.418 84.9336 321.016 84.4542C320.614 83.9749 320.414 83.4156 320.414 82.7765C320.414 82.0575 320.735 81.4583 321.378 80.9789C322.021 80.4996 323.026 80.1401 324.393 79.9004C325.76 79.6607 327.528 79.5409 329.699 79.5409C332.673 79.5409 335.366 79.7007 337.778 80.0202C340.27 80.3398 342.642 80.7792 344.893 81.3385C347.129 81.7983 349.403 82.3684 351.713 83.0488C351.908 83.1063 352.111 83.136 352.315 83.136V83.136C353.477 83.136 354.419 82.1937 354.419 81.0313V73.7886V64.5611C354.419 64.4353 354.413 64.3219 354.401 64.2208C354.369 63.9636 354.329 63.6897 354.214 63.4576V63.4576C354.134 63.2974 354.023 63.1474 353.873 63.0499C353.839 63.0278 353.801 63.0069 353.76 62.9873C353.566 62.8965 353.361 62.8286 353.167 62.7374C352.403 62.3775 351.172 61.9868 349.475 61.5652C347.546 61.0059 345.134 60.5266 342.24 60.1271C339.426 59.7276 336.13 59.5279 332.352 59.5279C326.965 59.5279 322.142 60.0073 317.881 60.966C313.701 61.9247 310.164 63.4027 307.269 65.4C304.456 67.3174 302.285 69.6343 300.758 72.3506C299.311 74.987 298.587 78.0629 298.587 81.5781C298.587 85.4129 299.351 88.6086 300.878 91.1652C302.486 93.6418 304.938 95.6391 308.234 97.1571C311.53 98.675 315.791 99.7935 321.016 100.513L329.819 101.711C331.347 101.871 332.512 102.15 333.316 102.55C334.201 102.869 334.763 103.269 335.005 103.748C335.326 104.228 335.487 104.707 335.487 105.186C335.487 105.985 335.005 106.704 334.04 107.343ZM361.205 83.0162C361.125 82.8564 361.085 82.6966 361.085 82.5368V75.9457V68.1562V65.4453C361.085 63.2362 362.875 61.4453 365.085 61.4453H366.49C368.7 61.4453 370.49 59.6545 370.49 57.4453V55.5732V49.3417V47.1101C370.49 44.9009 372.281 43.1101 374.49 43.1101H381.826H393.282C393.393 43.1101 393.496 43.1271 393.59 43.1611C393.808 43.24 394.021 43.3656 394.185 43.5288V43.5288C394.351 43.693 394.478 43.9053 394.558 44.1246C394.591 44.2175 394.608 44.3187 394.608 44.4283V57.7303V57.7303C394.608 59.7821 396.271 61.4453 398.323 61.4453H412.334C412.736 61.4453 413.058 61.5652 413.299 61.8048C413.54 62.0445 413.661 62.3641 413.661 62.7635V69.4745V77.264V79.8551C413.661 82.0642 411.87 83.8551 409.661 83.8551H398.608C396.399 83.8551 394.608 85.6459 394.608 87.8551V97.6364C394.608 98.9147 394.729 99.9933 394.97 100.872C395.291 101.751 395.774 102.47 396.417 103.029C396.98 103.588 397.703 103.988 398.587 104.228C399.552 104.387 400.678 104.467 401.964 104.467H405.099H408.355H409.661C411.87 104.467 413.661 106.258 413.661 108.467V115.133V125.679C413.661 125.919 413.593 126.16 413.456 126.4C413.362 126.565 413.238 126.714 413.075 126.812C412.87 126.935 412.623 126.997 412.334 126.997H409.079H405.702H402.446H399.19C394.528 126.997 390.387 126.438 386.77 125.319C383.233 124.121 380.218 122.403 377.726 120.166C375.314 117.929 373.505 115.093 372.299 111.658C371.093 108.142 370.49 104.068 370.49 99.434V88.5287V87.8551C370.49 85.6459 368.7 83.8551 366.49 83.8551H362.411C362.25 83.8551 362.089 83.8151 361.929 83.7352V83.7352C361.617 83.5802 361.362 83.3273 361.205 83.0162V83.0162ZM483.157 105.765C483.04 105.629 482.961 105.463 482.909 105.29C482.808 104.961 482.758 104.607 482.758 104.228V99.434V94.5206V89.6073V84.8138C482.758 80.4197 482.115 76.6648 480.828 73.549C479.622 70.4332 477.693 67.8766 475.04 65.8793C472.468 63.8021 469.171 62.2842 465.152 61.3255C461.213 60.3668 456.47 59.8874 450.923 59.8874C447.064 59.8874 443.285 60.1271 439.587 60.6065C435.97 61.0858 432.875 61.685 430.302 62.404C427.81 63.0432 426.282 63.6423 425.72 64.2016C425.674 64.247 425.628 64.3182 425.583 64.4152C425.502 64.5872 425.428 64.7655 425.393 64.9524C425.37 65.0783 425.358 65.2275 425.358 65.4V74.1482V80.8098C425.358 81.9621 426.292 82.8963 427.444 82.8963V82.8963C427.66 82.8963 427.874 82.8627 428.08 82.7983C430.227 82.1263 432.375 81.5997 434.523 81.2186C436.854 80.7393 439.185 80.3797 441.517 80.1401C443.928 79.9004 446.34 79.7806 448.752 79.7806C451.566 79.7806 453.736 80.0202 455.264 80.4996C456.791 80.899 457.876 81.6181 458.52 82.6567C459.163 83.6953 459.484 85.1333 459.484 86.9708V86.9708C459.484 87.8974 458.733 88.6486 457.807 88.6486H457.555H449.717H440.914C437.859 88.6486 435.125 89.088 432.714 89.9668C430.382 90.7657 428.373 91.9641 426.684 93.5619C425.077 95.0799 423.83 96.9574 422.946 99.1943C422.142 101.431 421.74 103.908 421.74 106.624V111.298C421.74 114.813 422.464 117.849 423.911 120.406C425.438 122.882 427.569 124.8 430.302 126.158C433.116 127.516 436.372 128.195 440.07 128.195C443.125 128.195 445.858 127.756 448.27 126.877C450.681 125.998 452.731 124.76 454.42 123.162C455.925 121.802 457.197 120.21 458.237 118.387C458.574 117.796 459.19 117.41 459.87 117.41H460.976C460.986 117.41 460.995 117.416 461 117.425V117.425C461.017 117.46 461.034 117.495 461.052 117.53C462.097 119.607 463.504 121.364 465.272 122.802C467.121 124.161 469.212 125.199 471.543 125.918C473.955 126.637 476.447 126.997 479.019 126.997H483.722H487.099C487.501 126.997 487.822 126.877 488.064 126.637C488.305 126.398 488.425 126.078 488.425 125.679V116.092V109.278C488.425 107.746 487.184 106.504 485.652 106.504V106.504H485.29H485.049H484.631C484.509 106.504 484.366 106.468 484.263 106.403V106.403C484.125 106.316 483.996 106.256 483.84 106.207C483.565 106.122 483.338 105.975 483.157 105.765ZM457.314 108.901C457.396 108.86 457.478 108.819 457.56 108.777C458.786 108.15 459.484 106.847 459.484 105.47V102.31V102.31C459.484 101.185 458.572 100.273 457.447 100.273H454.299H448.39C447.667 100.273 447.064 100.353 446.581 100.513C446.099 100.672 445.657 100.952 445.255 101.351C444.933 101.671 444.692 102.07 444.531 102.55C444.371 103.029 444.29 103.588 444.29 104.228V107.104C444.29 108.462 444.572 109.46 445.134 110.1C445.777 110.659 446.782 110.938 448.149 110.938C449.837 110.938 451.445 110.779 452.973 110.459C454.5 110.06 455.947 109.54 457.314 108.901ZM490.154 83.0162C490.074 82.8564 490.033 82.6966 490.033 82.5368V75.9457V68.1562V65.4453C490.033 63.2362 491.824 61.4453 494.033 61.4453H495.439C497.648 61.4453 499.439 59.6545 499.439 57.4453V55.5732V49.3417V47.1101C499.439 44.9009 501.23 43.1101 503.439 43.1101H510.775H522.23C522.342 43.1101 522.445 43.1271 522.539 43.1611C522.757 43.24 522.969 43.3656 523.134 43.5288V43.5288C523.3 43.693 523.427 43.9053 523.506 44.1246C523.54 44.2175 523.557 44.3187 523.557 44.4283V57.7303V57.7303C523.557 59.7821 525.22 61.4453 527.272 61.4453H541.283C541.685 61.4453 542.007 61.5652 542.248 61.8048C542.489 62.0445 542.61 62.3641 542.61 62.7635V69.4745V77.264V79.8551C542.61 82.0642 540.819 83.8551 538.61 83.8551H527.557C525.348 83.8551 523.557 85.6459 523.557 87.8551V97.6364C523.557 98.9147 523.677 99.9933 523.919 100.872C524.24 101.751 524.723 102.47 525.366 103.029C525.928 103.588 526.652 103.988 527.536 104.228C528.501 104.387 529.626 104.467 530.913 104.467H534.048H537.304H538.61C540.819 104.467 542.61 106.258 542.61 108.467V115.133V125.679C542.61 125.919 542.541 126.16 542.405 126.4C542.311 126.565 542.187 126.714 542.024 126.812C541.819 126.935 541.572 126.997 541.283 126.997H538.027H534.651H531.395H528.139C523.477 126.997 519.336 126.438 515.719 125.319C512.181 124.121 509.167 122.403 506.675 120.166C504.263 117.929 502.454 115.093 501.248 111.658C500.042 108.142 499.439 104.068 499.439 99.434V88.5287V87.8551C499.439 85.6459 497.648 83.8551 495.439 83.8551H491.36C491.199 83.8551 491.038 83.8151 490.878 83.7352V83.7352C490.566 83.5802 490.311 83.3273 490.154 83.0162V83.0162ZM600.13 62.8834C595.548 60.5665 590.001 59.4081 583.489 59.4081C578.746 59.4081 574.445 60.0872 570.586 61.4453C566.808 62.8035 563.552 64.7608 560.819 67.3174C558.085 69.8739 555.995 72.8699 554.548 76.3053C553.181 79.7406 552.498 83.5355 552.498 87.6899V100.752C552.498 105.306 553.221 109.341 554.669 112.856C556.196 116.371 558.447 119.327 561.421 121.724C564.396 124.121 568.054 125.918 572.395 127.117C576.817 128.395 581.962 129.034 587.83 129.034C591.528 129.034 595.065 128.834 598.442 128.435C601.899 128.115 604.833 127.636 607.245 126.997C609.657 126.358 611.224 125.679 611.948 124.96C612.109 124.8 612.229 124.64 612.31 124.48C612.39 124.32 612.43 124.161 612.43 124.001V115.492V108.981C612.43 107.812 611.482 106.864 610.313 106.864V106.864C610.118 106.864 609.923 106.891 609.735 106.944C607.582 107.55 605.465 108.083 603.386 108.542C601.215 109.021 599.005 109.381 596.754 109.62C594.583 109.78 592.212 109.86 589.639 109.86C586.343 109.94 583.811 109.78 582.042 109.381C580.354 108.901 579.067 108.222 578.183 107.343C577.46 106.624 576.937 105.745 576.616 104.707C576.374 103.588 576.254 102.35 576.254 100.992V100.992C576.254 100.462 576.683 100.033 577.212 100.033H578.063H581.439H585.057H612.912C613.234 100.033 613.475 99.9933 613.636 99.9134C613.797 99.8335 613.917 99.7136 613.998 99.5538C614.158 99.3142 614.239 99.0745 614.239 98.8348V87.57C614.239 81.8178 613.033 76.8645 610.621 72.7101C608.21 68.4758 604.713 65.2002 600.13 62.8834ZM578.304 80.4996C576.937 81.8577 576.254 83.855 576.254 86.4915V86.4915C576.254 87.6166 577.166 88.5287 578.291 88.5287H591.573C591.97 88.5287 592.292 88.2068 592.292 87.8097V87.8097V86.7312C592.292 85.2132 592.131 83.9349 591.81 82.8963C591.488 81.8577 591.006 81.0189 590.363 80.3797C589.719 79.6607 588.875 79.1414 587.83 78.8218C586.865 78.5023 585.7 78.3425 584.333 78.3425C581.761 78.3425 579.751 79.0615 578.304 80.4996Z" fill="black"/>
<path fill-rule="evenodd" clip-rule="evenodd" d="M258.84 117.29C258.036 115.133 257.634 112.616 257.634 109.74V97.1571V84.4542V71.7514V59.1684V47.9036V41.1182C257.634 38.909 259.425 37.1182 261.634 37.1182H262.82H267.281H271.502H275.843H281.149C281.355 37.1182 281.528 37.1509 281.667 37.2163C281.818 37.2865 281.939 37.3705 282.049 37.4948V37.4948C282.208 37.6751 282.35 37.916 282.429 38.1435C282.46 38.2334 282.475 38.331 282.475 38.4364V51.3789V64.2016V77.0243V89.7271V102.55C282.475 102.869 282.516 103.149 282.596 103.389C282.633 103.5 282.679 103.602 282.733 103.696C282.857 103.908 283.061 104.056 283.266 104.192V104.192C283.542 104.375 283.84 104.53 284.169 104.565C284.313 104.58 284.472 104.587 284.646 104.587H286.193C288.402 104.587 290.193 106.378 290.193 108.587V115.133V125.679C290.193 125.919 290.125 126.16 289.988 126.4C289.895 126.565 289.77 126.714 289.607 126.812C289.402 126.935 289.155 126.997 288.867 126.997H285.972H282.958H279.581H275.24C272.668 126.997 270.296 126.637 268.125 125.918C266.035 125.199 264.186 124.121 262.578 122.683C260.971 121.245 259.725 119.447 258.84 117.29ZM194.808 83.0162C194.728 82.8564 194.688 82.6966 194.688 82.5368V75.9457V68.1562V65.4453C194.688 63.2362 196.478 61.4453 198.687 61.4453H200.093C202.302 61.4453 204.093 59.6545 204.093 57.4453V55.5732V49.3417V47.1101C204.093 44.9009 205.884 43.1101 208.093 43.1101H215.429H226.884C226.996 43.1101 227.099 43.1271 227.193 43.1611C227.411 43.24 227.623 43.3656 227.788 43.5288V43.5288C227.954 43.693 228.081 43.9053 228.161 44.1246C228.194 44.2175 228.211 44.3187 228.211 44.4283V57.7303V57.7303C228.211 59.7821 229.874 61.4453 231.926 61.4453H245.937C246.339 61.4453 246.661 61.5652 246.902 61.8048C247.143 62.0445 247.264 62.3641 247.264 62.7635V69.4745V77.264V79.8551C247.264 82.0642 245.473 83.8551 243.264 83.8551H232.211C230.002 83.8551 228.211 85.6459 228.211 87.8551V97.6364C228.211 98.9147 228.332 99.9933 228.573 100.872C228.894 101.751 229.377 102.47 230.02 103.029C230.582 103.588 231.306 103.988 232.19 104.228C233.155 104.387 234.281 104.467 235.567 104.467H238.702H241.958H243.264C245.473 104.467 247.264 106.258 247.264 108.467V115.133V125.679C247.264 125.919 247.195 126.16 247.059 126.4C246.965 126.565 246.841 126.714 246.678 126.812C246.473 126.935 246.226 126.997 245.937 126.997H242.681H239.305H236.049H232.793C228.131 126.997 223.99 126.438 220.373 125.319C216.835 124.121 213.821 122.403 211.329 120.166C208.917 117.929 207.108 115.093 205.902 111.658C204.696 108.142 204.093 104.068 204.093 99.434V88.5287V87.8551C204.093 85.6459 202.302 83.8551 200.093 83.8551H196.014C195.853 83.8551 195.692 83.8151 195.532 83.7352V83.7352C195.22 83.5802 194.965 83.3273 194.808 83.0162V83.0162ZM334.04 107.343C333.075 107.982 331.146 108.302 328.252 108.302C325.197 108.302 322.423 108.262 319.931 108.182C317.439 108.022 315.108 107.823 312.937 107.583C310.847 107.343 308.797 106.984 306.787 106.504C304.876 106.049 302.892 105.484 300.835 104.812C300.624 104.743 300.403 104.707 300.181 104.707V104.707C299.035 104.707 298.105 105.637 298.105 106.784V114.653V124.121C298.105 124.44 298.145 124.68 298.225 124.84C298.242 124.874 298.263 124.91 298.288 124.947C298.521 125.307 298.902 125.541 299.302 125.696C299.995 125.965 301.003 126.279 302.325 126.637C304.174 127.037 306.385 127.396 308.958 127.716C311.53 128.115 314.304 128.435 317.278 128.675C320.253 128.914 323.227 129.034 326.202 129.034C333.115 129.034 338.863 128.195 343.446 126.517C348.028 124.76 351.445 122.243 353.696 118.968C356.027 115.612 357.193 111.458 357.193 106.504C357.193 102.989 356.349 99.9134 354.66 97.2769C353.053 94.5606 350.641 92.3636 347.425 90.6858C344.21 89.0081 340.23 87.8896 335.487 87.3304L326.925 86.2518C325.317 86.0121 324.031 85.7725 323.066 85.5328C322.102 85.2931 321.418 84.9336 321.016 84.4542C320.614 83.9749 320.414 83.4156 320.414 82.7765C320.414 82.0575 320.735 81.4583 321.378 80.9789C322.021 80.4996 323.026 80.1401 324.393 79.9004C325.76 79.6607 327.528 79.5409 329.699 79.5409C332.673 79.5409 335.366 79.7007 337.778 80.0202C340.27 80.3398 342.642 80.7792 344.893 81.3385C347.129 81.7983 349.403 82.3684 351.713 83.0488C351.908 83.1063 352.111 83.136 352.315 83.136V83.136C353.477 83.136 354.419 82.1937 354.419 81.0313V73.7886V64.5611C354.419 64.4353 354.413 64.3219 354.401 64.2208C354.369 63.9636 354.329 63.6897 354.214 63.4576V63.4576C354.134 63.2974 354.023 63.1474 353.873 63.0499C353.839 63.0278 353.801 63.0069 353.76 62.9873C353.566 62.8965 353.361 62.8286 353.167 62.7374C352.403 62.3775 351.172 61.9868 349.475 61.5652C347.546 61.0059 345.134 60.5266 342.24 60.1271C339.426 59.7276 336.13 59.5279 332.352 59.5279C326.965 59.5279 322.142 60.0073 317.881 60.966C313.701 61.9247 310.164 63.4027 307.269 65.4C304.456 67.3174 302.285 69.6343 300.758 72.3506C299.311 74.987 298.587 78.0629 298.587 81.5781C298.587 85.4129 299.351 88.6086 300.878 91.1652C302.486 93.6418 304.938 95.6391 308.234 97.1571C311.53 98.675 315.791 99.7935 321.016 100.513L329.819 101.711C331.347 101.871 332.512 102.15 333.316 102.55C334.201 102.869 334.763 103.269 335.005 103.748C335.326 104.228 335.487 104.707 335.487 105.186C335.487 105.985 335.005 106.704 334.04 107.343ZM361.205 83.0162C361.125 82.8564 361.085 82.6966 361.085 82.5368V75.9457V68.1562V65.4453C361.085 63.2362 362.875 61.4453 365.085 61.4453H366.49C368.7 61.4453 370.49 59.6545 370.49 57.4453V55.5732V49.3417V47.1101C370.49 44.9009 372.281 43.1101 374.49 43.1101H381.826H393.282C393.393 43.1101 393.496 43.1271 393.59 43.1611C393.808 43.24 394.021 43.3656 394.185 43.5288V43.5288C394.351 43.693 394.478 43.9053 394.558 44.1246C394.591 44.2175 394.608 44.3187 394.608 44.4283V57.7303V57.7303C394.608 59.7821 396.271 61.4453 398.323 61.4453H412.334C412.736 61.4453 413.058 61.5652 413.299 61.8048C413.54 62.0445 413.661 62.3641 413.661 62.7635V69.4745V77.264V79.8551C413.661 82.0642 411.87 83.8551 409.661 83.8551H398.608C396.399 83.8551 394.608 85.6459 394.608 87.8551V97.6364C394.608 98.9147 394.729 99.9933 394.97 100.872C395.291 101.751 395.774 102.47 396.417 103.029C396.98 103.588 397.703 103.988 398.587 104.228C399.552 104.387 400.678 104.467 401.964 104.467H405.099H408.355H409.661C411.87 104.467 413.661 106.258 413.661 108.467V115.133V125.679C413.661 125.919 413.593 126.16 413.456 126.4C413.362 126.565 413.238 126.714 413.075 126.812C412.87 126.935 412.623 126.997 412.334 126.997H409.079H405.702H402.446H399.19C394.528 126.997 390.387 126.438 386.77 125.319C383.233 124.121 380.218 122.403 377.726 120.166C375.314 117.929 373.505 115.093 372.299 111.658C371.093 108.142 370.49 104.068 370.49 99.434V88.5287V87.8551C370.49 85.6459 368.7 83.8551 366.49 83.8551H362.411C362.25 83.8551 362.089 83.8151 361.929 83.7352V83.7352C361.617 83.5802 361.362 83.3273 361.205 83.0162V83.0162ZM483.157 105.765C483.04 105.629 482.961 105.463 482.909 105.29C482.808 104.961 482.758 104.607 482.758 104.228V99.434V94.5206V89.6073V84.8138C482.758 80.4197 482.115 76.6648 480.828 73.549C479.622 70.4332 477.693 67.8766 475.04 65.8793C472.468 63.8021 469.171 62.2842 465.152 61.3255C461.213 60.3668 456.47 59.8874 450.923 59.8874C447.064 59.8874 443.285 60.1271 439.587 60.6065C435.97 61.0858 432.875 61.685 430.302 62.404C427.81 63.0432 426.282 63.6423 425.72 64.2016C425.674 64.247 425.628 64.3182 425.583 64.4152C425.502 64.5872 425.428 64.7655 425.393 64.9524C425.37 65.0783 425.358 65.2275 425.358 65.4V74.1482V80.8098C425.358 81.9621 426.292 82.8963 427.444 82.8963V82.8963C427.66 82.8963 427.874 82.8627 428.08 82.7983C430.227 82.1263 432.375 81.5997 434.523 81.2186C436.854 80.7393 439.185 80.3797 441.517 80.1401C443.928 79.9004 446.34 79.7806 448.752 79.7806C451.566 79.7806 453.736 80.0202 455.264 80.4996C456.791 80.899 457.876 81.6181 458.52 82.6567C459.163 83.6953 459.484 85.1333 459.484 86.9708V86.9708C459.484 87.8974 458.733 88.6486 457.807 88.6486H457.555H449.717H440.914C437.859 88.6486 435.125 89.088 432.714 89.9668C430.382 90.7657 428.373 91.9641 426.684 93.5619C425.077 95.0799 423.83 96.9574 422.946 99.1943C422.142 101.431 421.74 103.908 421.74 106.624V111.298C421.74 114.813 422.464 117.849 423.911 120.406C425.438 122.882 427.569 124.8 430.302 126.158C433.116 127.516 436.372 128.195 440.07 128.195C443.125 128.195 445.858 127.756 448.27 126.877C450.681 125.998 452.731 124.76 454.42 123.162C455.925 121.802 457.197 120.21 458.237 118.387C458.574 117.796 459.19 117.41 459.87 117.41H460.976C460.986 117.41 460.995 117.416 461 117.425V117.425C461.017 117.46 461.034 117.495 461.052 117.53C462.097 119.607 463.504 121.364 465.272 122.802C467.121 124.161 469.212 125.199 471.543 125.918C473.955 126.637 476.447 126.997 479.019 126.997H483.722H487.099C487.501 126.997 487.822 126.877 488.064 126.637C488.305 126.398 488.425 126.078 488.425 125.679V116.092V109.278C488.425 107.746 487.184 106.504 485.652 106.504V106.504H485.29H485.049H484.631C484.509 106.504 484.366 106.468 484.263 106.403V106.403C484.125 106.316 483.996 106.256 483.84 106.207C483.565 106.122 483.338 105.975 483.157 105.765ZM457.314 108.901C457.396 108.86 457.478 108.819 457.56 108.777C458.786 108.15 459.484 106.847 459.484 105.47V102.31V102.31C459.484 101.185 458.572 100.273 457.447 100.273H454.299H448.39C447.667 100.273 447.064 100.353 446.581 100.513C446.099 100.672 445.657 100.952 445.255 101.351C444.933 101.671 444.692 102.07 444.531 102.55C444.371 103.029 444.29 103.588 444.29 104.228V107.104C444.29 108.462 444.572 109.46 445.134 110.1C445.777 110.659 446.782 110.938 448.149 110.938C449.837 110.938 451.445 110.779 452.973 110.459C454.5 110.06 455.947 109.54 457.314 108.901ZM490.154 83.0162C490.074 82.8564 490.033 82.6966 490.033 82.5368V75.9457V68.1562V65.4453C490.033 63.2362 491.824 61.4453 494.033 61.4453H495.439C497.648 61.4453 499.439 59.6545 499.439 57.4453V55.5732V49.3417V47.1101C499.439 44.9009 501.23 43.1101 503.439 43.1101H510.775H522.23C522.342 43.1101 522.445 43.1271 522.539 43.1611C522.757 43.24 522.969 43.3656 523.134 43.5288V43.5288C523.3 43.693 523.427 43.9053 523.506 44.1246C523.54 44.2175 523.557 44.3187 523.557 44.4283V57.7303V57.7303C523.557 59.7821 525.22 61.4453 527.272 61.4453H541.283C541.685 61.4453 542.007 61.5652 542.248 61.8048C542.489 62.0445 542.61 62.3641 542.61 62.7635V69.4745V77.264V79.8551C542.61 82.0642 540.819 83.8551 538.61 83.8551H527.557C525.348 83.8551 523.557 85.6459 523.557 87.8551V97.6364C523.557 98.9147 523.677 99.9933 523.919 100.872C524.24 101.751 524.723 102.47 525.366 103.029C525.928 103.588 526.652 103.988 527.536 104.228C528.501 104.387 529.626 104.467 530.913 104.467H534.048H537.304H538.61C540.819 104.467 542.61 106.258 542.61 108.467V115.133V125.679C542.61 125.919 542.541 126.16 542.405 126.4C542.311 126.565 542.187 126.714 542.024 126.812C541.819 126.935 541.572 126.997 541.283 126.997H538.027H534.651H531.395H528.139C523.477 126.997 519.336 126.438 515.719 125.319C512.181 124.121 509.167 122.403 506.675 120.166C504.263 117.929 502.454 115.093 501.248 111.658C500.042 108.142 499.439 104.068 499.439 99.434V88.5287V87.8551C499.439 85.6459 497.648 83.8551 495.439 83.8551H491.36C491.199 83.8551 491.038 83.8151 490.878 83.7352V83.7352C490.566 83.5802 490.311 83.3273 490.154 83.0162V83.0162ZM600.13 62.8834C595.548 60.5665 590.001 59.4081 583.489 59.4081C578.746 59.4081 574.445 60.0872 570.586 61.4453C566.808 62.8035 563.552 64.7608 560.819 67.3174C558.085 69.8739 555.995 72.8699 554.548 76.3053C553.181 79.7406 552.498 83.5355 552.498 87.6899V100.752C552.498 105.306 553.221 109.341 554.669 112.856C556.196 116.371 558.447 119.327 561.421 121.724C564.396 124.121 568.054 125.918 572.395 127.117C576.817 128.395 581.962 129.034 587.83 129.034C591.528 129.034 595.065 128.834 598.442 128.435C601.899 128.115 604.833 127.636 607.245 126.997C609.657 126.358 611.224 125.679 611.948 124.96C612.109 124.8 612.229 124.64 612.31 124.48C612.39 124.32 612.43 124.161 612.43 124.001V115.492V108.981C612.43 107.812 611.482 106.864 610.313 106.864V106.864C610.118 106.864 609.923 106.891 609.735 106.944C607.582 107.55 605.465 108.083 603.386 108.542C601.215 109.021 599.005 109.381 596.754 109.62C594.583 109.78 592.212 109.86 589.639 109.86C586.343 109.94 583.811 109.78 582.042 109.381C580.354 108.901 579.067 108.222 578.183 107.343C577.46 106.624 576.937 105.745 576.616 104.707C576.374 103.588 576.254 102.35 576.254 100.992V100.992C576.254 100.462 576.683 100.033 577.212 100.033H578.063H581.439H585.057H612.912C613.234 100.033 613.475 99.9933 613.636 99.9134C613.797 99.8335 613.917 99.7136 613.998 99.5538C614.158 99.3142 614.239 99.0745 614.239 98.8348V87.57C614.239 81.8178 613.033 76.8645 610.621 72.7101C608.21 68.4758 604.713 65.2002 600.13 62.8834ZM578.304 80.4996C576.937 81.8577 576.254 83.855 576.254 86.4915V86.4915C576.254 87.6166 577.166 88.5287 578.291 88.5287H591.573C591.97 88.5287 592.292 88.2068 592.292 87.8097V87.8097V86.7312C592.292 85.2132 592.131 83.9349 591.81 82.8963C591.488 81.8577 591.006 81.0189 590.363 80.3797C589.719 79.6607 588.875 79.1414 587.83 78.8218C586.865 78.5023 585.7 78.3425 584.333 78.3425C581.761 78.3425 579.751 79.0615 578.304 80.4996Z" stroke="white" stroke-width="14" mask="url(#path-4-outside-1_1207_106364)"/>
<mask id="path-5-outside-2_1207_106364" maskUnits="userSpaceOnUse" x="0.991211" y="0.625977" width="161" height="163" fill="black">
<rect fill="white" x="0.991211" y="0.625977" width="161" height="163"/>
<path fill-rule="evenodd" clip-rule="evenodd" d="M7.99121 23.9173C7.99121 14.9199 14.9184 7.62598 23.4634 7.62598H139.505C148.05 7.62598 154.977 14.9199 154.977 23.9173V139.586C154.977 148.583 148.05 155.877 139.505 155.877H23.4634C14.9184 155.877 7.99121 148.583 7.99121 139.586V23.9173ZM71.056 41.4707C70.8729 39.145 72.7108 37.1568 75.0436 37.1568H92.823C95.1851 37.1568 97.0328 39.1929 96.8042 41.5439L93.0298 80.3659C92.7807 82.9278 90.6273 84.8821 88.0532 84.8821H79.0946C76.4854 84.8821 74.3148 82.8756 74.11 80.2744L71.056 41.4707ZM74.6487 104.358C72.2019 106.855 70.9785 109.895 70.9785 113.478C70.9785 117.061 72.2019 120.101 74.6487 122.598C77.0955 125.095 80.0742 126.344 83.5849 126.344C87.2019 126.344 90.2339 125.095 92.6807 122.598C95.1275 120.101 96.3509 117.061 96.3509 113.478C96.3509 109.895 95.1275 106.855 92.6807 104.358C90.2339 101.861 87.2019 100.612 83.5849 100.612C80.0742 100.612 77.0955 101.861 74.6487 104.358Z"/>
</mask>
<path fill-rule="evenodd" clip-rule="evenodd" d="M7.99121 23.9173C7.99121 14.9199 14.9184 7.62598 23.4634 7.62598H139.505C148.05 7.62598 154.977 14.9199 154.977 23.9173V139.586C154.977 148.583 148.05 155.877 139.505 155.877H23.4634C14.9184 155.877 7.99121 148.583 7.99121 139.586V23.9173ZM71.056 41.4707C70.8729 39.145 72.7108 37.1568 75.0436 37.1568H92.823C95.1851 37.1568 97.0328 39.1929 96.8042 41.5439L93.0298 80.3659C92.7807 82.9278 90.6273 84.8821 88.0532 84.8821H79.0946C76.4854 84.8821 74.3148 82.8756 74.11 80.2744L71.056 41.4707ZM74.6487 104.358C72.2019 106.855 70.9785 109.895 70.9785 113.478C70.9785 117.061 72.2019 120.101 74.6487 122.598C77.0955 125.095 80.0742 126.344 83.5849 126.344C87.2019 126.344 90.2339 125.095 92.6807 122.598C95.1275 120.101 96.3509 117.061 96.3509 113.478C96.3509 109.895 95.1275 106.855 92.6807 104.358C90.2339 101.861 87.2019 100.612 83.5849 100.612C80.0742 100.612 77.0955 101.861 74.6487 104.358Z" fill="black"/>
<path d="M71.056 41.4707L78.0344 40.9214L78.0344 40.9214L71.056 41.4707ZM96.8042 41.5439L89.837 40.8665L89.837 40.8665L96.8042 41.5439ZM93.0298 80.3659L86.0626 79.6885L86.0626 79.6885L93.0298 80.3659ZM74.11 80.2744L67.1316 80.8236L67.1316 80.8236L74.11 80.2744ZM74.6487 104.358L69.6489 99.459L69.6488 99.459L74.6487 104.358ZM74.6487 122.598L79.6485 117.699L79.6485 117.699L74.6487 122.598ZM92.6807 122.598L97.6805 127.497L97.6805 127.497L92.6807 122.598ZM92.6807 104.358L97.6805 99.459L97.6805 99.459L92.6807 104.358ZM23.4634 0.625977C10.7165 0.625977 0.991211 11.3985 0.991211 23.9173H14.9912C14.9912 18.4412 19.1202 14.626 23.4634 14.626V0.625977ZM139.505 0.625977H23.4634V14.626H139.505V0.625977ZM161.977 23.9173C161.977 11.3986 152.252 0.625977 139.505 0.625977V14.626C143.848 14.626 147.977 18.4412 147.977 23.9173H161.977ZM161.977 139.586V23.9173H147.977V139.586H161.977ZM139.505 162.877C152.252 162.877 161.977 152.105 161.977 139.586H147.977C147.977 145.062 143.848 148.877 139.505 148.877V162.877ZM23.4634 162.877H139.505V148.877H23.4634V162.877ZM0.991211 139.586C0.991211 152.105 10.7165 162.877 23.4634 162.877V148.877C19.1202 148.877 14.9912 145.062 14.9912 139.586H0.991211ZM0.991211 23.9173V139.586H14.9912V23.9173H0.991211ZM75.0436 30.1568C68.6283 30.1568 63.5742 35.6243 64.0775 42.0199L78.0344 40.9214C78.1717 42.6657 76.7933 44.1568 75.0436 44.1568V30.1568ZM92.823 30.1568H75.0436V44.1568H92.823V30.1568ZM103.771 42.2213C104.4 35.756 99.3187 30.1568 92.823 30.1568V44.1568C91.0514 44.1568 89.6656 42.6298 89.837 40.8665L103.771 42.2213ZM99.9969 81.0433L103.771 42.2212L89.837 40.8665L86.0626 79.6885L99.9969 81.0433ZM88.0532 91.8821C94.2309 91.8821 99.3991 87.1919 99.9969 81.0433L86.0626 79.6885C86.1623 78.6638 87.0236 77.8821 88.0532 77.8821V91.8821ZM79.0946 91.8821H88.0532V77.8821H79.0946V91.8821ZM67.1316 80.8236C67.623 87.0666 72.8324 91.8821 79.0946 91.8821V77.8821C80.1383 77.8821 81.0066 78.6847 81.0885 79.7251L67.1316 80.8236ZM64.0775 42.0199L67.1316 80.8236L81.0885 79.7251L78.0344 40.9214L64.0775 42.0199ZM77.9785 113.478C77.9785 111.676 78.5189 110.41 79.6485 109.257L69.6488 99.459C65.8849 103.3 63.9785 108.114 63.9785 113.478H77.9785ZM79.6485 117.699C78.5189 116.546 77.9785 115.28 77.9785 113.478H63.9785C63.9785 118.842 65.8849 123.656 69.6489 127.497L79.6485 117.699ZM83.5849 119.344C81.9466 119.344 80.7726 118.846 79.6485 117.699L69.6488 127.497C73.4185 131.344 78.2019 133.344 83.5849 133.344V119.344ZM87.6809 117.699C86.6008 118.801 85.3937 119.344 83.5849 119.344V133.344C89.0102 133.344 93.8669 131.389 97.6805 127.497L87.6809 117.699ZM89.3509 113.478C89.3509 115.28 88.8105 116.546 87.6809 117.699L97.6805 127.497C101.445 123.656 103.351 118.842 103.351 113.478H89.3509ZM87.6809 109.257C88.8105 110.41 89.3509 111.676 89.3509 113.478H103.351C103.351 108.114 101.445 103.3 97.6805 99.459L87.6809 109.257ZM83.5849 107.612C85.3937 107.612 86.6008 108.155 87.6809 109.257L97.6805 99.459C93.8669 95.567 89.0102 93.6124 83.5849 93.6124V107.612ZM79.6485 109.257C80.7725 108.11 81.9466 107.612 83.5849 107.612V93.6124C78.2019 93.6124 73.4185 95.6119 69.6489 99.459L79.6485 109.257Z" fill="white" mask="url(#path-5-outside-2_1207_106364)"/>
<rect x="537.456" y="171.883" width="31.2612" height="15.2373" fill="white"/>
<rect x="458.529" y="172.445" width="110.188" height="15.2373" fill="white"/>
<rect x="496.787" y="172.695" width="14.2607" height="7.36816" fill="white"/>
<mask id="path-10-outside-3_1207_106364" maskUnits="userSpaceOnUse" x="440.831" y="150.16" width="159" height="44" fill="black">
<rect fill="white" x="440.831" y="150.16" width="159" height="44"/>
<path d="M463.103 180.372C464.231 180.372 465.146 181.286 465.146 182.415V188.627C465.146 188.969 464.975 189.14 464.634 189.14H459.555C455.951 189.14 453.202 188.254 451.307 186.481C449.412 184.709 448.465 182.02 448.465 178.413V174.393C448.465 173.264 447.55 172.35 446.422 172.35H445.343C445.001 172.35 444.831 172.179 444.831 171.837V165.445C444.831 164.442 445.644 163.628 446.648 163.628V163.628C447.651 163.628 448.465 162.814 448.465 161.811V158.535C448.465 157.407 449.38 156.492 450.508 156.492H457.271C457.613 156.492 457.784 156.663 457.784 157.005V161.585C457.784 162.713 458.699 163.628 459.827 163.628H464.634C464.975 163.628 465.146 163.799 465.146 164.141V170.306C465.146 171.435 464.231 172.35 463.103 172.35H459.827C458.699 172.35 457.784 173.264 457.784 174.393V177.713C457.784 178.677 458.017 179.377 458.483 179.812C458.856 180.185 459.57 180.372 460.626 180.372H463.103Z"/>
<path d="M481.734 188.627C481.734 188.969 481.563 189.14 481.221 189.14H475.956C473.968 189.14 472.337 188.58 471.064 187.461C469.79 186.341 469.153 184.662 469.153 182.424V156.203C469.153 155.075 470.068 154.16 471.197 154.16H478.239C478.581 154.16 478.752 154.331 478.752 154.673V179.625C478.752 179.874 478.814 180.061 478.938 180.185C479.094 180.34 479.311 180.418 479.591 180.418H479.691C480.819 180.418 481.734 181.333 481.734 182.461V188.627Z"/>
<path d="M492.433 163.162C493.862 163.162 495.089 163.519 496.114 164.234C497.079 164.888 497.876 165.736 498.504 166.78C498.614 166.962 498.809 167.079 499.022 167.079V167.079C499.346 167.079 499.608 166.817 499.608 166.493V156.203C499.608 155.075 500.523 154.16 501.652 154.16H508.415C508.757 154.16 508.927 154.331 508.927 154.673V187.097C508.927 188.225 508.013 189.14 506.884 189.14H500.121C499.779 189.14 499.608 188.969 499.608 188.627V185.825C499.608 185.492 499.339 185.222 499.006 185.222V185.222C498.8 185.222 498.61 185.327 498.496 185.497C497.702 186.677 496.815 187.643 495.834 188.394C494.778 189.202 493.458 189.606 491.874 189.606C489.73 189.606 488.037 188.876 486.795 187.414C485.552 185.953 484.931 183.994 484.931 181.538V171.743C484.931 169.069 485.568 166.97 486.841 165.447C488.146 163.923 490.01 163.162 492.433 163.162ZM494.762 180.745C495.104 181.118 495.71 181.304 496.58 181.304C497.256 181.304 497.87 181.241 498.42 181.115C499.174 180.943 499.608 180.209 499.608 179.436V172.976C499.608 172.293 499.278 171.623 498.638 171.387C498.468 171.324 498.294 171.272 498.117 171.23C497.589 171.075 497.077 170.997 496.58 170.997C494.995 170.997 494.203 171.79 494.203 173.376V178.972C494.203 179.812 494.39 180.403 494.762 180.745Z"/>
<path d="M523.658 187.097C523.658 188.225 522.743 189.14 521.615 189.14H514.712C514.37 189.14 514.199 188.969 514.199 188.627V165.671C514.199 164.543 515.114 163.628 516.242 163.628H523.145C523.487 163.628 523.658 163.799 523.658 164.141V167.882C523.658 168.186 523.904 168.432 524.207 168.432V168.432C524.46 168.432 524.678 168.26 524.746 168.017C525.176 166.482 525.776 165.314 526.547 164.514C527.417 163.612 528.582 163.162 530.042 163.162C530.539 163.162 530.911 163.208 531.16 163.302C531.408 163.395 531.579 163.488 531.672 163.581C531.828 163.737 531.905 163.923 531.905 164.141V172.654C531.905 173.104 531.541 173.469 531.091 173.469V173.469C531.013 173.469 530.936 173.458 530.861 173.436C530.368 173.296 529.862 173.182 529.343 173.096C528.815 173.003 528.255 172.956 527.665 172.956C526.858 172.956 526.128 173.065 525.475 173.282C525.202 173.361 524.936 173.453 524.679 173.558C524.021 173.829 523.658 174.509 523.658 175.221V187.097Z"/>
<path d="M556.551 172.723V180.278C556.551 180.626 556.659 180.864 556.877 180.994C556.992 181.063 557.122 181.11 557.252 181.142C557.314 181.157 557.375 181.164 557.436 181.164V181.164C558.156 181.164 558.741 181.749 558.741 182.469V188.627C558.741 188.969 558.57 189.14 558.228 189.14H555.106C553.584 189.14 552.186 188.829 550.913 188.207C549.807 187.654 548.959 186.854 548.37 185.808C548.235 185.569 547.988 185.409 547.714 185.409V185.409C547.446 185.409 547.204 185.56 547.071 185.792C546.411 186.946 545.548 187.86 544.482 188.534C543.333 189.249 541.858 189.606 540.056 189.606C537.881 189.606 536.157 189.015 534.884 187.834C533.61 186.652 532.973 185.051 532.973 183.03V181.211C532.973 179.035 533.61 177.324 534.884 176.081C536.189 174.837 538.021 174.215 540.382 174.215H546.905C547.265 174.215 547.558 173.923 547.558 173.562V173.562C547.558 172.474 547.263 171.743 546.672 171.37C546.113 170.966 545.026 170.764 543.411 170.764C540.716 170.764 538.052 171.157 535.418 171.942C535.342 171.965 535.263 171.976 535.183 171.976V171.976C534.735 171.976 534.371 171.613 534.371 171.165V165.167C534.371 164.949 534.418 164.794 534.511 164.701C534.729 164.483 535.319 164.25 536.282 164.001C537.276 163.752 538.472 163.535 539.87 163.348C541.298 163.131 542.758 163.022 544.249 163.022C548.505 163.022 551.612 163.799 553.569 165.354C555.557 166.877 556.551 169.334 556.551 172.723ZM541.687 181.398C541.687 182.393 542.184 182.89 543.178 182.89C544.413 182.89 545.572 182.635 546.656 182.125C547.235 181.852 547.558 181.242 547.558 180.602V180.602C547.558 179.573 546.724 178.739 545.695 178.739H543.271C542.743 178.739 542.339 178.879 542.06 179.159C541.811 179.47 541.687 179.843 541.687 180.278V181.398Z"/>
<path d="M573.981 165.217C574.192 164.287 575.019 163.628 575.972 163.628H580.54C580.819 163.628 581.006 163.799 581.099 164.141C581.814 167.188 582.466 170.08 583.056 172.816C583.637 175.376 584.069 177.867 584.351 180.291C584.384 180.575 584.624 180.791 584.911 180.791V180.791C585.224 180.791 585.476 180.536 585.474 180.223C585.462 177.788 585.557 175.272 585.759 172.676C585.959 170.397 586.179 167.996 586.42 165.474C586.52 164.427 587.4 163.628 588.452 163.628H594.891C595.202 163.628 595.342 163.83 595.311 164.234C594.627 168.339 593.928 172.474 593.214 176.64C592.596 180.241 591.979 183.841 591.362 187.442C591.193 188.423 590.343 189.14 589.348 189.14H581.565C581.405 189.14 581.254 189.098 581.111 189.014C581.004 188.951 580.917 188.86 580.854 188.754C580.734 188.55 580.614 188.243 580.493 187.834C580.245 186.777 580.027 185.844 579.841 185.036C579.655 184.196 579.468 183.372 579.282 182.564C579.127 181.724 578.956 180.76 578.769 179.672C578.63 178.667 578.465 177.462 578.276 176.056C578.238 175.776 578 175.568 577.718 175.568V175.568C577.438 175.568 577.201 175.772 577.16 176.048C576.938 177.518 576.729 178.773 576.533 179.812C576.346 180.931 576.16 181.957 575.974 182.89C575.787 183.823 575.57 184.771 575.321 185.735C575.175 186.302 575.013 186.928 574.834 187.613C574.6 188.513 573.788 189.14 572.859 189.14H565.163C565.004 189.14 564.852 189.098 564.709 189.014C564.603 188.951 564.515 188.861 564.455 188.752C564.34 188.543 564.235 188.221 564.138 187.787C563.455 183.994 562.772 180.045 562.088 175.941C561.563 172.635 561.017 169.328 560.451 166.022C560.237 164.772 561.199 163.628 562.468 163.628H568.192C568.379 163.628 568.518 163.675 568.612 163.768C568.705 163.861 568.767 164.079 568.798 164.421C569.14 167.592 569.419 170.468 569.637 173.049C569.867 175.439 569.964 177.829 569.927 180.22C569.923 180.533 570.175 180.791 570.488 180.791V180.791C570.773 180.791 571.011 180.577 571.045 180.295C571.325 177.922 571.741 175.414 572.293 172.769C572.812 170.404 573.375 167.886 573.981 165.217Z"/>
</mask>
<path d="M463.103 180.372C464.231 180.372 465.146 181.286 465.146 182.415V188.627C465.146 188.969 464.975 189.14 464.634 189.14H459.555C455.951 189.14 453.202 188.254 451.307 186.481C449.412 184.709 448.465 182.02 448.465 178.413V174.393C448.465 173.264 447.55 172.35 446.422 172.35H445.343C445.001 172.35 444.831 172.179 444.831 171.837V165.445C444.831 164.442 445.644 163.628 446.648 163.628V163.628C447.651 163.628 448.465 162.814 448.465 161.811V158.535C448.465 157.407 449.38 156.492 450.508 156.492H457.271C457.613 156.492 457.784 156.663 457.784 157.005V161.585C457.784 162.713 458.699 163.628 459.827 163.628H464.634C464.975 163.628 465.146 163.799 465.146 164.141V170.306C465.146 171.435 464.231 172.35 463.103 172.35H459.827C458.699 172.35 457.784 173.264 457.784 174.393V177.713C457.784 178.677 458.017 179.377 458.483 179.812C458.856 180.185 459.57 180.372 460.626 180.372H463.103Z" fill="black"/>
<path d="M481.734 188.627C481.734 188.969 481.563 189.14 481.221 189.14H475.956C473.968 189.14 472.337 188.58 471.064 187.461C469.79 186.341 469.153 184.662 469.153 182.424V156.203C469.153 155.075 470.068 154.16 471.197 154.16H478.239C478.581 154.16 478.752 154.331 478.752 154.673V179.625C478.752 179.874 478.814 180.061 478.938 180.185C479.094 180.34 479.311 180.418 479.591 180.418H479.691C480.819 180.418 481.734 181.333 481.734 182.461V188.627Z" fill="black"/>
<path d="M492.433 163.162C493.862 163.162 495.089 163.519 496.114 164.234C497.079 164.888 497.876 165.736 498.504 166.78C498.614 166.962 498.809 167.079 499.022 167.079V167.079C499.346 167.079 499.608 166.817 499.608 166.493V156.203C499.608 155.075 500.523 154.16 501.652 154.16H508.415C508.757 154.16 508.927 154.331 508.927 154.673V187.097C508.927 188.225 508.013 189.14 506.884 189.14H500.121C499.779 189.14 499.608 188.969 499.608 188.627V185.825C499.608 185.492 499.339 185.222 499.006 185.222V185.222C498.8 185.222 498.61 185.327 498.496 185.497C497.702 186.677 496.815 187.643 495.834 188.394C494.778 189.202 493.458 189.606 491.874 189.606C489.73 189.606 488.037 188.876 486.795 187.414C485.552 185.953 484.931 183.994 484.931 181.538V171.743C484.931 169.069 485.568 166.97 486.841 165.447C488.146 163.923 490.01 163.162 492.433 163.162ZM494.762 180.745C495.104 181.118 495.71 181.304 496.58 181.304C497.256 181.304 497.87 181.241 498.42 181.115C499.174 180.943 499.608 180.209 499.608 179.436V172.976C499.608 172.293 499.278 171.623 498.638 171.387C498.468 171.324 498.294 171.272 498.117 171.23C497.589 171.075 497.077 170.997 496.58 170.997C494.995 170.997 494.203 171.79 494.203 173.376V178.972C494.203 179.812 494.39 180.403 494.762 180.745Z" fill="black"/>
<path d="M523.658 187.097C523.658 188.225 522.743 189.14 521.615 189.14H514.712C514.37 189.14 514.199 188.969 514.199 188.627V165.671C514.199 164.543 515.114 163.628 516.242 163.628H523.145C523.487 163.628 523.658 163.799 523.658 164.141V167.882C523.658 168.186 523.904 168.432 524.207 168.432V168.432C524.46 168.432 524.678 168.26 524.746 168.017C525.176 166.482 525.776 165.314 526.547 164.514C527.417 163.612 528.582 163.162 530.042 163.162C530.539 163.162 530.911 163.208 531.16 163.302C531.408 163.395 531.579 163.488 531.672 163.581C531.828 163.737 531.905 163.923 531.905 164.141V172.654C531.905 173.104 531.541 173.469 531.091 173.469V173.469C531.013 173.469 530.936 173.458 530.861 173.436C530.368 173.296 529.862 173.182 529.343 173.096C528.815 173.003 528.255 172.956 527.665 172.956C526.858 172.956 526.128 173.065 525.475 173.282C525.202 173.361 524.936 173.453 524.679 173.558C524.021 173.829 523.658 174.509 523.658 175.221V187.097Z" fill="black"/>
<path d="M556.551 172.723V180.278C556.551 180.626 556.659 180.864 556.877 180.994C556.992 181.063 557.122 181.11 557.252 181.142C557.314 181.157 557.375 181.164 557.436 181.164V181.164C558.156 181.164 558.741 181.749 558.741 182.469V188.627C558.741 188.969 558.57 189.14 558.228 189.14H555.106C553.584 189.14 552.186 188.829 550.913 188.207C549.807 187.654 548.959 186.854 548.37 185.808C548.235 185.569 547.988 185.409 547.714 185.409V185.409C547.446 185.409 547.204 185.56 547.071 185.792C546.411 186.946 545.548 187.86 544.482 188.534C543.333 189.249 541.858 189.606 540.056 189.606C537.881 189.606 536.157 189.015 534.884 187.834C533.61 186.652 532.973 185.051 532.973 183.03V181.211C532.973 179.035 533.61 177.324 534.884 176.081C536.189 174.837 538.021 174.215 540.382 174.215H546.905C547.265 174.215 547.558 173.923 547.558 173.562V173.562C547.558 172.474 547.263 171.743 546.672 171.37C546.113 170.966 545.026 170.764 543.411 170.764C540.716 170.764 538.052 171.157 535.418 171.942C535.342 171.965 535.263 171.976 535.183 171.976V171.976C534.735 171.976 534.371 171.613 534.371 171.165V165.167C534.371 164.949 534.418 164.794 534.511 164.701C534.729 164.483 535.319 164.25 536.282 164.001C537.276 163.752 538.472 163.535 539.87 163.348C541.298 163.131 542.758 163.022 544.249 163.022C548.505 163.022 551.612 163.799 553.569 165.354C555.557 166.877 556.551 169.334 556.551 172.723ZM541.687 181.398C541.687 182.393 542.184 182.89 543.178 182.89C544.413 182.89 545.572 182.635 546.656 182.125C547.235 181.852 547.558 181.242 547.558 180.602V180.602C547.558 179.573 546.724 178.739 545.695 178.739H543.271C542.743 178.739 542.339 178.879 542.06 179.159C541.811 179.47 541.687 179.843 541.687 180.278V181.398Z" fill="black"/>
<path d="M573.981 165.217C574.192 164.287 575.019 163.628 575.972 163.628H580.54C580.819 163.628 581.006 163.799 581.099 164.141C581.814 167.188 582.466 170.08 583.056 172.816C583.637 175.376 584.069 177.867 584.351 180.291C584.384 180.575 584.624 180.791 584.911 180.791V180.791C585.224 180.791 585.476 180.536 585.474 180.223C585.462 177.788 585.557 175.272 585.759 172.676C585.959 170.397 586.179 167.996 586.42 165.474C586.52 164.427 587.4 163.628 588.452 163.628H594.891C595.202 163.628 595.342 163.83 595.311 164.234C594.627 168.339 593.928 172.474 593.214 176.64C592.596 180.241 591.979 183.841 591.362 187.442C591.193 188.423 590.343 189.14 589.348 189.14H581.565C581.405 189.14 581.254 189.098 581.111 189.014C581.004 188.951 580.917 188.86 580.854 188.754C580.734 188.55 580.614 188.243 580.493 187.834C580.245 186.777 580.027 185.844 579.841 185.036C579.655 184.196 579.468 183.372 579.282 182.564C579.127 181.724 578.956 180.76 578.769 179.672C578.63 178.667 578.465 177.462 578.276 176.056C578.238 175.776 578 175.568 577.718 175.568V175.568C577.438 175.568 577.201 175.772 577.16 176.048C576.938 177.518 576.729 178.773 576.533 179.812C576.346 180.931 576.16 181.957 575.974 182.89C575.787 183.823 575.57 184.771 575.321 185.735C575.175 186.302 575.013 186.928 574.834 187.613C574.6 188.513 573.788 189.14 572.859 189.14H565.163C565.004 189.14 564.852 189.098 564.709 189.014C564.603 188.951 564.515 188.861 564.455 188.752C564.34 188.543 564.235 188.221 564.138 187.787C563.455 183.994 562.772 180.045 562.088 175.941C561.563 172.635 561.017 169.328 560.451 166.022C560.237 164.772 561.199 163.628 562.468 163.628H568.192C568.379 163.628 568.518 163.675 568.612 163.768C568.705 163.861 568.767 164.079 568.798 164.421C569.14 167.592 569.419 170.468 569.637 173.049C569.867 175.439 569.964 177.829 569.927 180.22C569.923 180.533 570.175 180.791 570.488 180.791V180.791C570.773 180.791 571.011 180.577 571.045 180.295C571.325 177.922 571.741 175.414 572.293 172.769C572.812 170.404 573.375 167.886 573.981 165.217Z" fill="black"/>
<path d="M463.103 180.372C464.231 180.372 465.146 181.286 465.146 182.415V188.627C465.146 188.969 464.975 189.14 464.634 189.14H459.555C455.951 189.14 453.202 188.254 451.307 186.481C449.412 184.709 448.465 182.02 448.465 178.413V174.393C448.465 173.264 447.55 172.35 446.422 172.35H445.343C445.001 172.35 444.831 172.179 444.831 171.837V165.445C444.831 164.442 445.644 163.628 446.648 163.628V163.628C447.651 163.628 448.465 162.814 448.465 161.811V158.535C448.465 157.407 449.38 156.492 450.508 156.492H457.271C457.613 156.492 457.784 156.663 457.784 157.005V161.585C457.784 162.713 458.699 163.628 459.827 163.628H464.634C464.975 163.628 465.146 163.799 465.146 164.141V170.306C465.146 171.435 464.231 172.35 463.103 172.35H459.827C458.699 172.35 457.784 173.264 457.784 174.393V177.713C457.784 178.677 458.017 179.377 458.483 179.812C458.856 180.185 459.57 180.372 460.626 180.372H463.103Z" stroke="white" stroke-width="8" mask="url(#path-10-outside-3_1207_106364)"/>
<path d="M481.734 188.627C481.734 188.969 481.563 189.14 481.221 189.14H475.956C473.968 189.14 472.337 188.58 471.064 187.461C469.79 186.341 469.153 184.662 469.153 182.424V156.203C469.153 155.075 470.068 154.16 471.197 154.16H478.239C478.581 154.16 478.752 154.331 478.752 154.673V179.625C478.752 179.874 478.814 180.061 478.938 180.185C479.094 180.34 479.311 180.418 479.591 180.418H479.691C480.819 180.418 481.734 181.333 481.734 182.461V188.627Z" stroke="white" stroke-width="8" mask="url(#path-10-outside-3_1207_106364)"/>
<path d="M492.433 163.162C493.862 163.162 495.089 163.519 496.114 164.234C497.079 164.888 497.876 165.736 498.504 166.78C498.614 166.962 498.809 167.079 499.022 167.079V167.079C499.346 167.079 499.608 166.817 499.608 166.493V156.203C499.608 155.075 500.523 154.16 501.652 154.16H508.415C508.757 154.16 508.927 154.331 508.927 154.673V187.097C508.927 188.225 508.013 189.14 506.884 189.14H500.121C499.779 189.14 499.608 188.969 499.608 188.627V185.825C499.608 185.492 499.339 185.222 499.006 185.222V185.222C498.8 185.222 498.61 185.327 498.496 185.497C497.702 186.677 496.815 187.643 495.834 188.394C494.778 189.202 493.458 189.606 491.874 189.606C489.73 189.606 488.037 188.876 486.795 187.414C485.552 185.953 484.931 183.994 484.931 181.538V171.743C484.931 169.069 485.568 166.97 486.841 165.447C488.146 163.923 490.01 163.162 492.433 163.162ZM494.762 180.745C495.104 181.118 495.71 181.304 496.58 181.304C497.256 181.304 497.87 181.241 498.42 181.115C499.174 180.943 499.608 180.209 499.608 179.436V172.976C499.608 172.293 499.278 171.623 498.638 171.387C498.468 171.324 498.294 171.272 498.117 171.23C497.589 171.075 497.077 170.997 496.58 170.997C494.995 170.997 494.203 171.79 494.203 173.376V178.972C494.203 179.812 494.39 180.403 494.762 180.745Z" stroke="white" stroke-width="8" mask="url(#path-10-outside-3_1207_106364)"/>
<path d="M523.658 187.097C523.658 188.225 522.743 189.14 521.615 189.14H514.712C514.37 189.14 514.199 188.969 514.199 188.627V165.671C514.199 164.543 515.114 163.628 516.242 163.628H523.145C523.487 163.628 523.658 163.799 523.658 164.141V167.882C523.658 168.186 523.904 168.432 524.207 168.432V168.432C524.46 168.432 524.678 168.26 524.746 168.017C525.176 166.482 525.776 165.314 526.547 164.514C527.417 163.612 528.582 163.162 530.042 163.162C530.539 163.162 530.911 163.208 531.16 163.302C531.408 163.395 531.579 163.488 531.672 163.581C531.828 163.737 531.905 163.923 531.905 164.141V172.654C531.905 173.104 531.541 173.469 531.091 173.469V173.469C531.013 173.469 530.936 173.458 530.861 173.436C530.368 173.296 529.862 173.182 529.343 173.096C528.815 173.003 528.255 172.956 527.665 172.956C526.858 172.956 526.128 173.065 525.475 173.282C525.202 173.361 524.936 173.453 524.679 173.558C524.021 173.829 523.658 174.509 523.658 175.221V187.097Z" stroke="white" stroke-width="8" mask="url(#path-10-outside-3_1207_106364)"/>
<path d="M556.551 172.723V180.278C556.551 180.626 556.659 180.864 556.877 180.994C556.992 181.063 557.122 181.11 557.252 181.142C557.314 181.157 557.375 181.164 557.436 181.164V181.164C558.156 181.164 558.741 181.749 558.741 182.469V188.627C558.741 188.969 558.57 189.14 558.228 189.14H555.106C553.584 189.14 552.186 188.829 550.913 188.207C549.807 187.654 548.959 186.854 548.37 185.808C548.235 185.569 547.988 185.409 547.714 185.409V185.409C547.446 185.409 547.204 185.56 547.071 185.792C546.411 186.946 545.548 187.86 544.482 188.534C543.333 189.249 541.858 189.606 540.056 189.606C537.881 189.606 536.157 189.015 534.884 187.834C533.61 186.652 532.973 185.051 532.973 183.03V181.211C532.973 179.035 533.61 177.324 534.884 176.081C536.189 174.837 538.021 174.215 540.382 174.215H546.905C547.265 174.215 547.558 173.923 547.558 173.562V173.562C547.558 172.474 547.263 171.743 546.672 171.37C546.113 170.966 545.026 170.764 543.411 170.764C540.716 170.764 538.052 171.157 535.418 171.942C535.342 171.965 535.263 171.976 535.183 171.976V171.976C534.735 171.976 534.371 171.613 534.371 171.165V165.167C534.371 164.949 534.418 164.794 534.511 164.701C534.729 164.483 535.319 164.25 536.282 164.001C537.276 163.752 538.472 163.535 539.87 163.348C541.298 163.131 542.758 163.022 544.249 163.022C548.505 163.022 551.612 163.799 553.569 165.354C555.557 166.877 556.551 169.334 556.551 172.723ZM541.687 181.398C541.687 182.393 542.184 182.89 543.178 182.89C544.413 182.89 545.572 182.635 546.656 182.125C547.235 181.852 547.558 181.242 547.558 180.602V180.602C547.558 179.573 546.724 178.739 545.695 178.739H543.271C542.743 178.739 542.339 178.879 542.06 179.159C541.811 179.47 541.687 179.843 541.687 180.278V181.398Z" stroke="white" stroke-width="8" mask="url(#path-10-outside-3_1207_106364)"/>
<path d="M573.981 165.217C574.192 164.287 575.019 163.628 575.972 163.628H580.54C580.819 163.628 581.006 163.799 581.099 164.141C581.814 167.188 582.466 170.08 583.056 172.816C583.637 175.376 584.069 177.867 584.351 180.291C584.384 180.575 584.624 180.791 584.911 180.791V180.791C585.224 180.791 585.476 180.536 585.474 180.223C585.462 177.788 585.557 175.272 585.759 172.676C585.959 170.397 586.179 167.996 586.42 165.474C586.52 164.427 587.4 163.628 588.452 163.628H594.891C595.202 163.628 595.342 163.83 595.311 164.234C594.627 168.339 593.928 172.474 593.214 176.64C592.596 180.241 591.979 183.841 591.362 187.442C591.193 188.423 590.343 189.14 589.348 189.14H581.565C581.405 189.14 581.254 189.098 581.111 189.014C581.004 188.951 580.917 188.86 580.854 188.754C580.734 188.55 580.614 188.243 580.493 187.834C580.245 186.777 580.027 185.844 579.841 185.036C579.655 184.196 579.468 183.372 579.282 182.564C579.127 181.724 578.956 180.76 578.769 179.672C578.63 178.667 578.465 177.462 578.276 176.056C578.238 175.776 578 175.568 577.718 175.568V175.568C577.438 175.568 577.201 175.772 577.16 176.048C576.938 177.518 576.729 178.773 576.533 179.812C576.346 180.931 576.16 181.957 575.974 182.89C575.787 183.823 575.57 184.771 575.321 185.735C575.175 186.302 575.013 186.928 574.834 187.613C574.6 188.513 573.788 189.14 572.859 189.14H565.163C565.004 189.14 564.852 189.098 564.709 189.014C564.603 188.951 564.515 188.861 564.455 188.752C564.34 188.543 564.235 188.221 564.138 187.787C563.455 183.994 562.772 180.045 562.088 175.941C561.563 172.635 561.017 169.328 560.451 166.022C560.237 164.772 561.199 163.628 562.468 163.628H568.192C568.379 163.628 568.518 163.675 568.612 163.768C568.705 163.861 568.767 164.079 568.798 164.421C569.14 167.592 569.419 170.468 569.637 173.049C569.867 175.439 569.964 177.829 569.927 180.22C569.923 180.533 570.175 180.791 570.488 180.791V180.791C570.773 180.791 571.011 180.577 571.045 180.295C571.325 177.922 571.741 175.414 572.293 172.769C572.812 170.404 573.375 167.886 573.981 165.217Z" stroke="white" stroke-width="8" mask="url(#path-10-outside-3_1207_106364)"/>
<mask id="path-11-outside-4_1207_106364" maskUnits="userSpaceOnUse" x="396" y="156.439" width="33" height="41" fill="black">
<rect fill="white" x="396" y="156.439" width="33" height="41"/>
<path d="M402.348 184.337C401.826 184.284 401.408 184.154 401.094 183.945C400.807 183.71 400.585 183.423 400.428 183.083C400.22 182.848 400.089 182.666 400.037 182.535C400.011 182.404 400.011 182.287 400.037 182.182C400.167 182.182 400.285 182.182 400.389 182.182C400.494 182.156 400.559 182.104 400.585 182.026C400.585 181.947 400.624 181.895 400.703 181.869C400.807 181.843 400.912 181.843 401.016 181.869C401.512 181.895 402.113 181.725 402.818 181.36C403.549 180.994 404.345 180.485 405.207 179.832C406.069 179.153 406.931 178.422 407.792 177.639C408.471 176.751 408.941 176.098 409.202 175.68C409.49 175.263 409.633 174.949 409.633 174.74C409.659 174.505 409.607 174.27 409.477 174.035C409.372 173.826 409.124 173.722 408.732 173.722C408.341 173.722 407.74 173.983 406.931 174.505C405.808 175.21 404.907 175.863 404.228 176.464C403.549 177.064 402.922 177.743 402.348 178.501C402.139 178.762 401.904 179.049 401.643 179.362C401.408 179.649 401.199 179.898 401.016 180.106C400.859 180.315 400.781 180.42 400.781 180.42C400.781 180.524 400.624 180.655 400.311 180.812C400.024 180.968 399.776 181.047 399.567 181.047C399.462 180.994 399.319 180.903 399.136 180.772C398.979 180.616 398.875 180.42 398.823 180.185C398.588 180.002 398.392 179.845 398.235 179.715C398.078 179.558 398 179.31 398 178.971C398 178.762 398.026 178.501 398.078 178.187C398.157 177.874 398.261 177.469 398.392 176.973C398.548 176.294 398.718 175.589 398.901 174.858C399.084 174.101 399.253 173.461 399.41 172.939C399.593 172.39 399.723 172.09 399.802 172.038C399.802 172.038 399.854 171.92 399.958 171.685C400.063 171.45 400.115 171.176 400.115 170.863C400.167 170.549 400.246 170.275 400.35 170.04C400.603 169.585 400.829 169.081 401.016 168.591C401.225 168.042 401.486 167.324 401.799 166.436C401.799 166.358 401.891 166.11 402.074 165.692C402.256 165.248 402.478 164.739 402.739 164.165C403.001 163.564 403.262 162.95 403.523 162.324C403.81 161.671 404.045 161.096 404.228 160.6C404.541 160.156 404.802 159.712 405.011 159.269C405.246 158.799 405.455 158.524 405.638 158.446C405.769 158.42 405.99 158.472 406.304 158.603C406.643 158.733 406.983 158.903 407.322 159.112C407.662 159.321 407.897 159.53 408.027 159.739C408.106 159.869 408.145 160 408.145 160.13C408.171 160.261 408.119 160.483 407.988 160.796C407.858 161.083 407.636 161.566 407.322 162.245C407.009 162.898 406.565 163.825 405.99 165.026C405.259 166.593 404.685 167.899 404.267 168.943C403.875 169.988 403.549 170.889 403.288 171.646C403.053 172.403 402.805 173.121 402.544 173.8V173.8C402.491 174.031 402.78 174.18 402.938 174.004L403.366 173.526C403.627 173.265 403.901 173.017 404.189 172.782C404.476 172.547 404.789 172.312 405.129 172.077C405.338 171.92 405.612 171.763 405.951 171.607C406.317 171.424 406.669 171.267 407.009 171.137C407.348 171.006 407.596 170.928 407.753 170.902C407.831 170.876 408.093 170.823 408.536 170.745C409.007 170.641 409.463 170.588 409.907 170.588C410.482 170.588 410.978 170.797 411.396 171.215C411.84 171.607 412.231 172.09 412.571 172.664C412.858 173.213 412.963 173.918 412.884 174.779C412.806 175.615 412.584 176.333 412.218 176.934C412.088 177.038 411.957 177.182 411.827 177.365C411.696 177.521 411.631 177.652 411.631 177.756C411.605 177.939 411.37 178.318 410.926 178.892C410.482 179.441 410.038 179.963 409.594 180.459C409.124 180.955 408.55 181.451 407.871 181.947C407.192 182.417 406.513 182.848 405.834 183.24C405.181 183.606 404.62 183.867 404.15 184.023C403.941 184.049 403.64 184.102 403.249 184.18C402.857 184.232 402.557 184.284 402.348 184.337Z"/>
<path d="M413.446 194.638C412.871 194.743 412.48 194.756 412.271 194.677C412.062 194.599 411.775 194.468 411.409 194.286C411.122 194.077 410.913 193.92 410.782 193.816C410.652 193.711 410.56 193.607 410.508 193.502C410.247 192.954 410.208 192.549 410.391 192.288C410.573 192.027 410.834 191.857 411.174 191.779C411.54 191.727 411.853 191.7 412.114 191.7C412.297 191.805 412.597 191.857 413.015 191.857C413.459 191.857 413.733 191.805 413.837 191.7C413.837 191.7 413.955 191.622 414.19 191.465C414.451 191.335 414.791 191.23 415.208 191.152C416.018 190.76 416.658 190.356 417.128 189.938C417.598 189.546 418.12 188.867 418.694 187.901C418.929 187.536 419.177 187.105 419.439 186.609C419.7 186.138 419.883 185.668 419.987 185.198C420.196 184.676 420.431 183.971 420.692 183.083C420.979 182.195 421.227 181.321 421.436 180.459C421.645 179.571 421.763 178.905 421.789 178.461C421.945 176.999 422.246 175.589 422.69 174.231C423.134 172.847 423.486 171.385 423.747 169.844C423.904 169.479 424.021 169.27 424.1 169.217C424.178 169.139 424.348 169.1 424.609 169.1C424.896 169.1 425.236 169.191 425.627 169.374C426.019 169.531 426.306 169.753 426.489 170.04C426.75 170.536 426.868 171.124 426.842 171.803C426.842 172.455 426.672 173.03 426.332 173.526C426.071 173.892 425.836 174.466 425.627 175.25C425.445 176.007 425.262 176.96 425.079 178.109C424.948 178.683 424.805 179.362 424.648 180.146C424.518 180.903 424.374 181.752 424.217 182.692C424.113 182.953 423.969 183.357 423.786 183.906C423.604 184.428 423.486 184.846 423.434 185.159C423.408 185.264 423.329 185.473 423.199 185.786C423.068 186.099 422.938 186.4 422.807 186.687C422.677 187 422.585 187.209 422.533 187.314C421.28 189.846 419.83 191.674 418.185 192.797C416.566 193.92 414.986 194.534 413.446 194.638ZM416.736 183.553C416.449 183.553 416.148 183.397 415.835 183.083C415.548 182.77 415.352 182.522 415.248 182.339C415.143 182.078 414.947 181.83 414.66 181.595C414.373 181.36 414.125 181.073 413.916 180.733C413.707 180.394 413.655 179.976 413.759 179.48C413.864 179.14 414.02 178.631 414.229 177.952C414.438 177.247 414.686 176.477 414.973 175.641C415.261 174.779 415.548 173.931 415.835 173.095C416.148 172.26 416.436 171.515 416.697 170.863C416.958 170.21 417.18 169.753 417.363 169.492C417.519 169.283 417.767 169.126 418.107 169.022C418.446 168.917 418.786 168.891 419.125 168.943C419.465 168.996 419.713 169.152 419.869 169.413C420.157 169.779 420.313 170.144 420.34 170.51C420.392 170.85 420.209 171.398 419.791 172.155C419.687 172.442 419.556 172.756 419.399 173.095C419.243 173.409 419.164 173.617 419.164 173.722C419.138 173.774 419.086 173.957 419.008 174.27C418.956 174.558 418.89 174.832 418.812 175.093C418.734 175.354 418.655 175.485 418.577 175.485C418.472 175.589 418.355 175.863 418.224 176.307C418.12 176.751 418.015 177.247 417.911 177.795C417.833 178.318 417.78 178.788 417.754 179.206C417.728 179.597 417.767 179.793 417.872 179.793C418.681 179.793 419.465 179.545 420.222 179.049C420.468 178.879 420.721 178.673 420.982 178.432C421.653 177.808 422.851 178.148 422.938 179.061L423.042 180.146C422.677 180.328 422.337 180.524 422.024 180.733C421.71 180.916 421.423 181.138 421.162 181.399C421.084 181.503 420.901 181.647 420.614 181.83C420.326 182.013 420.039 182.182 419.752 182.339C419.491 182.47 419.321 182.535 419.243 182.535C419.243 182.535 419.204 182.548 419.125 182.574C419.073 182.574 419.047 182.626 419.047 182.731C419.047 182.783 418.877 182.887 418.538 183.044C418.198 183.175 417.846 183.292 417.48 183.397C417.115 183.501 416.867 183.553 416.736 183.553Z"/>
</mask>
<path d="M402.348 184.337C401.826 184.284 401.408 184.154 401.094 183.945C400.807 183.71 400.585 183.423 400.428 183.083C400.22 182.848 400.089 182.666 400.037 182.535C400.011 182.404 400.011 182.287 400.037 182.182C400.167 182.182 400.285 182.182 400.389 182.182C400.494 182.156 400.559 182.104 400.585 182.026C400.585 181.947 400.624 181.895 400.703 181.869C400.807 181.843 400.912 181.843 401.016 181.869C401.512 181.895 402.113 181.725 402.818 181.36C403.549 180.994 404.345 180.485 405.207 179.832C406.069 179.153 406.931 178.422 407.792 177.639C408.471 176.751 408.941 176.098 409.202 175.68C409.49 175.263 409.633 174.949 409.633 174.74C409.659 174.505 409.607 174.27 409.477 174.035C409.372 173.826 409.124 173.722 408.732 173.722C408.341 173.722 407.74 173.983 406.931 174.505C405.808 175.21 404.907 175.863 404.228 176.464C403.549 177.064 402.922 177.743 402.348 178.501C402.139 178.762 401.904 179.049 401.643 179.362C401.408 179.649 401.199 179.898 401.016 180.106C400.859 180.315 400.781 180.42 400.781 180.42C400.781 180.524 400.624 180.655 400.311 180.812C400.024 180.968 399.776 181.047 399.567 181.047C399.462 180.994 399.319 180.903 399.136 180.772C398.979 180.616 398.875 180.42 398.823 180.185C398.588 180.002 398.392 179.845 398.235 179.715C398.078 179.558 398 179.31 398 178.971C398 178.762 398.026 178.501 398.078 178.187C398.157 177.874 398.261 177.469 398.392 176.973C398.548 176.294 398.718 175.589 398.901 174.858C399.084 174.101 399.253 173.461 399.41 172.939C399.593 172.39 399.723 172.09 399.802 172.038C399.802 172.038 399.854 171.92 399.958 171.685C400.063 171.45 400.115 171.176 400.115 170.863C400.167 170.549 400.246 170.275 400.35 170.04C400.603 169.585 400.829 169.081 401.016 168.591C401.225 168.042 401.486 167.324 401.799 166.436C401.799 166.358 401.891 166.11 402.074 165.692C402.256 165.248 402.478 164.739 402.739 164.165C403.001 163.564 403.262 162.95 403.523 162.324C403.81 161.671 404.045 161.096 404.228 160.6C404.541 160.156 404.802 159.712 405.011 159.269C405.246 158.799 405.455 158.524 405.638 158.446C405.769 158.42 405.99 158.472 406.304 158.603C406.643 158.733 406.983 158.903 407.322 159.112C407.662 159.321 407.897 159.53 408.027 159.739C408.106 159.869 408.145 160 408.145 160.13C408.171 160.261 408.119 160.483 407.988 160.796C407.858 161.083 407.636 161.566 407.322 162.245C407.009 162.898 406.565 163.825 405.99 165.026C405.259 166.593 404.685 167.899 404.267 168.943C403.875 169.988 403.549 170.889 403.288 171.646C403.053 172.403 402.805 173.121 402.544 173.8V173.8C402.491 174.031 402.78 174.18 402.938 174.004L403.366 173.526C403.627 173.265 403.901 173.017 404.189 172.782C404.476 172.547 404.789 172.312 405.129 172.077C405.338 171.92 405.612 171.763 405.951 171.607C406.317 171.424 406.669 171.267 407.009 171.137C407.348 171.006 407.596 170.928 407.753 170.902C407.831 170.876 408.093 170.823 408.536 170.745C409.007 170.641 409.463 170.588 409.907 170.588C410.482 170.588 410.978 170.797 411.396 171.215C411.84 171.607 412.231 172.09 412.571 172.664C412.858 173.213 412.963 173.918 412.884 174.779C412.806 175.615 412.584 176.333 412.218 176.934C412.088 177.038 411.957 177.182 411.827 177.365C411.696 177.521 411.631 177.652 411.631 177.756C411.605 177.939 411.37 178.318 410.926 178.892C410.482 179.441 410.038 179.963 409.594 180.459C409.124 180.955 408.55 181.451 407.871 181.947C407.192 182.417 406.513 182.848 405.834 183.24C405.181 183.606 404.62 183.867 404.15 184.023C403.941 184.049 403.64 184.102 403.249 184.18C402.857 184.232 402.557 184.284 402.348 184.337Z" fill="black"/>
<path d="M413.446 194.638C412.871 194.743 412.48 194.756 412.271 194.677C412.062 194.599 411.775 194.468 411.409 194.286C411.122 194.077 410.913 193.92 410.782 193.816C410.652 193.711 410.56 193.607 410.508 193.502C410.247 192.954 410.208 192.549 410.391 192.288C410.573 192.027 410.834 191.857 411.174 191.779C411.54 191.727 411.853 191.7 412.114 191.7C412.297 191.805 412.597 191.857 413.015 191.857C413.459 191.857 413.733 191.805 413.837 191.7C413.837 191.7 413.955 191.622 414.19 191.465C414.451 191.335 414.791 191.23 415.208 191.152C416.018 190.76 416.658 190.356 417.128 189.938C417.598 189.546 418.12 188.867 418.694 187.901C418.929 187.536 419.177 187.105 419.439 186.609C419.7 186.138 419.883 185.668 419.987 185.198C420.196 184.676 420.431 183.971 420.692 183.083C420.979 182.195 421.227 181.321 421.436 180.459C421.645 179.571 421.763 178.905 421.789 178.461C421.945 176.999 422.246 175.589 422.69 174.231C423.134 172.847 423.486 171.385 423.747 169.844C423.904 169.479 424.021 169.27 424.1 169.217C424.178 169.139 424.348 169.1 424.609 169.1C424.896 169.1 425.236 169.191 425.627 169.374C426.019 169.531 426.306 169.753 426.489 170.04C426.75 170.536 426.868 171.124 426.842 171.803C426.842 172.455 426.672 173.03 426.332 173.526C426.071 173.892 425.836 174.466 425.627 175.25C425.445 176.007 425.262 176.96 425.079 178.109C424.948 178.683 424.805 179.362 424.648 180.146C424.518 180.903 424.374 181.752 424.217 182.692C424.113 182.953 423.969 183.357 423.786 183.906C423.604 184.428 423.486 184.846 423.434 185.159C423.408 185.264 423.329 185.473 423.199 185.786C423.068 186.099 422.938 186.4 422.807 186.687C422.677 187 422.585 187.209 422.533 187.314C421.28 189.846 419.83 191.674 418.185 192.797C416.566 193.92 414.986 194.534 413.446 194.638ZM416.736 183.553C416.449 183.553 416.148 183.397 415.835 183.083C415.548 182.77 415.352 182.522 415.248 182.339C415.143 182.078 414.947 181.83 414.66 181.595C414.373 181.36 414.125 181.073 413.916 180.733C413.707 180.394 413.655 179.976 413.759 179.48C413.864 179.14 414.02 178.631 414.229 177.952C414.438 177.247 414.686 176.477 414.973 175.641C415.261 174.779 415.548 173.931 415.835 173.095C416.148 172.26 416.436 171.515 416.697 170.863C416.958 170.21 417.18 169.753 417.363 169.492C417.519 169.283 417.767 169.126 418.107 169.022C418.446 168.917 418.786 168.891 419.125 168.943C419.465 168.996 419.713 169.152 419.869 169.413C420.157 169.779 420.313 170.144 420.34 170.51C420.392 170.85 420.209 171.398 419.791 172.155C419.687 172.442 419.556 172.756 419.399 173.095C419.243 173.409 419.164 173.617 419.164 173.722C419.138 173.774 419.086 173.957 419.008 174.27C418.956 174.558 418.89 174.832 418.812 175.093C418.734 175.354 418.655 175.485 418.577 175.485C418.472 175.589 418.355 175.863 418.224 176.307C418.12 176.751 418.015 177.247 417.911 177.795C417.833 178.318 417.78 178.788 417.754 179.206C417.728 179.597 417.767 179.793 417.872 179.793C418.681 179.793 419.465 179.545 420.222 179.049C420.468 178.879 420.721 178.673 420.982 178.432C421.653 177.808 422.851 178.148 422.938 179.061L423.042 180.146C422.677 180.328 422.337 180.524 422.024 180.733C421.71 180.916 421.423 181.138 421.162 181.399C421.084 181.503 420.901 181.647 420.614 181.83C420.326 182.013 420.039 182.182 419.752 182.339C419.491 182.47 419.321 182.535 419.243 182.535C419.243 182.535 419.204 182.548 419.125 182.574C419.073 182.574 419.047 182.626 419.047 182.731C419.047 182.783 418.877 182.887 418.538 183.044C418.198 183.175 417.846 183.292 417.48 183.397C417.115 183.501 416.867 183.553 416.736 183.553Z" fill="black"/>
<path d="M402.348 184.337C401.826 184.284 401.408 184.154 401.094 183.945C400.807 183.71 400.585 183.423 400.428 183.083C400.22 182.848 400.089 182.666 400.037 182.535C400.011 182.404 400.011 182.287 400.037 182.182C400.167 182.182 400.285 182.182 400.389 182.182C400.494 182.156 400.559 182.104 400.585 182.026C400.585 181.947 400.624 181.895 400.703 181.869C400.807 181.843 400.912 181.843 401.016 181.869C401.512 181.895 402.113 181.725 402.818 181.36C403.549 180.994 404.345 180.485 405.207 179.832C406.069 179.153 406.931 178.422 407.792 177.639C408.471 176.751 408.941 176.098 409.202 175.68C409.49 175.263 409.633 174.949 409.633 174.74C409.659 174.505 409.607 174.27 409.477 174.035C409.372 173.826 409.124 173.722 408.732 173.722C408.341 173.722 407.74 173.983 406.931 174.505C405.808 175.21 404.907 175.863 404.228 176.464C403.549 177.064 402.922 177.743 402.348 178.501C402.139 178.762 401.904 179.049 401.643 179.362C401.408 179.649 401.199 179.898 401.016 180.106C400.859 180.315 400.781 180.42 400.781 180.42C400.781 180.524 400.624 180.655 400.311 180.812C400.024 180.968 399.776 181.047 399.567 181.047C399.462 180.994 399.319 180.903 399.136 180.772C398.979 180.616 398.875 180.42 398.823 180.185C398.588 180.002 398.392 179.845 398.235 179.715C398.078 179.558 398 179.31 398 178.971C398 178.762 398.026 178.501 398.078 178.187C398.157 177.874 398.261 177.469 398.392 176.973C398.548 176.294 398.718 175.589 398.901 174.858C399.084 174.101 399.253 173.461 399.41 172.939C399.593 172.39 399.723 172.09 399.802 172.038C399.802 172.038 399.854 171.92 399.958 171.685C400.063 171.45 400.115 171.176 400.115 170.863C400.167 170.549 400.246 170.275 400.35 170.04C400.603 169.585 400.829 169.081 401.016 168.591C401.225 168.042 401.486 167.324 401.799 166.436C401.799 166.358 401.891 166.11 402.074 165.692C402.256 165.248 402.478 164.739 402.739 164.165C403.001 163.564 403.262 162.95 403.523 162.324C403.81 161.671 404.045 161.096 404.228 160.6C404.541 160.156 404.802 159.712 405.011 159.269C405.246 158.799 405.455 158.524 405.638 158.446C405.769 158.42 405.99 158.472 406.304 158.603C406.643 158.733 406.983 158.903 407.322 159.112C407.662 159.321 407.897 159.53 408.027 159.739C408.106 159.869 408.145 160 408.145 160.13C408.171 160.261 408.119 160.483 407.988 160.796C407.858 161.083 407.636 161.566 407.322 162.245C407.009 162.898 406.565 163.825 405.99 165.026C405.259 166.593 404.685 167.899 404.267 168.943C403.875 169.988 403.549 170.889 403.288 171.646C403.053 172.403 402.805 173.121 402.544 173.8V173.8C402.491 174.031 402.78 174.18 402.938 174.004L403.366 173.526C403.627 173.265 403.901 173.017 404.189 172.782C404.476 172.547 404.789 172.312 405.129 172.077C405.338 171.92 405.612 171.763 405.951 171.607C406.317 171.424 406.669 171.267 407.009 171.137C407.348 171.006 407.596 170.928 407.753 170.902C407.831 170.876 408.093 170.823 408.536 170.745C409.007 170.641 409.463 170.588 409.907 170.588C410.482 170.588 410.978 170.797 411.396 171.215C411.84 171.607 412.231 172.09 412.571 172.664C412.858 173.213 412.963 173.918 412.884 174.779C412.806 175.615 412.584 176.333 412.218 176.934C412.088 177.038 411.957 177.182 411.827 177.365C411.696 177.521 411.631 177.652 411.631 177.756C411.605 177.939 411.37 178.318 410.926 178.892C410.482 179.441 410.038 179.963 409.594 180.459C409.124 180.955 408.55 181.451 407.871 181.947C407.192 182.417 406.513 182.848 405.834 183.24C405.181 183.606 404.62 183.867 404.15 184.023C403.941 184.049 403.64 184.102 403.249 184.18C402.857 184.232 402.557 184.284 402.348 184.337Z" stroke="white" stroke-width="4" mask="url(#path-11-outside-4_1207_106364)"/>
<path d="M413.446 194.638C412.871 194.743 412.48 194.756 412.271 194.677C412.062 194.599 411.775 194.468 411.409 194.286C411.122 194.077 410.913 193.92 410.782 193.816C410.652 193.711 410.56 193.607 410.508 193.502C410.247 192.954 410.208 192.549 410.391 192.288C410.573 192.027 410.834 191.857 411.174 191.779C411.54 191.727 411.853 191.7 412.114 191.7C412.297 191.805 412.597 191.857 413.015 191.857C413.459 191.857 413.733 191.805 413.837 191.7C413.837 191.7 413.955 191.622 414.19 191.465C414.451 191.335 414.791 191.23 415.208 191.152C416.018 190.76 416.658 190.356 417.128 189.938C417.598 189.546 418.12 188.867 418.694 187.901C418.929 187.536 419.177 187.105 419.439 186.609C419.7 186.138 419.883 185.668 419.987 185.198C420.196 184.676 420.431 183.971 420.692 183.083C420.979 182.195 421.227 181.321 421.436 180.459C421.645 179.571 421.763 178.905 421.789 178.461C421.945 176.999 422.246 175.589 422.69 174.231C423.134 172.847 423.486 171.385 423.747 169.844C423.904 169.479 424.021 169.27 424.1 169.217C424.178 169.139 424.348 169.1 424.609 169.1C424.896 169.1 425.236 169.191 425.627 169.374C426.019 169.531 426.306 169.753 426.489 170.04C426.75 170.536 426.868 171.124 426.842 171.803C426.842 172.455 426.672 173.03 426.332 173.526C426.071 173.892 425.836 174.466 425.627 175.25C425.445 176.007 425.262 176.96 425.079 178.109C424.948 178.683 424.805 179.362 424.648 180.146C424.518 180.903 424.374 181.752 424.217 182.692C424.113 182.953 423.969 183.357 423.786 183.906C423.604 184.428 423.486 184.846 423.434 185.159C423.408 185.264 423.329 185.473 423.199 185.786C423.068 186.099 422.938 186.4 422.807 186.687C422.677 187 422.585 187.209 422.533 187.314C421.28 189.846 419.83 191.674 418.185 192.797C416.566 193.92 414.986 194.534 413.446 194.638ZM416.736 183.553C416.449 183.553 416.148 183.397 415.835 183.083C415.548 182.77 415.352 182.522 415.248 182.339C415.143 182.078 414.947 181.83 414.66 181.595C414.373 181.36 414.125 181.073 413.916 180.733C413.707 180.394 413.655 179.976 413.759 179.48C413.864 179.14 414.02 178.631 414.229 177.952C414.438 177.247 414.686 176.477 414.973 175.641C415.261 174.779 415.548 173.931 415.835 173.095C416.148 172.26 416.436 171.515 416.697 170.863C416.958 170.21 417.18 169.753 417.363 169.492C417.519 169.283 417.767 169.126 418.107 169.022C418.446 168.917 418.786 168.891 419.125 168.943C419.465 168.996 419.713 169.152 419.869 169.413C420.157 169.779 420.313 170.144 420.34 170.51C420.392 170.85 420.209 171.398 419.791 172.155C419.687 172.442 419.556 172.756 419.399 173.095C419.243 173.409 419.164 173.617 419.164 173.722C419.138 173.774 419.086 173.957 419.008 174.27C418.956 174.558 418.89 174.832 418.812 175.093C418.734 175.354 418.655 175.485 418.577 175.485C418.472 175.589 418.355 175.863 418.224 176.307C418.12 176.751 418.015 177.247 417.911 177.795C417.833 178.318 417.78 178.788 417.754 179.206C417.728 179.597 417.767 179.793 417.872 179.793C418.681 179.793 419.465 179.545 420.222 179.049C420.468 178.879 420.721 178.673 420.982 178.432C421.653 177.808 422.851 178.148 422.938 179.061L423.042 180.146C422.677 180.328 422.337 180.524 422.024 180.733C421.71 180.916 421.423 181.138 421.162 181.399C421.084 181.503 420.901 181.647 420.614 181.83C420.326 182.013 420.039 182.182 419.752 182.339C419.491 182.47 419.321 182.535 419.243 182.535C419.243 182.535 419.204 182.548 419.125 182.574C419.073 182.574 419.047 182.626 419.047 182.731C419.047 182.783 418.877 182.887 418.538 183.044C418.198 183.175 417.846 183.292 417.48 183.397C417.115 183.501 416.867 183.553 416.736 183.553Z" stroke="white" stroke-width="4" mask="url(#path-11-outside-4_1207_106364)"/>
</svg>
