<svg width="622" height="163" viewBox="0 0 622 163" fill="none" xmlns="http://www.w3.org/2000/svg">
<rect x="211.902" y="77.958" width="385.122" height="45.3086" fill="white"/>
<path d="M71.0563 41.4711C70.8733 39.1454 72.7111 37.1572 75.044 37.1572H92.8233C95.1854 37.1572 97.0331 39.1933 96.8046 41.5443L93.0301 80.3663C92.7811 82.9283 90.6276 84.8825 88.0536 84.8825H79.095C76.4857 84.8825 74.3151 82.876 74.1104 80.2748L71.0563 41.4711Z" fill="white"/>
<path d="M70.9781 113.478C70.9781 109.895 72.2015 106.855 74.6484 104.358C77.0952 101.861 80.0739 100.613 83.5846 100.613C87.2016 100.613 90.2335 101.861 92.6804 104.358C95.1272 106.855 96.3506 109.895 96.3506 113.478C96.3506 117.061 95.1272 120.101 92.6804 122.598C90.2335 125.095 87.2016 126.344 83.5846 126.344C80.0739 126.344 77.0952 125.095 74.6484 122.598C72.2015 120.101 70.9781 117.061 70.9781 113.478Z" fill="white"/>
<mask id="path-4-outside-1_1207_106488" maskUnits="userSpaceOnUse" x="187.688" y="30.1182" width="434" height="106" fill="black">
<rect fill="white" x="187.688" y="30.1182" width="434" height="106"/>
<path fill-rule="evenodd" clip-rule="evenodd" d="M258.84 117.29C258.036 115.133 257.634 112.616 257.634 109.74V97.1571V84.4542V71.7514V59.1684V47.9036V41.1182C257.634 38.909 259.425 37.1182 261.634 37.1182H262.82H267.281H271.502H275.843H281.149C281.355 37.1182 281.528 37.1509 281.667 37.2163C281.818 37.2865 281.939 37.3705 282.049 37.4948V37.4948C282.208 37.6751 282.35 37.916 282.429 38.1435C282.46 38.2334 282.475 38.331 282.475 38.4364V51.3789V64.2016V77.0243V89.7271V102.55C282.475 102.869 282.516 103.149 282.596 103.389C282.633 103.5 282.679 103.602 282.733 103.696C282.857 103.908 283.061 104.056 283.266 104.192V104.192C283.542 104.375 283.84 104.53 284.169 104.565C284.313 104.58 284.472 104.587 284.646 104.587H286.193C288.402 104.587 290.193 106.378 290.193 108.587V115.133V125.679C290.193 125.919 290.125 126.16 289.988 126.4C289.895 126.565 289.77 126.714 289.607 126.812C289.402 126.935 289.155 126.997 288.867 126.997H285.972H282.958H279.581H275.24C272.668 126.997 270.296 126.637 268.125 125.918C266.035 125.199 264.186 124.121 262.578 122.683C260.971 121.245 259.725 119.447 258.84 117.29ZM194.808 83.0162C194.728 82.8564 194.688 82.6966 194.688 82.5368V75.9457V68.1562V65.4453C194.688 63.2362 196.478 61.4453 198.687 61.4453H200.093C202.302 61.4453 204.093 59.6545 204.093 57.4453V55.5732V49.3417V47.1101C204.093 44.9009 205.884 43.1101 208.093 43.1101H215.429H226.884C226.996 43.1101 227.099 43.1271 227.193 43.1611C227.411 43.24 227.623 43.3656 227.788 43.5288V43.5288C227.954 43.693 228.081 43.9053 228.161 44.1246C228.194 44.2175 228.211 44.3187 228.211 44.4283V57.7303V57.7303C228.211 59.7821 229.874 61.4453 231.926 61.4453H245.937C246.339 61.4453 246.661 61.5652 246.902 61.8048C247.143 62.0445 247.264 62.3641 247.264 62.7635V69.4745V77.264V79.8551C247.264 82.0642 245.473 83.8551 243.264 83.8551H232.211C230.002 83.8551 228.211 85.6459 228.211 87.8551V97.6364C228.211 98.9147 228.332 99.9933 228.573 100.872C228.894 101.751 229.377 102.47 230.02 103.029C230.582 103.588 231.306 103.988 232.19 104.228C233.155 104.387 234.281 104.467 235.567 104.467H238.702H241.958H243.264C245.473 104.467 247.264 106.258 247.264 108.467V115.133V125.679C247.264 125.919 247.195 126.16 247.059 126.4C246.965 126.565 246.841 126.714 246.678 126.812C246.473 126.935 246.226 126.997 245.937 126.997H242.681H239.305H236.049H232.793C228.131 126.997 223.99 126.438 220.373 125.319C216.835 124.121 213.821 122.403 211.329 120.166C208.917 117.929 207.108 115.093 205.902 111.658C204.696 108.142 204.093 104.068 204.093 99.434V88.5287V87.8551C204.093 85.6459 202.302 83.8551 200.093 83.8551H196.014C195.853 83.8551 195.692 83.8151 195.532 83.7352V83.7352C195.22 83.5802 194.965 83.3273 194.808 83.0162V83.0162ZM334.04 107.343C333.075 107.982 331.146 108.302 328.252 108.302C325.197 108.302 322.423 108.262 319.931 108.182C317.439 108.022 315.108 107.823 312.937 107.583C310.847 107.343 308.797 106.984 306.787 106.504C304.876 106.049 302.892 105.484 300.835 104.812C300.624 104.743 300.403 104.707 300.181 104.707V104.707C299.035 104.707 298.105 105.637 298.105 106.784V114.653V124.121C298.105 124.44 298.145 124.68 298.225 124.84C298.242 124.874 298.263 124.91 298.288 124.947C298.521 125.307 298.902 125.541 299.302 125.696C299.995 125.965 301.003 126.279 302.325 126.637C304.174 127.037 306.385 127.396 308.958 127.716C311.53 128.115 314.304 128.435 317.278 128.675C320.253 128.914 323.227 129.034 326.202 129.034C333.115 129.034 338.863 128.195 343.446 126.517C348.028 124.76 351.445 122.243 353.696 118.968C356.027 115.612 357.193 111.458 357.193 106.504C357.193 102.989 356.349 99.9134 354.66 97.2769C353.053 94.5606 350.641 92.3636 347.425 90.6858C344.21 89.0081 340.23 87.8896 335.487 87.3304L326.925 86.2518C325.317 86.0121 324.031 85.7725 323.066 85.5328C322.102 85.2931 321.418 84.9336 321.016 84.4542C320.614 83.9749 320.414 83.4156 320.414 82.7765C320.414 82.0575 320.735 81.4583 321.378 80.9789C322.021 80.4996 323.026 80.1401 324.393 79.9004C325.76 79.6607 327.528 79.5409 329.699 79.5409C332.673 79.5409 335.366 79.7007 337.778 80.0202C340.27 80.3398 342.642 80.7792 344.893 81.3385C347.129 81.7983 349.403 82.3684 351.713 83.0488C351.908 83.1063 352.111 83.136 352.315 83.136V83.136C353.477 83.136 354.419 82.1937 354.419 81.0313V73.7886V64.5611C354.419 64.4353 354.413 64.3219 354.401 64.2208C354.369 63.9636 354.329 63.6897 354.214 63.4576V63.4576C354.134 63.2974 354.023 63.1474 353.873 63.0499C353.839 63.0278 353.801 63.0069 353.76 62.9873C353.566 62.8965 353.361 62.8286 353.167 62.7374C352.403 62.3775 351.172 61.9868 349.475 61.5652C347.546 61.0059 345.134 60.5266 342.24 60.1271C339.426 59.7276 336.13 59.5279 332.352 59.5279C326.965 59.5279 322.142 60.0073 317.881 60.966C313.701 61.9247 310.164 63.4027 307.269 65.4C304.456 67.3174 302.285 69.6343 300.758 72.3506C299.311 74.987 298.587 78.0629 298.587 81.5781C298.587 85.4129 299.351 88.6086 300.878 91.1652C302.486 93.6418 304.938 95.6391 308.234 97.1571C311.53 98.675 315.791 99.7935 321.016 100.513L329.819 101.711C331.347 101.871 332.512 102.15 333.316 102.55C334.201 102.869 334.763 103.269 335.005 103.748C335.326 104.228 335.487 104.707 335.487 105.186C335.487 105.985 335.005 106.704 334.04 107.343ZM361.205 83.0162C361.125 82.8564 361.085 82.6966 361.085 82.5368V75.9457V68.1562V65.4453C361.085 63.2362 362.875 61.4453 365.085 61.4453H366.49C368.7 61.4453 370.49 59.6545 370.49 57.4453V55.5732V49.3417V47.1101C370.49 44.9009 372.281 43.1101 374.49 43.1101H381.826H393.282C393.393 43.1101 393.496 43.1271 393.59 43.1611C393.808 43.24 394.021 43.3656 394.185 43.5288V43.5288C394.351 43.693 394.478 43.9053 394.558 44.1246C394.591 44.2175 394.608 44.3187 394.608 44.4283V57.7303V57.7303C394.608 59.7821 396.271 61.4453 398.323 61.4453H412.334C412.736 61.4453 413.058 61.5652 413.299 61.8048C413.54 62.0445 413.661 62.3641 413.661 62.7635V69.4745V77.264V79.8551C413.661 82.0642 411.87 83.8551 409.661 83.8551H398.608C396.399 83.8551 394.608 85.6459 394.608 87.8551V97.6364C394.608 98.9147 394.729 99.9933 394.97 100.872C395.291 101.751 395.774 102.47 396.417 103.029C396.98 103.588 397.703 103.988 398.587 104.228C399.552 104.387 400.678 104.467 401.964 104.467H405.099H408.355H409.661C411.87 104.467 413.661 106.258 413.661 108.467V115.133V125.679C413.661 125.919 413.593 126.16 413.456 126.4C413.362 126.565 413.238 126.714 413.075 126.812C412.87 126.935 412.623 126.997 412.334 126.997H409.079H405.702H402.446H399.19C394.528 126.997 390.387 126.438 386.77 125.319C383.233 124.121 380.218 122.403 377.726 120.166C375.314 117.929 373.505 115.093 372.299 111.658C371.093 108.142 370.49 104.068 370.49 99.434V88.5287V87.8551C370.49 85.6459 368.7 83.8551 366.49 83.8551H362.411C362.25 83.8551 362.089 83.8151 361.929 83.7352V83.7352C361.617 83.5802 361.362 83.3273 361.205 83.0162V83.0162ZM483.157 105.765C483.04 105.629 482.961 105.463 482.909 105.29C482.808 104.961 482.758 104.607 482.758 104.228V99.434V94.5206V89.6073V84.8138C482.758 80.4197 482.115 76.6648 480.828 73.549C479.622 70.4332 477.693 67.8766 475.04 65.8793C472.468 63.8021 469.171 62.2842 465.152 61.3255C461.213 60.3668 456.47 59.8874 450.923 59.8874C447.064 59.8874 443.285 60.1271 439.587 60.6065C435.97 61.0858 432.875 61.685 430.302 62.404C427.81 63.0432 426.282 63.6423 425.72 64.2016C425.674 64.247 425.628 64.3182 425.583 64.4152C425.502 64.5872 425.428 64.7655 425.393 64.9524C425.37 65.0783 425.358 65.2275 425.358 65.4V74.1482V80.8098C425.358 81.9621 426.292 82.8963 427.444 82.8963V82.8963C427.66 82.8963 427.874 82.8627 428.08 82.7983C430.227 82.1263 432.375 81.5997 434.523 81.2186C436.854 80.7393 439.185 80.3797 441.517 80.1401C443.928 79.9004 446.34 79.7806 448.752 79.7806C451.566 79.7806 453.736 80.0202 455.264 80.4996C456.791 80.899 457.876 81.6181 458.52 82.6567C459.163 83.6953 459.484 85.1333 459.484 86.9708V86.9708C459.484 87.8974 458.733 88.6486 457.807 88.6486H457.555H449.717H440.914C437.859 88.6486 435.125 89.088 432.714 89.9668C430.382 90.7657 428.373 91.9641 426.684 93.5619C425.077 95.0799 423.83 96.9574 422.946 99.1943C422.142 101.431 421.74 103.908 421.74 106.624V111.298C421.74 114.813 422.464 117.849 423.911 120.406C425.438 122.882 427.569 124.8 430.302 126.158C433.116 127.516 436.372 128.195 440.07 128.195C443.125 128.195 445.858 127.756 448.27 126.877C450.681 125.998 452.731 124.76 454.42 123.162C455.925 121.802 457.197 120.21 458.237 118.387C458.574 117.796 459.19 117.41 459.87 117.41H460.976C460.986 117.41 460.995 117.416 461 117.425V117.425C461.017 117.46 461.034 117.495 461.052 117.53C462.097 119.607 463.504 121.364 465.272 122.802C467.121 124.161 469.212 125.199 471.543 125.918C473.955 126.637 476.447 126.997 479.019 126.997H483.722H487.099C487.501 126.997 487.822 126.877 488.064 126.637C488.305 126.398 488.425 126.078 488.425 125.679V116.092V109.278C488.425 107.746 487.184 106.504 485.652 106.504V106.504H485.29H485.049H484.631C484.509 106.504 484.366 106.468 484.263 106.403V106.403C484.125 106.316 483.996 106.256 483.84 106.207C483.565 106.122 483.338 105.975 483.157 105.765ZM457.314 108.901C457.396 108.86 457.478 108.819 457.56 108.777C458.786 108.15 459.484 106.847 459.484 105.47V102.31V102.31C459.484 101.185 458.572 100.273 457.447 100.273H454.299H448.39C447.667 100.273 447.064 100.353 446.581 100.513C446.099 100.672 445.657 100.952 445.255 101.351C444.933 101.671 444.692 102.07 444.531 102.55C444.371 103.029 444.29 103.588 444.29 104.228V107.104C444.29 108.462 444.572 109.46 445.134 110.1C445.777 110.659 446.782 110.938 448.149 110.938C449.837 110.938 451.445 110.779 452.973 110.459C454.5 110.06 455.947 109.54 457.314 108.901ZM490.154 83.0162C490.074 82.8564 490.033 82.6966 490.033 82.5368V75.9457V68.1562V65.4453C490.033 63.2362 491.824 61.4453 494.033 61.4453H495.439C497.648 61.4453 499.439 59.6545 499.439 57.4453V55.5732V49.3417V47.1101C499.439 44.9009 501.23 43.1101 503.439 43.1101H510.775H522.23C522.342 43.1101 522.445 43.1271 522.539 43.1611C522.757 43.24 522.969 43.3656 523.134 43.5288V43.5288C523.3 43.693 523.427 43.9053 523.506 44.1246C523.54 44.2175 523.557 44.3187 523.557 44.4283V57.7303V57.7303C523.557 59.7821 525.22 61.4453 527.272 61.4453H541.283C541.685 61.4453 542.007 61.5652 542.248 61.8048C542.489 62.0445 542.61 62.3641 542.61 62.7635V69.4745V77.264V79.8551C542.61 82.0642 540.819 83.8551 538.61 83.8551H527.557C525.348 83.8551 523.557 85.6459 523.557 87.8551V97.6364C523.557 98.9147 523.677 99.9933 523.919 100.872C524.24 101.751 524.723 102.47 525.366 103.029C525.928 103.588 526.652 103.988 527.536 104.228C528.501 104.387 529.626 104.467 530.913 104.467H534.048H537.304H538.61C540.819 104.467 542.61 106.258 542.61 108.467V115.133V125.679C542.61 125.919 542.541 126.16 542.405 126.4C542.311 126.565 542.187 126.714 542.024 126.812C541.819 126.935 541.572 126.997 541.283 126.997H538.027H534.651H531.395H528.139C523.477 126.997 519.336 126.438 515.719 125.319C512.181 124.121 509.167 122.403 506.675 120.166C504.263 117.929 502.454 115.093 501.248 111.658C500.042 108.142 499.439 104.068 499.439 99.434V88.5287V87.8551C499.439 85.6459 497.648 83.8551 495.439 83.8551H491.36C491.199 83.8551 491.038 83.8151 490.878 83.7352V83.7352C490.566 83.5802 490.311 83.3273 490.154 83.0162V83.0162ZM600.13 62.8834C595.548 60.5665 590.001 59.4081 583.489 59.4081C578.746 59.4081 574.445 60.0872 570.586 61.4453C566.808 62.8035 563.552 64.7608 560.819 67.3174C558.085 69.8739 555.995 72.8699 554.548 76.3053C553.181 79.7406 552.498 83.5355 552.498 87.6899V100.752C552.498 105.306 553.221 109.341 554.669 112.856C556.196 116.371 558.447 119.327 561.421 121.724C564.396 124.121 568.054 125.918 572.395 127.117C576.817 128.395 581.962 129.034 587.83 129.034C591.528 129.034 595.065 128.834 598.442 128.435C601.899 128.115 604.833 127.636 607.245 126.997C609.657 126.358 611.224 125.679 611.948 124.96C612.109 124.8 612.229 124.64 612.31 124.48C612.39 124.32 612.43 124.161 612.43 124.001V115.492V108.981C612.43 107.812 611.482 106.864 610.313 106.864V106.864C610.118 106.864 609.923 106.891 609.735 106.944C607.582 107.55 605.465 108.083 603.386 108.542C601.215 109.021 599.005 109.381 596.754 109.62C594.583 109.78 592.212 109.86 589.639 109.86C586.343 109.94 583.811 109.78 582.042 109.381C580.354 108.901 579.067 108.222 578.183 107.343C577.46 106.624 576.937 105.745 576.616 104.707C576.374 103.588 576.254 102.35 576.254 100.992V100.992C576.254 100.462 576.683 100.033 577.212 100.033H578.063H581.439H585.057H612.912C613.234 100.033 613.475 99.9933 613.636 99.9134C613.797 99.8335 613.917 99.7136 613.998 99.5538C614.158 99.3142 614.239 99.0745 614.239 98.8348V87.57C614.239 81.8178 613.033 76.8645 610.621 72.7101C608.21 68.4758 604.713 65.2002 600.13 62.8834ZM578.304 80.4996C576.937 81.8577 576.254 83.855 576.254 86.4915V86.4915C576.254 87.6166 577.166 88.5287 578.291 88.5287H591.573C591.97 88.5287 592.292 88.2068 592.292 87.8097V87.8097V86.7312C592.292 85.2132 592.131 83.9349 591.81 82.8963C591.488 81.8577 591.006 81.0189 590.363 80.3797C589.719 79.6607 588.875 79.1414 587.83 78.8218C586.865 78.5023 585.7 78.3425 584.333 78.3425C581.761 78.3425 579.751 79.0615 578.304 80.4996Z"/>
</mask>
<path fill-rule="evenodd" clip-rule="evenodd" d="M258.84 117.29C258.036 115.133 257.634 112.616 257.634 109.74V97.1571V84.4542V71.7514V59.1684V47.9036V41.1182C257.634 38.909 259.425 37.1182 261.634 37.1182H262.82H267.281H271.502H275.843H281.149C281.355 37.1182 281.528 37.1509 281.667 37.2163C281.818 37.2865 281.939 37.3705 282.049 37.4948V37.4948C282.208 37.6751 282.35 37.916 282.429 38.1435C282.46 38.2334 282.475 38.331 282.475 38.4364V51.3789V64.2016V77.0243V89.7271V102.55C282.475 102.869 282.516 103.149 282.596 103.389C282.633 103.5 282.679 103.602 282.733 103.696C282.857 103.908 283.061 104.056 283.266 104.192V104.192C283.542 104.375 283.84 104.53 284.169 104.565C284.313 104.58 284.472 104.587 284.646 104.587H286.193C288.402 104.587 290.193 106.378 290.193 108.587V115.133V125.679C290.193 125.919 290.125 126.16 289.988 126.4C289.895 126.565 289.77 126.714 289.607 126.812C289.402 126.935 289.155 126.997 288.867 126.997H285.972H282.958H279.581H275.24C272.668 126.997 270.296 126.637 268.125 125.918C266.035 125.199 264.186 124.121 262.578 122.683C260.971 121.245 259.725 119.447 258.84 117.29ZM194.808 83.0162C194.728 82.8564 194.688 82.6966 194.688 82.5368V75.9457V68.1562V65.4453C194.688 63.2362 196.478 61.4453 198.687 61.4453H200.093C202.302 61.4453 204.093 59.6545 204.093 57.4453V55.5732V49.3417V47.1101C204.093 44.9009 205.884 43.1101 208.093 43.1101H215.429H226.884C226.996 43.1101 227.099 43.1271 227.193 43.1611C227.411 43.24 227.623 43.3656 227.788 43.5288V43.5288C227.954 43.693 228.081 43.9053 228.161 44.1246C228.194 44.2175 228.211 44.3187 228.211 44.4283V57.7303V57.7303C228.211 59.7821 229.874 61.4453 231.926 61.4453H245.937C246.339 61.4453 246.661 61.5652 246.902 61.8048C247.143 62.0445 247.264 62.3641 247.264 62.7635V69.4745V77.264V79.8551C247.264 82.0642 245.473 83.8551 243.264 83.8551H232.211C230.002 83.8551 228.211 85.6459 228.211 87.8551V97.6364C228.211 98.9147 228.332 99.9933 228.573 100.872C228.894 101.751 229.377 102.47 230.02 103.029C230.582 103.588 231.306 103.988 232.19 104.228C233.155 104.387 234.281 104.467 235.567 104.467H238.702H241.958H243.264C245.473 104.467 247.264 106.258 247.264 108.467V115.133V125.679C247.264 125.919 247.195 126.16 247.059 126.4C246.965 126.565 246.841 126.714 246.678 126.812C246.473 126.935 246.226 126.997 245.937 126.997H242.681H239.305H236.049H232.793C228.131 126.997 223.99 126.438 220.373 125.319C216.835 124.121 213.821 122.403 211.329 120.166C208.917 117.929 207.108 115.093 205.902 111.658C204.696 108.142 204.093 104.068 204.093 99.434V88.5287V87.8551C204.093 85.6459 202.302 83.8551 200.093 83.8551H196.014C195.853 83.8551 195.692 83.8151 195.532 83.7352V83.7352C195.22 83.5802 194.965 83.3273 194.808 83.0162V83.0162ZM334.04 107.343C333.075 107.982 331.146 108.302 328.252 108.302C325.197 108.302 322.423 108.262 319.931 108.182C317.439 108.022 315.108 107.823 312.937 107.583C310.847 107.343 308.797 106.984 306.787 106.504C304.876 106.049 302.892 105.484 300.835 104.812C300.624 104.743 300.403 104.707 300.181 104.707V104.707C299.035 104.707 298.105 105.637 298.105 106.784V114.653V124.121C298.105 124.44 298.145 124.68 298.225 124.84C298.242 124.874 298.263 124.91 298.288 124.947C298.521 125.307 298.902 125.541 299.302 125.696C299.995 125.965 301.003 126.279 302.325 126.637C304.174 127.037 306.385 127.396 308.958 127.716C311.53 128.115 314.304 128.435 317.278 128.675C320.253 128.914 323.227 129.034 326.202 129.034C333.115 129.034 338.863 128.195 343.446 126.517C348.028 124.76 351.445 122.243 353.696 118.968C356.027 115.612 357.193 111.458 357.193 106.504C357.193 102.989 356.349 99.9134 354.66 97.2769C353.053 94.5606 350.641 92.3636 347.425 90.6858C344.21 89.0081 340.23 87.8896 335.487 87.3304L326.925 86.2518C325.317 86.0121 324.031 85.7725 323.066 85.5328C322.102 85.2931 321.418 84.9336 321.016 84.4542C320.614 83.9749 320.414 83.4156 320.414 82.7765C320.414 82.0575 320.735 81.4583 321.378 80.9789C322.021 80.4996 323.026 80.1401 324.393 79.9004C325.76 79.6607 327.528 79.5409 329.699 79.5409C332.673 79.5409 335.366 79.7007 337.778 80.0202C340.27 80.3398 342.642 80.7792 344.893 81.3385C347.129 81.7983 349.403 82.3684 351.713 83.0488C351.908 83.1063 352.111 83.136 352.315 83.136V83.136C353.477 83.136 354.419 82.1937 354.419 81.0313V73.7886V64.5611C354.419 64.4353 354.413 64.3219 354.401 64.2208C354.369 63.9636 354.329 63.6897 354.214 63.4576V63.4576C354.134 63.2974 354.023 63.1474 353.873 63.0499C353.839 63.0278 353.801 63.0069 353.76 62.9873C353.566 62.8965 353.361 62.8286 353.167 62.7374C352.403 62.3775 351.172 61.9868 349.475 61.5652C347.546 61.0059 345.134 60.5266 342.24 60.1271C339.426 59.7276 336.13 59.5279 332.352 59.5279C326.965 59.5279 322.142 60.0073 317.881 60.966C313.701 61.9247 310.164 63.4027 307.269 65.4C304.456 67.3174 302.285 69.6343 300.758 72.3506C299.311 74.987 298.587 78.0629 298.587 81.5781C298.587 85.4129 299.351 88.6086 300.878 91.1652C302.486 93.6418 304.938 95.6391 308.234 97.1571C311.53 98.675 315.791 99.7935 321.016 100.513L329.819 101.711C331.347 101.871 332.512 102.15 333.316 102.55C334.201 102.869 334.763 103.269 335.005 103.748C335.326 104.228 335.487 104.707 335.487 105.186C335.487 105.985 335.005 106.704 334.04 107.343ZM361.205 83.0162C361.125 82.8564 361.085 82.6966 361.085 82.5368V75.9457V68.1562V65.4453C361.085 63.2362 362.875 61.4453 365.085 61.4453H366.49C368.7 61.4453 370.49 59.6545 370.49 57.4453V55.5732V49.3417V47.1101C370.49 44.9009 372.281 43.1101 374.49 43.1101H381.826H393.282C393.393 43.1101 393.496 43.1271 393.59 43.1611C393.808 43.24 394.021 43.3656 394.185 43.5288V43.5288C394.351 43.693 394.478 43.9053 394.558 44.1246C394.591 44.2175 394.608 44.3187 394.608 44.4283V57.7303V57.7303C394.608 59.7821 396.271 61.4453 398.323 61.4453H412.334C412.736 61.4453 413.058 61.5652 413.299 61.8048C413.54 62.0445 413.661 62.3641 413.661 62.7635V69.4745V77.264V79.8551C413.661 82.0642 411.87 83.8551 409.661 83.8551H398.608C396.399 83.8551 394.608 85.6459 394.608 87.8551V97.6364C394.608 98.9147 394.729 99.9933 394.97 100.872C395.291 101.751 395.774 102.47 396.417 103.029C396.98 103.588 397.703 103.988 398.587 104.228C399.552 104.387 400.678 104.467 401.964 104.467H405.099H408.355H409.661C411.87 104.467 413.661 106.258 413.661 108.467V115.133V125.679C413.661 125.919 413.593 126.16 413.456 126.4C413.362 126.565 413.238 126.714 413.075 126.812C412.87 126.935 412.623 126.997 412.334 126.997H409.079H405.702H402.446H399.19C394.528 126.997 390.387 126.438 386.77 125.319C383.233 124.121 380.218 122.403 377.726 120.166C375.314 117.929 373.505 115.093 372.299 111.658C371.093 108.142 370.49 104.068 370.49 99.434V88.5287V87.8551C370.49 85.6459 368.7 83.8551 366.49 83.8551H362.411C362.25 83.8551 362.089 83.8151 361.929 83.7352V83.7352C361.617 83.5802 361.362 83.3273 361.205 83.0162V83.0162ZM483.157 105.765C483.04 105.629 482.961 105.463 482.909 105.29C482.808 104.961 482.758 104.607 482.758 104.228V99.434V94.5206V89.6073V84.8138C482.758 80.4197 482.115 76.6648 480.828 73.549C479.622 70.4332 477.693 67.8766 475.04 65.8793C472.468 63.8021 469.171 62.2842 465.152 61.3255C461.213 60.3668 456.47 59.8874 450.923 59.8874C447.064 59.8874 443.285 60.1271 439.587 60.6065C435.97 61.0858 432.875 61.685 430.302 62.404C427.81 63.0432 426.282 63.6423 425.72 64.2016C425.674 64.247 425.628 64.3182 425.583 64.4152C425.502 64.5872 425.428 64.7655 425.393 64.9524C425.37 65.0783 425.358 65.2275 425.358 65.4V74.1482V80.8098C425.358 81.9621 426.292 82.8963 427.444 82.8963V82.8963C427.66 82.8963 427.874 82.8627 428.08 82.7983C430.227 82.1263 432.375 81.5997 434.523 81.2186C436.854 80.7393 439.185 80.3797 441.517 80.1401C443.928 79.9004 446.34 79.7806 448.752 79.7806C451.566 79.7806 453.736 80.0202 455.264 80.4996C456.791 80.899 457.876 81.6181 458.52 82.6567C459.163 83.6953 459.484 85.1333 459.484 86.9708V86.9708C459.484 87.8974 458.733 88.6486 457.807 88.6486H457.555H449.717H440.914C437.859 88.6486 435.125 89.088 432.714 89.9668C430.382 90.7657 428.373 91.9641 426.684 93.5619C425.077 95.0799 423.83 96.9574 422.946 99.1943C422.142 101.431 421.74 103.908 421.74 106.624V111.298C421.74 114.813 422.464 117.849 423.911 120.406C425.438 122.882 427.569 124.8 430.302 126.158C433.116 127.516 436.372 128.195 440.07 128.195C443.125 128.195 445.858 127.756 448.27 126.877C450.681 125.998 452.731 124.76 454.42 123.162C455.925 121.802 457.197 120.21 458.237 118.387C458.574 117.796 459.19 117.41 459.87 117.41H460.976C460.986 117.41 460.995 117.416 461 117.425V117.425C461.017 117.46 461.034 117.495 461.052 117.53C462.097 119.607 463.504 121.364 465.272 122.802C467.121 124.161 469.212 125.199 471.543 125.918C473.955 126.637 476.447 126.997 479.019 126.997H483.722H487.099C487.501 126.997 487.822 126.877 488.064 126.637C488.305 126.398 488.425 126.078 488.425 125.679V116.092V109.278C488.425 107.746 487.184 106.504 485.652 106.504V106.504H485.29H485.049H484.631C484.509 106.504 484.366 106.468 484.263 106.403V106.403C484.125 106.316 483.996 106.256 483.84 106.207C483.565 106.122 483.338 105.975 483.157 105.765ZM457.314 108.901C457.396 108.86 457.478 108.819 457.56 108.777C458.786 108.15 459.484 106.847 459.484 105.47V102.31V102.31C459.484 101.185 458.572 100.273 457.447 100.273H454.299H448.39C447.667 100.273 447.064 100.353 446.581 100.513C446.099 100.672 445.657 100.952 445.255 101.351C444.933 101.671 444.692 102.07 444.531 102.55C444.371 103.029 444.29 103.588 444.29 104.228V107.104C444.29 108.462 444.572 109.46 445.134 110.1C445.777 110.659 446.782 110.938 448.149 110.938C449.837 110.938 451.445 110.779 452.973 110.459C454.5 110.06 455.947 109.54 457.314 108.901ZM490.154 83.0162C490.074 82.8564 490.033 82.6966 490.033 82.5368V75.9457V68.1562V65.4453C490.033 63.2362 491.824 61.4453 494.033 61.4453H495.439C497.648 61.4453 499.439 59.6545 499.439 57.4453V55.5732V49.3417V47.1101C499.439 44.9009 501.23 43.1101 503.439 43.1101H510.775H522.23C522.342 43.1101 522.445 43.1271 522.539 43.1611C522.757 43.24 522.969 43.3656 523.134 43.5288V43.5288C523.3 43.693 523.427 43.9053 523.506 44.1246C523.54 44.2175 523.557 44.3187 523.557 44.4283V57.7303V57.7303C523.557 59.7821 525.22 61.4453 527.272 61.4453H541.283C541.685 61.4453 542.007 61.5652 542.248 61.8048C542.489 62.0445 542.61 62.3641 542.61 62.7635V69.4745V77.264V79.8551C542.61 82.0642 540.819 83.8551 538.61 83.8551H527.557C525.348 83.8551 523.557 85.6459 523.557 87.8551V97.6364C523.557 98.9147 523.677 99.9933 523.919 100.872C524.24 101.751 524.723 102.47 525.366 103.029C525.928 103.588 526.652 103.988 527.536 104.228C528.501 104.387 529.626 104.467 530.913 104.467H534.048H537.304H538.61C540.819 104.467 542.61 106.258 542.61 108.467V115.133V125.679C542.61 125.919 542.541 126.16 542.405 126.4C542.311 126.565 542.187 126.714 542.024 126.812C541.819 126.935 541.572 126.997 541.283 126.997H538.027H534.651H531.395H528.139C523.477 126.997 519.336 126.438 515.719 125.319C512.181 124.121 509.167 122.403 506.675 120.166C504.263 117.929 502.454 115.093 501.248 111.658C500.042 108.142 499.439 104.068 499.439 99.434V88.5287V87.8551C499.439 85.6459 497.648 83.8551 495.439 83.8551H491.36C491.199 83.8551 491.038 83.8151 490.878 83.7352V83.7352C490.566 83.5802 490.311 83.3273 490.154 83.0162V83.0162ZM600.13 62.8834C595.548 60.5665 590.001 59.4081 583.489 59.4081C578.746 59.4081 574.445 60.0872 570.586 61.4453C566.808 62.8035 563.552 64.7608 560.819 67.3174C558.085 69.8739 555.995 72.8699 554.548 76.3053C553.181 79.7406 552.498 83.5355 552.498 87.6899V100.752C552.498 105.306 553.221 109.341 554.669 112.856C556.196 116.371 558.447 119.327 561.421 121.724C564.396 124.121 568.054 125.918 572.395 127.117C576.817 128.395 581.962 129.034 587.83 129.034C591.528 129.034 595.065 128.834 598.442 128.435C601.899 128.115 604.833 127.636 607.245 126.997C609.657 126.358 611.224 125.679 611.948 124.96C612.109 124.8 612.229 124.64 612.31 124.48C612.39 124.32 612.43 124.161 612.43 124.001V115.492V108.981C612.43 107.812 611.482 106.864 610.313 106.864V106.864C610.118 106.864 609.923 106.891 609.735 106.944C607.582 107.55 605.465 108.083 603.386 108.542C601.215 109.021 599.005 109.381 596.754 109.62C594.583 109.78 592.212 109.86 589.639 109.86C586.343 109.94 583.811 109.78 582.042 109.381C580.354 108.901 579.067 108.222 578.183 107.343C577.46 106.624 576.937 105.745 576.616 104.707C576.374 103.588 576.254 102.35 576.254 100.992V100.992C576.254 100.462 576.683 100.033 577.212 100.033H578.063H581.439H585.057H612.912C613.234 100.033 613.475 99.9933 613.636 99.9134C613.797 99.8335 613.917 99.7136 613.998 99.5538C614.158 99.3142 614.239 99.0745 614.239 98.8348V87.57C614.239 81.8178 613.033 76.8645 610.621 72.7101C608.21 68.4758 604.713 65.2002 600.13 62.8834ZM578.304 80.4996C576.937 81.8577 576.254 83.855 576.254 86.4915V86.4915C576.254 87.6166 577.166 88.5287 578.291 88.5287H591.573C591.97 88.5287 592.292 88.2068 592.292 87.8097V87.8097V86.7312C592.292 85.2132 592.131 83.9349 591.81 82.8963C591.488 81.8577 591.006 81.0189 590.363 80.3797C589.719 79.6607 588.875 79.1414 587.83 78.8218C586.865 78.5023 585.7 78.3425 584.333 78.3425C581.761 78.3425 579.751 79.0615 578.304 80.4996Z" fill="black"/>
<path fill-rule="evenodd" clip-rule="evenodd" d="M258.84 117.29C258.036 115.133 257.634 112.616 257.634 109.74V97.1571V84.4542V71.7514V59.1684V47.9036V41.1182C257.634 38.909 259.425 37.1182 261.634 37.1182H262.82H267.281H271.502H275.843H281.149C281.355 37.1182 281.528 37.1509 281.667 37.2163C281.818 37.2865 281.939 37.3705 282.049 37.4948V37.4948C282.208 37.6751 282.35 37.916 282.429 38.1435C282.46 38.2334 282.475 38.331 282.475 38.4364V51.3789V64.2016V77.0243V89.7271V102.55C282.475 102.869 282.516 103.149 282.596 103.389C282.633 103.5 282.679 103.602 282.733 103.696C282.857 103.908 283.061 104.056 283.266 104.192V104.192C283.542 104.375 283.84 104.53 284.169 104.565C284.313 104.58 284.472 104.587 284.646 104.587H286.193C288.402 104.587 290.193 106.378 290.193 108.587V115.133V125.679C290.193 125.919 290.125 126.16 289.988 126.4C289.895 126.565 289.77 126.714 289.607 126.812C289.402 126.935 289.155 126.997 288.867 126.997H285.972H282.958H279.581H275.24C272.668 126.997 270.296 126.637 268.125 125.918C266.035 125.199 264.186 124.121 262.578 122.683C260.971 121.245 259.725 119.447 258.84 117.29ZM194.808 83.0162C194.728 82.8564 194.688 82.6966 194.688 82.5368V75.9457V68.1562V65.4453C194.688 63.2362 196.478 61.4453 198.687 61.4453H200.093C202.302 61.4453 204.093 59.6545 204.093 57.4453V55.5732V49.3417V47.1101C204.093 44.9009 205.884 43.1101 208.093 43.1101H215.429H226.884C226.996 43.1101 227.099 43.1271 227.193 43.1611C227.411 43.24 227.623 43.3656 227.788 43.5288V43.5288C227.954 43.693 228.081 43.9053 228.161 44.1246C228.194 44.2175 228.211 44.3187 228.211 44.4283V57.7303V57.7303C228.211 59.7821 229.874 61.4453 231.926 61.4453H245.937C246.339 61.4453 246.661 61.5652 246.902 61.8048C247.143 62.0445 247.264 62.3641 247.264 62.7635V69.4745V77.264V79.8551C247.264 82.0642 245.473 83.8551 243.264 83.8551H232.211C230.002 83.8551 228.211 85.6459 228.211 87.8551V97.6364C228.211 98.9147 228.332 99.9933 228.573 100.872C228.894 101.751 229.377 102.47 230.02 103.029C230.582 103.588 231.306 103.988 232.19 104.228C233.155 104.387 234.281 104.467 235.567 104.467H238.702H241.958H243.264C245.473 104.467 247.264 106.258 247.264 108.467V115.133V125.679C247.264 125.919 247.195 126.16 247.059 126.4C246.965 126.565 246.841 126.714 246.678 126.812C246.473 126.935 246.226 126.997 245.937 126.997H242.681H239.305H236.049H232.793C228.131 126.997 223.99 126.438 220.373 125.319C216.835 124.121 213.821 122.403 211.329 120.166C208.917 117.929 207.108 115.093 205.902 111.658C204.696 108.142 204.093 104.068 204.093 99.434V88.5287V87.8551C204.093 85.6459 202.302 83.8551 200.093 83.8551H196.014C195.853 83.8551 195.692 83.8151 195.532 83.7352V83.7352C195.22 83.5802 194.965 83.3273 194.808 83.0162V83.0162ZM334.04 107.343C333.075 107.982 331.146 108.302 328.252 108.302C325.197 108.302 322.423 108.262 319.931 108.182C317.439 108.022 315.108 107.823 312.937 107.583C310.847 107.343 308.797 106.984 306.787 106.504C304.876 106.049 302.892 105.484 300.835 104.812C300.624 104.743 300.403 104.707 300.181 104.707V104.707C299.035 104.707 298.105 105.637 298.105 106.784V114.653V124.121C298.105 124.44 298.145 124.68 298.225 124.84C298.242 124.874 298.263 124.91 298.288 124.947C298.521 125.307 298.902 125.541 299.302 125.696C299.995 125.965 301.003 126.279 302.325 126.637C304.174 127.037 306.385 127.396 308.958 127.716C311.53 128.115 314.304 128.435 317.278 128.675C320.253 128.914 323.227 129.034 326.202 129.034C333.115 129.034 338.863 128.195 343.446 126.517C348.028 124.76 351.445 122.243 353.696 118.968C356.027 115.612 357.193 111.458 357.193 106.504C357.193 102.989 356.349 99.9134 354.66 97.2769C353.053 94.5606 350.641 92.3636 347.425 90.6858C344.21 89.0081 340.23 87.8896 335.487 87.3304L326.925 86.2518C325.317 86.0121 324.031 85.7725 323.066 85.5328C322.102 85.2931 321.418 84.9336 321.016 84.4542C320.614 83.9749 320.414 83.4156 320.414 82.7765C320.414 82.0575 320.735 81.4583 321.378 80.9789C322.021 80.4996 323.026 80.1401 324.393 79.9004C325.76 79.6607 327.528 79.5409 329.699 79.5409C332.673 79.5409 335.366 79.7007 337.778 80.0202C340.27 80.3398 342.642 80.7792 344.893 81.3385C347.129 81.7983 349.403 82.3684 351.713 83.0488C351.908 83.1063 352.111 83.136 352.315 83.136V83.136C353.477 83.136 354.419 82.1937 354.419 81.0313V73.7886V64.5611C354.419 64.4353 354.413 64.3219 354.401 64.2208C354.369 63.9636 354.329 63.6897 354.214 63.4576V63.4576C354.134 63.2974 354.023 63.1474 353.873 63.0499C353.839 63.0278 353.801 63.0069 353.76 62.9873C353.566 62.8965 353.361 62.8286 353.167 62.7374C352.403 62.3775 351.172 61.9868 349.475 61.5652C347.546 61.0059 345.134 60.5266 342.24 60.1271C339.426 59.7276 336.13 59.5279 332.352 59.5279C326.965 59.5279 322.142 60.0073 317.881 60.966C313.701 61.9247 310.164 63.4027 307.269 65.4C304.456 67.3174 302.285 69.6343 300.758 72.3506C299.311 74.987 298.587 78.0629 298.587 81.5781C298.587 85.4129 299.351 88.6086 300.878 91.1652C302.486 93.6418 304.938 95.6391 308.234 97.1571C311.53 98.675 315.791 99.7935 321.016 100.513L329.819 101.711C331.347 101.871 332.512 102.15 333.316 102.55C334.201 102.869 334.763 103.269 335.005 103.748C335.326 104.228 335.487 104.707 335.487 105.186C335.487 105.985 335.005 106.704 334.04 107.343ZM361.205 83.0162C361.125 82.8564 361.085 82.6966 361.085 82.5368V75.9457V68.1562V65.4453C361.085 63.2362 362.875 61.4453 365.085 61.4453H366.49C368.7 61.4453 370.49 59.6545 370.49 57.4453V55.5732V49.3417V47.1101C370.49 44.9009 372.281 43.1101 374.49 43.1101H381.826H393.282C393.393 43.1101 393.496 43.1271 393.59 43.1611C393.808 43.24 394.021 43.3656 394.185 43.5288V43.5288C394.351 43.693 394.478 43.9053 394.558 44.1246C394.591 44.2175 394.608 44.3187 394.608 44.4283V57.7303V57.7303C394.608 59.7821 396.271 61.4453 398.323 61.4453H412.334C412.736 61.4453 413.058 61.5652 413.299 61.8048C413.54 62.0445 413.661 62.3641 413.661 62.7635V69.4745V77.264V79.8551C413.661 82.0642 411.87 83.8551 409.661 83.8551H398.608C396.399 83.8551 394.608 85.6459 394.608 87.8551V97.6364C394.608 98.9147 394.729 99.9933 394.97 100.872C395.291 101.751 395.774 102.47 396.417 103.029C396.98 103.588 397.703 103.988 398.587 104.228C399.552 104.387 400.678 104.467 401.964 104.467H405.099H408.355H409.661C411.87 104.467 413.661 106.258 413.661 108.467V115.133V125.679C413.661 125.919 413.593 126.16 413.456 126.4C413.362 126.565 413.238 126.714 413.075 126.812C412.87 126.935 412.623 126.997 412.334 126.997H409.079H405.702H402.446H399.19C394.528 126.997 390.387 126.438 386.77 125.319C383.233 124.121 380.218 122.403 377.726 120.166C375.314 117.929 373.505 115.093 372.299 111.658C371.093 108.142 370.49 104.068 370.49 99.434V88.5287V87.8551C370.49 85.6459 368.7 83.8551 366.49 83.8551H362.411C362.25 83.8551 362.089 83.8151 361.929 83.7352V83.7352C361.617 83.5802 361.362 83.3273 361.205 83.0162V83.0162ZM483.157 105.765C483.04 105.629 482.961 105.463 482.909 105.29C482.808 104.961 482.758 104.607 482.758 104.228V99.434V94.5206V89.6073V84.8138C482.758 80.4197 482.115 76.6648 480.828 73.549C479.622 70.4332 477.693 67.8766 475.04 65.8793C472.468 63.8021 469.171 62.2842 465.152 61.3255C461.213 60.3668 456.47 59.8874 450.923 59.8874C447.064 59.8874 443.285 60.1271 439.587 60.6065C435.97 61.0858 432.875 61.685 430.302 62.404C427.81 63.0432 426.282 63.6423 425.72 64.2016C425.674 64.247 425.628 64.3182 425.583 64.4152C425.502 64.5872 425.428 64.7655 425.393 64.9524C425.37 65.0783 425.358 65.2275 425.358 65.4V74.1482V80.8098C425.358 81.9621 426.292 82.8963 427.444 82.8963V82.8963C427.66 82.8963 427.874 82.8627 428.08 82.7983C430.227 82.1263 432.375 81.5997 434.523 81.2186C436.854 80.7393 439.185 80.3797 441.517 80.1401C443.928 79.9004 446.34 79.7806 448.752 79.7806C451.566 79.7806 453.736 80.0202 455.264 80.4996C456.791 80.899 457.876 81.6181 458.52 82.6567C459.163 83.6953 459.484 85.1333 459.484 86.9708V86.9708C459.484 87.8974 458.733 88.6486 457.807 88.6486H457.555H449.717H440.914C437.859 88.6486 435.125 89.088 432.714 89.9668C430.382 90.7657 428.373 91.9641 426.684 93.5619C425.077 95.0799 423.83 96.9574 422.946 99.1943C422.142 101.431 421.74 103.908 421.74 106.624V111.298C421.74 114.813 422.464 117.849 423.911 120.406C425.438 122.882 427.569 124.8 430.302 126.158C433.116 127.516 436.372 128.195 440.07 128.195C443.125 128.195 445.858 127.756 448.27 126.877C450.681 125.998 452.731 124.76 454.42 123.162C455.925 121.802 457.197 120.21 458.237 118.387C458.574 117.796 459.19 117.41 459.87 117.41H460.976C460.986 117.41 460.995 117.416 461 117.425V117.425C461.017 117.46 461.034 117.495 461.052 117.53C462.097 119.607 463.504 121.364 465.272 122.802C467.121 124.161 469.212 125.199 471.543 125.918C473.955 126.637 476.447 126.997 479.019 126.997H483.722H487.099C487.501 126.997 487.822 126.877 488.064 126.637C488.305 126.398 488.425 126.078 488.425 125.679V116.092V109.278C488.425 107.746 487.184 106.504 485.652 106.504V106.504H485.29H485.049H484.631C484.509 106.504 484.366 106.468 484.263 106.403V106.403C484.125 106.316 483.996 106.256 483.84 106.207C483.565 106.122 483.338 105.975 483.157 105.765ZM457.314 108.901C457.396 108.86 457.478 108.819 457.56 108.777C458.786 108.15 459.484 106.847 459.484 105.47V102.31V102.31C459.484 101.185 458.572 100.273 457.447 100.273H454.299H448.39C447.667 100.273 447.064 100.353 446.581 100.513C446.099 100.672 445.657 100.952 445.255 101.351C444.933 101.671 444.692 102.07 444.531 102.55C444.371 103.029 444.29 103.588 444.29 104.228V107.104C444.29 108.462 444.572 109.46 445.134 110.1C445.777 110.659 446.782 110.938 448.149 110.938C449.837 110.938 451.445 110.779 452.973 110.459C454.5 110.06 455.947 109.54 457.314 108.901ZM490.154 83.0162C490.074 82.8564 490.033 82.6966 490.033 82.5368V75.9457V68.1562V65.4453C490.033 63.2362 491.824 61.4453 494.033 61.4453H495.439C497.648 61.4453 499.439 59.6545 499.439 57.4453V55.5732V49.3417V47.1101C499.439 44.9009 501.23 43.1101 503.439 43.1101H510.775H522.23C522.342 43.1101 522.445 43.1271 522.539 43.1611C522.757 43.24 522.969 43.3656 523.134 43.5288V43.5288C523.3 43.693 523.427 43.9053 523.506 44.1246C523.54 44.2175 523.557 44.3187 523.557 44.4283V57.7303V57.7303C523.557 59.7821 525.22 61.4453 527.272 61.4453H541.283C541.685 61.4453 542.007 61.5652 542.248 61.8048C542.489 62.0445 542.61 62.3641 542.61 62.7635V69.4745V77.264V79.8551C542.61 82.0642 540.819 83.8551 538.61 83.8551H527.557C525.348 83.8551 523.557 85.6459 523.557 87.8551V97.6364C523.557 98.9147 523.677 99.9933 523.919 100.872C524.24 101.751 524.723 102.47 525.366 103.029C525.928 103.588 526.652 103.988 527.536 104.228C528.501 104.387 529.626 104.467 530.913 104.467H534.048H537.304H538.61C540.819 104.467 542.61 106.258 542.61 108.467V115.133V125.679C542.61 125.919 542.541 126.16 542.405 126.4C542.311 126.565 542.187 126.714 542.024 126.812C541.819 126.935 541.572 126.997 541.283 126.997H538.027H534.651H531.395H528.139C523.477 126.997 519.336 126.438 515.719 125.319C512.181 124.121 509.167 122.403 506.675 120.166C504.263 117.929 502.454 115.093 501.248 111.658C500.042 108.142 499.439 104.068 499.439 99.434V88.5287V87.8551C499.439 85.6459 497.648 83.8551 495.439 83.8551H491.36C491.199 83.8551 491.038 83.8151 490.878 83.7352V83.7352C490.566 83.5802 490.311 83.3273 490.154 83.0162V83.0162ZM600.13 62.8834C595.548 60.5665 590.001 59.4081 583.489 59.4081C578.746 59.4081 574.445 60.0872 570.586 61.4453C566.808 62.8035 563.552 64.7608 560.819 67.3174C558.085 69.8739 555.995 72.8699 554.548 76.3053C553.181 79.7406 552.498 83.5355 552.498 87.6899V100.752C552.498 105.306 553.221 109.341 554.669 112.856C556.196 116.371 558.447 119.327 561.421 121.724C564.396 124.121 568.054 125.918 572.395 127.117C576.817 128.395 581.962 129.034 587.83 129.034C591.528 129.034 595.065 128.834 598.442 128.435C601.899 128.115 604.833 127.636 607.245 126.997C609.657 126.358 611.224 125.679 611.948 124.96C612.109 124.8 612.229 124.64 612.31 124.48C612.39 124.32 612.43 124.161 612.43 124.001V115.492V108.981C612.43 107.812 611.482 106.864 610.313 106.864V106.864C610.118 106.864 609.923 106.891 609.735 106.944C607.582 107.55 605.465 108.083 603.386 108.542C601.215 109.021 599.005 109.381 596.754 109.62C594.583 109.78 592.212 109.86 589.639 109.86C586.343 109.94 583.811 109.78 582.042 109.381C580.354 108.901 579.067 108.222 578.183 107.343C577.46 106.624 576.937 105.745 576.616 104.707C576.374 103.588 576.254 102.35 576.254 100.992V100.992C576.254 100.462 576.683 100.033 577.212 100.033H578.063H581.439H585.057H612.912C613.234 100.033 613.475 99.9933 613.636 99.9134C613.797 99.8335 613.917 99.7136 613.998 99.5538C614.158 99.3142 614.239 99.0745 614.239 98.8348V87.57C614.239 81.8178 613.033 76.8645 610.621 72.7101C608.21 68.4758 604.713 65.2002 600.13 62.8834ZM578.304 80.4996C576.937 81.8577 576.254 83.855 576.254 86.4915V86.4915C576.254 87.6166 577.166 88.5287 578.291 88.5287H591.573C591.97 88.5287 592.292 88.2068 592.292 87.8097V87.8097V86.7312C592.292 85.2132 592.131 83.9349 591.81 82.8963C591.488 81.8577 591.006 81.0189 590.363 80.3797C589.719 79.6607 588.875 79.1414 587.83 78.8218C586.865 78.5023 585.7 78.3425 584.333 78.3425C581.761 78.3425 579.751 79.0615 578.304 80.4996Z" stroke="white" stroke-width="14" mask="url(#path-4-outside-1_1207_106488)"/>
<mask id="path-5-outside-2_1207_106488" maskUnits="userSpaceOnUse" x="0.991211" y="0.625977" width="161" height="163" fill="black">
<rect fill="white" x="0.991211" y="0.625977" width="161" height="163"/>
<path fill-rule="evenodd" clip-rule="evenodd" d="M7.99121 23.9173C7.99121 14.9199 14.9184 7.62598 23.4634 7.62598H139.505C148.05 7.62598 154.977 14.9199 154.977 23.9173V139.586C154.977 148.583 148.05 155.877 139.505 155.877H23.4634C14.9184 155.877 7.99121 148.583 7.99121 139.586V23.9173ZM71.056 41.4707C70.8729 39.145 72.7108 37.1568 75.0436 37.1568H92.823C95.1851 37.1568 97.0328 39.1929 96.8042 41.5439L93.0298 80.3659C92.7807 82.9278 90.6273 84.8821 88.0532 84.8821H79.0946C76.4854 84.8821 74.3148 82.8756 74.11 80.2744L71.056 41.4707ZM74.6487 104.358C72.2019 106.855 70.9785 109.895 70.9785 113.478C70.9785 117.061 72.2019 120.101 74.6487 122.598C77.0955 125.095 80.0742 126.344 83.5849 126.344C87.2019 126.344 90.2339 125.095 92.6807 122.598C95.1275 120.101 96.3509 117.061 96.3509 113.478C96.3509 109.895 95.1275 106.855 92.6807 104.358C90.2339 101.861 87.2019 100.612 83.5849 100.612C80.0742 100.612 77.0955 101.861 74.6487 104.358Z"/>
</mask>
<path fill-rule="evenodd" clip-rule="evenodd" d="M7.99121 23.9173C7.99121 14.9199 14.9184 7.62598 23.4634 7.62598H139.505C148.05 7.62598 154.977 14.9199 154.977 23.9173V139.586C154.977 148.583 148.05 155.877 139.505 155.877H23.4634C14.9184 155.877 7.99121 148.583 7.99121 139.586V23.9173ZM71.056 41.4707C70.8729 39.145 72.7108 37.1568 75.0436 37.1568H92.823C95.1851 37.1568 97.0328 39.1929 96.8042 41.5439L93.0298 80.3659C92.7807 82.9278 90.6273 84.8821 88.0532 84.8821H79.0946C76.4854 84.8821 74.3148 82.8756 74.11 80.2744L71.056 41.4707ZM74.6487 104.358C72.2019 106.855 70.9785 109.895 70.9785 113.478C70.9785 117.061 72.2019 120.101 74.6487 122.598C77.0955 125.095 80.0742 126.344 83.5849 126.344C87.2019 126.344 90.2339 125.095 92.6807 122.598C95.1275 120.101 96.3509 117.061 96.3509 113.478C96.3509 109.895 95.1275 106.855 92.6807 104.358C90.2339 101.861 87.2019 100.612 83.5849 100.612C80.0742 100.612 77.0955 101.861 74.6487 104.358Z" fill="black"/>
<path d="M71.056 41.4707L78.0344 40.9214L78.0344 40.9214L71.056 41.4707ZM96.8042 41.5439L89.837 40.8665L89.837 40.8665L96.8042 41.5439ZM93.0298 80.3659L86.0626 79.6885L86.0626 79.6885L93.0298 80.3659ZM74.11 80.2744L67.1316 80.8236L67.1316 80.8236L74.11 80.2744ZM74.6487 104.358L69.6489 99.459L69.6488 99.459L74.6487 104.358ZM74.6487 122.598L79.6485 117.699L79.6485 117.699L74.6487 122.598ZM92.6807 122.598L97.6805 127.497L97.6805 127.497L92.6807 122.598ZM92.6807 104.358L97.6805 99.459L97.6805 99.459L92.6807 104.358ZM23.4634 0.625977C10.7165 0.625977 0.991211 11.3985 0.991211 23.9173H14.9912C14.9912 18.4412 19.1202 14.626 23.4634 14.626V0.625977ZM139.505 0.625977H23.4634V14.626H139.505V0.625977ZM161.977 23.9173C161.977 11.3986 152.252 0.625977 139.505 0.625977V14.626C143.848 14.626 147.977 18.4412 147.977 23.9173H161.977ZM161.977 139.586V23.9173H147.977V139.586H161.977ZM139.505 162.877C152.252 162.877 161.977 152.105 161.977 139.586H147.977C147.977 145.062 143.848 148.877 139.505 148.877V162.877ZM23.4634 162.877H139.505V148.877H23.4634V162.877ZM0.991211 139.586C0.991211 152.105 10.7165 162.877 23.4634 162.877V148.877C19.1202 148.877 14.9912 145.062 14.9912 139.586H0.991211ZM0.991211 23.9173V139.586H14.9912V23.9173H0.991211ZM75.0436 30.1568C68.6283 30.1568 63.5742 35.6243 64.0775 42.0199L78.0344 40.9214C78.1717 42.6657 76.7933 44.1568 75.0436 44.1568V30.1568ZM92.823 30.1568H75.0436V44.1568H92.823V30.1568ZM103.771 42.2213C104.4 35.756 99.3187 30.1568 92.823 30.1568V44.1568C91.0514 44.1568 89.6656 42.6298 89.837 40.8665L103.771 42.2213ZM99.9969 81.0433L103.771 42.2212L89.837 40.8665L86.0626 79.6885L99.9969 81.0433ZM88.0532 91.8821C94.2309 91.8821 99.3991 87.1919 99.9969 81.0433L86.0626 79.6885C86.1623 78.6638 87.0236 77.8821 88.0532 77.8821V91.8821ZM79.0946 91.8821H88.0532V77.8821H79.0946V91.8821ZM67.1316 80.8236C67.623 87.0666 72.8324 91.8821 79.0946 91.8821V77.8821C80.1383 77.8821 81.0066 78.6847 81.0885 79.7251L67.1316 80.8236ZM64.0775 42.0199L67.1316 80.8236L81.0885 79.7251L78.0344 40.9214L64.0775 42.0199ZM77.9785 113.478C77.9785 111.676 78.5189 110.41 79.6485 109.257L69.6488 99.459C65.8849 103.3 63.9785 108.114 63.9785 113.478H77.9785ZM79.6485 117.699C78.5189 116.546 77.9785 115.28 77.9785 113.478H63.9785C63.9785 118.842 65.8849 123.656 69.6489 127.497L79.6485 117.699ZM83.5849 119.344C81.9466 119.344 80.7726 118.846 79.6485 117.699L69.6488 127.497C73.4185 131.344 78.2019 133.344 83.5849 133.344V119.344ZM87.6809 117.699C86.6008 118.801 85.3937 119.344 83.5849 119.344V133.344C89.0102 133.344 93.8669 131.389 97.6805 127.497L87.6809 117.699ZM89.3509 113.478C89.3509 115.28 88.8105 116.546 87.6809 117.699L97.6805 127.497C101.445 123.656 103.351 118.842 103.351 113.478H89.3509ZM87.6809 109.257C88.8105 110.41 89.3509 111.676 89.3509 113.478H103.351C103.351 108.114 101.445 103.3 97.6805 99.459L87.6809 109.257ZM83.5849 107.612C85.3937 107.612 86.6008 108.155 87.6809 109.257L97.6805 99.459C93.8669 95.567 89.0102 93.6124 83.5849 93.6124V107.612ZM79.6485 109.257C80.7725 108.11 81.9466 107.612 83.5849 107.612V93.6124C78.2019 93.6124 73.4185 95.6119 69.6489 99.459L79.6485 109.257Z" fill="white" mask="url(#path-5-outside-2_1207_106488)"/>
</svg>
